STARTFONT 2.1
COMMENT
COMMENT Converted from OpenType font "GenBasR.ttf" by "otf2bdf 3.0".
COMMENT
FONT -FreeType-Gentium Basic-Medium-R-Normal--32-320-72-72-P-146-ISO10646-1
SIZE 32 72 72
FONTBOUNDINGBOX 47 44 -16 -10
STARTPROPERTIES 19
FOUNDRY "FreeType"
FAMILY_NAME "Gentium Basic"
WEIGHT_NAME "Medium"
SLANT "R"
SETWIDTH_NAME "Normal"
ADD_STYLE_NAME ""
PIXEL_SIZE 32
POINT_SIZE 320
RESOLUTION_X 72
RESOLUTION_Y 72
SPACING "P"
AVERAGE_WIDTH 146
CHARSET_REGISTRY "ISO10646"
CHARSET_ENCODING "1"
FONT_ASCENT 27
FONT_DESCENT 9
COPYRIGHT "Copyright (c) SIL International, 2003-2008."
_OTF_FONTFILE "GenBasR.ttf"
_OTF_PSNAME "GentiumBasic"
ENDPROPERTIES
CHARS 704
STARTCHAR 0020
ENCODING 32
SWIDTH 218 0
DWIDTH 7 0
BBX 0 0 0 0
BITMAP
ENDCHAR
STARTCHAR 0021
ENCODING 33
SWIDTH 281 0
DWIDTH 9 0
BBX 4 23 2 0
BITMAP
30
70
70
70
70
70
70
70
70
60
60
60
60
60
60
60
60
40
00
70
F0
F0
E0
ENDCHAR
STARTCHAR 0022
ENCODING 34
SWIDTH 437 0
DWIDTH 14 0
BBX 8 10 3 13
BITMAP
E3
C7
C7
C7
C7
C3
C3
C3
C3
C2
ENDCHAR
STARTCHAR 0023
ENCODING 35
SWIDTH 468 0
DWIDTH 15 0
BBX 14 18 1 2
BITMAP
0118
0318
0310
0230
0630
3FFC
0460
0C60
0C60
0C40
08C0
FFF8
1880
1180
3180
3180
3100
2300
ENDCHAR
STARTCHAR 0024
ENCODING 36
SWIDTH 468 0
DWIDTH 15 0
BBX 12 25 1 -3
BITMAP
0600
0600
0600
1FC0
3FF0
6660
6600
6600
6600
7600
3E00
1F80
07C0
07E0
0670
0630
0630
8630
C630
E660
FFC0
7F80
0600
0600
0600
ENDCHAR
STARTCHAR 0025
ENCODING 37
SWIDTH 687 0
DWIDTH 22 0
BBX 20 20 1 -1
BITMAP
1E00C0
630180
430380
C18300
C18600
C18C00
C19C00
611800
633000
3C73C0
006C60
00C860
019830
039830
031830
061830
0E0820
1C0C60
180780
300000
ENDCHAR
STARTCHAR 0026
ENCODING 38
SWIDTH 656 0
DWIDTH 21 0
BBX 19 22 2 0
BITMAP
03C000
04E000
086000
186000
186000
186000
18C000
1D8000
0F0000
0C0000
1C3FE0
3E0E80
770600
638600
C18600
C1C600
C0EC00
C07C00
C03C00
601E00
302FC0
1FC380
ENDCHAR
STARTCHAR 0027
ENCODING 39
SWIDTH 250 0
DWIDTH 8 0
BBX 3 10 3 13
BITMAP
E0
C0
C0
C0
C0
C0
C0
C0
C0
C0
ENDCHAR
STARTCHAR 0028
ENCODING 40
SWIDTH 312 0
DWIDTH 10 0
BBX 7 30 2 -5
BITMAP
02
0C
18
18
30
30
60
60
60
60
C0
C0
C0
C0
C0
C0
C0
C0
C0
C0
E0
60
60
60
70
30
38
18
0C
02
ENDCHAR
STARTCHAR 0029
ENCODING 41
SWIDTH 312 0
DWIDTH 10 0
BBX 7 30 1 -5
BITMAP
80
60
30
38
18
1C
0C
0C
0C
0E
06
06
06
06
06
06
06
06
06
06
0C
0C
0C
0C
18
18
30
30
60
80
ENDCHAR
STARTCHAR 002A
ENCODING 42
SWIDTH 437 0
DWIDTH 14 0
BBX 12 13 1 11
BITMAP
0600
0600
8600
6630
F2F0
1B80
0600
1B80
72F0
E630
0620
0600
0600
ENDCHAR
STARTCHAR 002B
ENCODING 43
SWIDTH 406 0
DWIDTH 13 0
BBX 12 11 1 3
BITMAP
0600
0600
0600
0600
0600
FFF0
0600
0600
0600
0600
0600
ENDCHAR
STARTCHAR 002C
ENCODING 44
SWIDTH 218 0
DWIDTH 7 0
BBX 4 8 2 -5
BITMAP
70
F0
30
30
30
20
40
C0
ENDCHAR
STARTCHAR 002D
ENCODING 45
SWIDTH 343 0
DWIDTH 11 0
BBX 9 1 1 8
BITMAP
FF80
ENDCHAR
STARTCHAR 002E
ENCODING 46
SWIDTH 218 0
DWIDTH 7 0
BBX 4 4 2 0
BITMAP
70
F0
F0
E0
ENDCHAR
STARTCHAR 002F
ENCODING 47
SWIDTH 468 0
DWIDTH 15 0
BBX 13 30 1 -5
BITMAP
0018
0038
0030
0030
0070
0060
0060
00E0
00C0
01C0
0180
0180
0380
0300
0700
0600
0600
0E00
0C00
0C00
1C00
1800
3800
3000
3000
7000
6000
6000
E000
C000
ENDCHAR
STARTCHAR 0030
ENCODING 48
SWIDTH 468 0
DWIDTH 15 0
BBX 13 19 1 0
BITMAP
0780
18C0
2060
6030
4030
4038
C018
C018
C018
C018
C018
C018
C018
C010
6010
6030
3020
1840
0F80
ENDCHAR
STARTCHAR 0031
ENCODING 49
SWIDTH 468 0
DWIDTH 15 0
BBX 11 19 2 0
BITMAP
0200
1E00
7E00
8600
0600
0600
0600
0600
0600
0600
0600
0600
0600
0600
0600
0600
0600
0F00
7FE0
ENDCHAR
STARTCHAR 0032
ENCODING 50
SWIDTH 468 0
DWIDTH 15 0
BBX 11 19 2 0
BITMAP
0F80
30C0
6060
6060
6060
0060
0060
00C0
00C0
0180
0300
0700
0600
0C00
1800
3020
7020
E020
FFE0
ENDCHAR
STARTCHAR 0033
ENCODING 51
SWIDTH 468 0
DWIDTH 15 0
BBX 11 19 2 0
BITMAP
1F00
7180
60C0
E0C0
00C0
00C0
0180
0300
0F00
03C0
00C0
00E0
0060
0060
0060
0060
80C0
C180
7F00
ENDCHAR
STARTCHAR 0034
ENCODING 52
SWIDTH 468 0
DWIDTH 15 0
BBX 12 19 1 0
BITMAP
0040
01C0
03C0
03C0
06C0
0CC0
0CC0
18C0
30C0
30C0
60C0
E0C0
FFF0
00C0
00C0
00C0
00C0
00C0
07F0
ENDCHAR
STARTCHAR 0035
ENCODING 53
SWIDTH 468 0
DWIDTH 15 0
BBX 11 19 2 0
BITMAP
3FE0
2000
2000
6000
6000
6000
6000
7F00
61C0
00C0
0060
0060
0060
0060
0060
0040
80C0
C180
3F00
ENDCHAR
STARTCHAR 0036
ENCODING 54
SWIDTH 468 0
DWIDTH 15 0
BBX 12 20 2 0
BITMAP
00C0
0700
0E00
1800
3000
7000
6000
6000
CF80
F0E0
E060
C070
C030
C030
C030
6030
6020
2060
3040
0F80
ENDCHAR
STARTCHAR 0037
ENCODING 55
SWIDTH 468 0
DWIDTH 15 0
BBX 12 19 2 0
BITMAP
FFF0
8060
8060
00E0
00C0
00C0
0180
0180
0300
0300
0700
0600
0600
0C00
0C00
1C00
1800
3800
3000
ENDCHAR
STARTCHAR 0038
ENCODING 56
SWIDTH 468 0
DWIDTH 15 0
BBX 12 19 2 0
BITMAP
1F80
30C0
6060
E060
E060
E060
F8C0
7F80
1F80
1FC0
31E0
6070
C070
C030
C030
C020
6020
7040
1F80
ENDCHAR
STARTCHAR 0039
ENCODING 57
SWIDTH 468 0
DWIDTH 15 0
BBX 12 20 2 -1
BITMAP
0F80
31C0
20E0
4060
C070
C030
C030
C030
C030
6070
30B0
1F30
0060
0060
0060
00C0
0180
0700
1E00
3000
ENDCHAR
STARTCHAR 003A
ENCODING 58
SWIDTH 218 0
DWIDTH 7 0
BBX 4 15 2 0
BITMAP
70
F0
F0
60
00
00
00
00
00
00
00
70
F0
F0
E0
ENDCHAR
STARTCHAR 003B
ENCODING 59
SWIDTH 218 0
DWIDTH 7 0
BBX 4 20 2 -5
BITMAP
70
F0
F0
60
00
00
00
00
00
00
00
00
70
F0
30
30
30
20
40
C0
ENDCHAR
STARTCHAR 003C
ENCODING 60
SWIDTH 437 0
DWIDTH 14 0
BBX 12 10 1 4
BITMAP
0030
00F0
07C0
3E00
F800
F000
7E00
0F80
01F0
0070
ENDCHAR
STARTCHAR 003D
ENCODING 61
SWIDTH 437 0
DWIDTH 14 0
BBX 12 6 1 6
BITMAP
FFF0
0000
0000
0000
0000
FFF0
ENDCHAR
STARTCHAR 003E
ENCODING 62
SWIDTH 437 0
DWIDTH 14 0
BBX 12 10 1 4
BITMAP
6000
F800
1F00
07E0
00F0
01F0
07C0
3E00
F000
C000
ENDCHAR
STARTCHAR 003F
ENCODING 63
SWIDTH 437 0
DWIDTH 14 0
BBX 10 23 2 0
BITMAP
1F00
6380
41C0
C0C0
C0C0
80C0
00C0
0180
0180
0300
0300
0600
0E00
0C00
0C00
0C00
0C00
0000
0000
0E00
1E00
1E00
1C00
ENDCHAR
STARTCHAR 0040
ENCODING 64
SWIDTH 812 0
DWIDTH 26 0
BBX 24 25 1 -5
BITMAP
003F80
01C0E0
020038
0C001C
18000C
103C8E
204386
608187
418183
C10183
C30183
C30183
C30183
C30183
C30183
C30182
E18186
618384
70C5C8
3078F0
380000
1C0004
0F001C
03C070
007F80
ENDCHAR
STARTCHAR 0041
ENCODING 65
SWIDTH 593 0
DWIDTH 19 0
BBX 19 20 0 0
BITMAP
004000
00E000
00E000
01E000
01F000
01B000
033000
033800
031800
061C00
061C00
060C00
0FFE00
0C0600
080600
180700
180300
100300
300380
FE0FE0
ENDCHAR
STARTCHAR 0042
ENCODING 66
SWIDTH 531 0
DWIDTH 17 0
BBX 14 20 1 0
BITMAP
3FC0
F070
3038
3018
3018
3018
3018
3030
30E0
3FE0
3070
3038
301C
300C
300C
300C
300C
3018
3030
FFC0
ENDCHAR
STARTCHAR 0043
ENCODING 67
SWIDTH 531 0
DWIDTH 17 0
BBX 14 20 1 0
BITMAP
03F8
0C1C
1008
3000
6000
6000
4000
C000
C000
C000
C000
C000
C000
C000
6000
6000
7000
3804
1C18
07E0
ENDCHAR
STARTCHAR 0044
ENCODING 68
SWIDTH 593 0
DWIDTH 19 0
BBX 17 20 1 0
BITMAP
3FE000
F03800
300C00
300600
300300
300300
300380
300180
300180
300180
300180
300180
300180
300300
300300
300300
300600
300C00
303800
FFE000
ENDCHAR
STARTCHAR 0045
ENCODING 69
SWIDTH 500 0
DWIDTH 16 0
BBX 13 20 1 0
BITMAP
FFF0
3010
3010
3010
3000
3000
3000
3000
3000
3FE0
3040
3000
3000
3000
3000
3000
3008
3008
3018
FFF8
ENDCHAR
STARTCHAR 0046
ENCODING 70
SWIDTH 468 0
DWIDTH 15 0
BBX 12 20 1 0
BITMAP
FFF0
3010
3010
3010
3000
3000
3000
3000
3000
3FC0
3080
3000
3000
3000
3000
3000
3000
3000
3000
FE00
ENDCHAR
STARTCHAR 0047
ENCODING 71
SWIDTH 593 0
DWIDTH 19 0
BBX 18 20 1 0
BITMAP
01FE00
060F00
080000
100000
200000
600000
400000
C00000
C00000
C00000
C00000
C01FC0
C00700
C00300
600300
600300
300300
180300
0C0300
03FC00
ENDCHAR
STARTCHAR 0048
ENCODING 72
SWIDTH 656 0
DWIDTH 21 0
BBX 19 20 1 0
BITMAP
FC07E0
300180
300180
300180
300180
300180
300180
300180
300180
3FFF80
300180
300180
300180
300180
300180
300180
300180
300180
300180
FC07E0
ENDCHAR
STARTCHAR 0049
ENCODING 73
SWIDTH 312 0
DWIDTH 10 0
BBX 6 20 2 0
BITMAP
FC
30
30
30
30
30
30
30
30
30
30
30
30
30
30
30
30
30
30
FC
ENDCHAR
STARTCHAR 004A
ENCODING 74
SWIDTH 312 0
DWIDTH 10 0
BBX 11 25 -3 -5
BITMAP
0FE0
0180
0180
0180
0180
0180
0180
0180
0180
0180
0180
0180
0180
0180
0180
0180
0180
0180
0180
0180
0100
0100
0300
6200
FC00
ENDCHAR
STARTCHAR 004B
ENCODING 75
SWIDTH 593 0
DWIDTH 19 0
BBX 17 20 1 0
BITMAP
FC7F00
301800
303000
306000
30E000
31C000
318000
330000
360000
3E0000
360000
370000
338000
31C000
30E000
307000
307800
303C00
301E00
FC0F80
ENDCHAR
STARTCHAR 004C
ENCODING 76
SWIDTH 468 0
DWIDTH 15 0
BBX 13 20 1 0
BITMAP
FC00
3000
3000
3000
3000
3000
3000
3000
3000
3000
3000
3000
3000
3000
3000
3000
3008
3008
3018
FFF8
ENDCHAR
STARTCHAR 004D
ENCODING 77
SWIDTH 812 0
DWIDTH 26 0
BBX 24 20 1 0
BITMAP
F8003E
3C0038
3C0078
3E0078
3600D8
3600D8
370098
330198
338198
318318
31C318
31C618
30C618
30E618
306C18
307C18
303818
303818
303818
FC10FF
ENDCHAR
STARTCHAR 004E
ENCODING 78
SWIDTH 656 0
DWIDTH 21 0
BBX 19 20 1 0
BITMAP
F007E0
380180
3C0180
3C0180
3E0180
370180
338180
338180
31C180
30E180
306180
307180
303980
301D80
300D80
300F80
300780
300380
300380
FC0180
ENDCHAR
STARTCHAR 004F
ENCODING 79
SWIDTH 593 0
DWIDTH 19 0
BBX 17 20 1 0
BITMAP
03F000
0C1800
100C00
300600
200300
600300
400380
C00180
C00180
C00180
C00180
C00180
C00180
E00100
600300
600200
300600
380400
0C1800
07E000
ENDCHAR
STARTCHAR 0050
ENCODING 80
SWIDTH 531 0
DWIDTH 17 0
BBX 15 20 1 0
BITMAP
3FE0
F038
301C
300E
3006
3006
3006
3006
300C
300C
3438
33E0
3000
3000
3000
3000
3000
3000
3000
FE00
ENDCHAR
STARTCHAR 0051
ENCODING 81
SWIDTH 593 0
DWIDTH 19 0
BBX 19 25 1 -5
BITMAP
03F000
0C1800
100C00
300600
200300
600300
400380
C00180
C00180
C00180
C00180
C00180
C00180
E00100
600300
600300
300600
180400
0C1800
07F000
007000
001800
000E20
0007C0
000180
ENDCHAR
STARTCHAR 0052
ENCODING 82
SWIDTH 562 0
DWIDTH 18 0
BBX 18 20 1 0
BITMAP
3FC000
F07000
301800
300C00
300C00
300C00
300C00
301800
307000
3FE000
3FC000
31C000
30E000
307000
307000
303800
303C00
301C00
300F00
FC0FC0
ENDCHAR
STARTCHAR 0053
ENCODING 83
SWIDTH 468 0
DWIDTH 15 0
BBX 12 20 2 0
BITMAP
0FE0
30E0
4040
C000
C000
E000
F800
7E00
7F00
1FC0
07E0
01F0
00F0
0070
0030
0030
8020
C060
E0C0
7F00
ENDCHAR
STARTCHAR 0054
ENCODING 84
SWIDTH 562 0
DWIDTH 18 0
BBX 16 20 1 0
BITMAP
FFFF
8183
8181
8181
0180
0180
0180
0180
0180
0180
0180
0180
0180
0180
0180
0180
0180
0180
0180
0FF0
ENDCHAR
STARTCHAR 0055
ENCODING 85
SWIDTH 656 0
DWIDTH 21 0
BBX 19 20 1 0
BITMAP
FC07E0
300180
300180
300180
300180
300180
300180
300180
300180
300180
300180
300180
300180
300180
300180
300100
180300
1C0600
0E0C00
03F000
ENDCHAR
STARTCHAR 0056
ENCODING 86
SWIDTH 656 0
DWIDTH 21 0
BBX 20 20 0 0
BITMAP
FE03F0
3800C0
180080
1C0180
0C0180
0E0300
0E0300
060300
070600
070600
030600
038C00
018C00
01CC00
01D800
00D800
00F800
00F000
007000
006000
ENDCHAR
STARTCHAR 0057
ENCODING 87
SWIDTH 843 0
DWIDTH 27 0
BBX 27 20 0 0
BITMAP
FE040FE0
38040300
180E0300
180E0300
1C0F0300
1C1B0200
0C1B0600
0C1B8600
0C318600
0E318600
0E31C400
0660CC00
0660CC00
0760EC00
07C06C00
03C07800
03C07800
03803800
03803800
03003000
ENDCHAR
STARTCHAR 0058
ENCODING 88
SWIDTH 625 0
DWIDTH 20 0
BBX 19 20 0 0
BITMAP
7F1FC0
3C0700
1C0600
0E0600
070C00
071C00
039800
01F000
01F000
00E000
00F000
01F000
01B800
031C00
070C00
060E00
0C0700
1C0380
3803C0
FF0FE0
ENDCHAR
STARTCHAR 0059
ENCODING 89
SWIDTH 593 0
DWIDTH 19 0
BBX 18 20 0 0
BITMAP
F01FC0
380700
1C0600
0C0C00
0E0C00
071800
071800
033000
03B000
01E000
01E000
00C000
00C000
00C000
00C000
00C000
00C000
00C000
00C000
07F800
ENDCHAR
STARTCHAR 005A
ENCODING 90
SWIDTH 531 0
DWIDTH 17 0
BBX 14 20 1 0
BITMAP
7FFC
601C
4038
4078
0070
00E0
00E0
01C0
03C0
0380
0700
0700
0E00
1E00
1C00
3800
3804
7004
F00C
FFFC
ENDCHAR
STARTCHAR 005B
ENCODING 91
SWIDTH 312 0
DWIDTH 10 0
BBX 7 30 2 -5
BITMAP
FE
C0
C0
C0
C0
C0
C0
C0
C0
C0
C0
C0
C0
C0
C0
C0
C0
C0
C0
C0
C0
C0
C0
C0
C0
C0
C0
C0
C0
FE
ENDCHAR
STARTCHAR 005C
ENCODING 92
SWIDTH 468 0
DWIDTH 15 0
BBX 13 30 1 -5
BITMAP
C000
C000
6000
6000
7000
3000
3000
1800
1800
1C00
0C00
0C00
0E00
0600
0600
0300
0300
0380
0180
0180
00C0
00C0
00C0
0060
0060
0070
0030
0030
0018
0018
ENDCHAR
STARTCHAR 005D
ENCODING 93
SWIDTH 312 0
DWIDTH 10 0
BBX 7 30 1 -5
BITMAP
FE
06
06
06
06
06
06
06
06
06
06
06
06
06
06
06
06
06
06
06
06
06
06
06
06
06
06
06
06
FE
ENDCHAR
STARTCHAR 005E
ENCODING 94
SWIDTH 500 0
DWIDTH 16 0
BBX 12 15 2 9
BITMAP
0200
0600
0F00
0F00
1B00
1B80
1180
31C0
31C0
60C0
60E0
6060
C070
C030
8020
ENDCHAR
STARTCHAR 005F
ENCODING 95
SWIDTH 468 0
DWIDTH 15 0
BBX 13 1 1 -3
BITMAP
FFF8
ENDCHAR
STARTCHAR 0060
ENCODING 96
SWIDTH 312 0
DWIDTH 10 0
BBX 7 7 0 16
BITMAP
60
F0
38
18
0C
04
02
ENDCHAR
STARTCHAR 0061
ENCODING 97
SWIDTH 468 0
DWIDTH 15 0
BBX 13 15 1 0
BITMAP
0FC0
30E0
7060
6060
0060
0060
0FE0
3FE0
7E60
F060
E060
C060
C060
41E0
3E78
ENDCHAR
STARTCHAR 0062
ENCODING 98
SWIDTH 500 0
DWIDTH 16 0
BBX 15 24 0 0
BITMAP
3000
F000
3000
3000
3000
3000
3000
3000
3000
30F0
31F8
361C
3C0C
380E
3006
3006
3006
3006
3006
3004
300C
3008
1C10
07E0
ENDCHAR
STARTCHAR 0063
ENCODING 99
SWIDTH 437 0
DWIDTH 14 0
BBX 12 15 1 0
BITMAP
07E0
1860
2020
6000
4000
C000
C000
C000
C000
C000
C000
6000
7020
3870
1F80
ENDCHAR
STARTCHAR 0064
ENCODING 100
SWIDTH 531 0
DWIDTH 17 0
BBX 15 24 1 0
BITMAP
0018
0078
0018
0018
0018
0018
0018
0018
0018
07F8
1838
2018
6018
4018
C018
C018
C018
C018
C018
C018
6018
7038
38DE
0F18
ENDCHAR
STARTCHAR 0065
ENCODING 101
SWIDTH 468 0
DWIDTH 15 0
BBX 13 15 1 0
BITMAP
07C0
1860
2030
6018
4018
C018
FFF0
C000
C000
C000
E000
6000
7008
3830
0FC0
ENDCHAR
STARTCHAR 0066
ENCODING 102
SWIDTH 312 0
DWIDTH 10 0
BBX 11 24 1 0
BITMAP
03E0
04C0
1800
1000
3000
3000
3000
3000
3000
FF00
3200
3000
3000
3000
3000
3000
3000
3000
3000
3000
3000
3000
3000
FE00
ENDCHAR
STARTCHAR 0067
ENCODING 103
SWIDTH 500 0
DWIDTH 16 0
BBX 15 23 1 -8
BITMAP
0786
18FC
2060
6030
6030
6030
6030
7060
3840
1F80
0800
1000
3C00
3FE0
0FF8
3FFC
707C
E00C
C00C
C008
6010
7020
1FC0
ENDCHAR
STARTCHAR 0068
ENCODING 104
SWIDTH 562 0
DWIDTH 18 0
BBX 16 24 1 0
BITMAP
1000
F000
3000
3000
3000
3000
3000
3000
3000
3070
3188
360C
380C
380C
300C
300C
300C
300C
300C
300C
300C
300C
300C
FC3F
ENDCHAR
STARTCHAR 0069
ENCODING 105
SWIDTH 281 0
DWIDTH 9 0
BBX 6 21 1 0
BITMAP
30
70
70
60
00
00
30
F0
30
30
30
30
30
30
30
30
30
30
30
30
FC
ENDCHAR
STARTCHAR 006A
ENCODING 106
SWIDTH 250 0
DWIDTH 8 0
BBX 9 29 -4 -8
BITMAP
0180
0380
0380
0300
0000
0000
0180
0780
0180
0180
0180
0180
0180
0180
0180
0180
0180
0180
0180
0180
0180
0180
0180
0180
0100
0300
0200
7C00
F800
ENDCHAR
STARTCHAR 006B
ENCODING 107
SWIDTH 500 0
DWIDTH 16 0
BBX 15 24 1 0
BITMAP
1000
F000
3000
3000
3000
3000
3000
3000
3000
30FC
3070
30E0
3180
3300
3600
3E00
3600
3700
3380
31C0
30E0
3070
3078
FC3E
ENDCHAR
STARTCHAR 006C
ENCODING 108
SWIDTH 281 0
DWIDTH 9 0
BBX 6 24 1 0
BITMAP
10
F0
30
30
30
30
30
30
30
30
30
30
30
30
30
30
30
30
30
30
30
30
30
FC
ENDCHAR
STARTCHAR 006D
ENCODING 109
SWIDTH 812 0
DWIDTH 26 0
BBX 24 15 1 0
BITMAP
F0F078
33198C
341A0C
381C0C
381C0C
30180C
30180C
30180C
30180C
30180C
30180C
30180C
30180C
30180C
FC7E3F
ENDCHAR
STARTCHAR 006E
ENCODING 110
SWIDTH 562 0
DWIDTH 18 0
BBX 16 15 1 0
BITMAP
7070
B188
360C
380C
380C
300C
300C
300C
300C
300C
300C
300C
300C
300C
FC3F
ENDCHAR
STARTCHAR 006F
ENCODING 111
SWIDTH 500 0
DWIDTH 16 0
BBX 14 15 1 0
BITMAP
07C0
1870
2038
6018
401C
C00C
C00C
C00C
C00C
C00C
E008
6018
7010
3820
0FC0
ENDCHAR
STARTCHAR 0070
ENCODING 112
SWIDTH 531 0
DWIDTH 17 0
BBX 15 23 1 -8
BITMAP
70F0
B318
341C
380C
300E
3006
3006
3006
3006
3006
3004
300C
3008
3C10
37E0
3000
3000
3000
3000
3000
3000
3000
FE00
ENDCHAR
STARTCHAR 0071
ENCODING 113
SWIDTH 500 0
DWIDTH 16 0
BBX 14 23 1 -8
BITMAP
0790
1870
2030
6030
4030
C030
C030
C030
C030
C030
C030
6030
6070
30B0
1F30
0030
0030
0030
0030
0030
0030
0030
01FC
ENDCHAR
STARTCHAR 0072
ENCODING 114
SWIDTH 406 0
DWIDTH 13 0
BBX 11 15 1 0
BITMAP
31E0
F3E0
3440
3840
3800
3000
3000
3000
3000
3000
3000
3000
3000
3000
FE00
ENDCHAR
STARTCHAR 0073
ENCODING 115
SWIDTH 375 0
DWIDTH 12 0
BBX 9 15 2 0
BITMAP
3F00
4300
C100
C000
E000
F800
7E00
3F00
0F80
0380
0180
8180
8100
C300
FC00
ENDCHAR
STARTCHAR 0074
ENCODING 116
SWIDTH 343 0
DWIDTH 11 0
BBX 10 20 1 0
BITMAP
1000
3000
3000
3000
3000
FFC0
3100
3000
3000
3000
3000
3000
3000
3000
3000
3000
3000
3000
3080
1F40
ENDCHAR
STARTCHAR 0075
ENCODING 117
SWIDTH 531 0
DWIDTH 17 0
BBX 15 15 1 0
BITMAP
3018
F078
3018
3018
3018
3018
3018
3018
3018
3018
3018
3018
3038
18DE
0F18
ENDCHAR
STARTCHAR 0076
ENCODING 118
SWIDTH 500 0
DWIDTH 16 0
BBX 15 15 0 0
BITMAP
FC3E
380C
3808
1818
1C18
0C10
0C30
0E30
0620
0760
0740
0340
03C0
0180
0100
ENDCHAR
STARTCHAR 0077
ENCODING 119
SWIDTH 718 0
DWIDTH 23 0
BBX 22 15 0 0
BITMAP
FC107C
301818
383810
183830
183C30
1C6C30
0C6E20
0C4E60
0CC660
0EC740
068340
0783C0
0783C0
030180
020100
ENDCHAR
STARTCHAR 0078
ENCODING 120
SWIDTH 500 0
DWIDTH 16 0
BBX 16 15 0 0
BITMAP
FE3F
3C1C
1C10
0E30
0660
07C0
03C0
01C0
03C0
06E0
0C70
0C38
1818
381C
FC3F
ENDCHAR
STARTCHAR 0079
ENCODING 121
SWIDTH 500 0
DWIDTH 16 0
BBX 16 23 -1 -8
BITMAP
7E1F
1C06
1C04
0C0C
0E0C
0E08
0618
0718
0310
0330
03B0
01A0
01E0
01E0
00C0
00C0
0080
0180
0180
0300
7E00
7C00
F800
ENDCHAR
STARTCHAR 007A
ENCODING 122
SWIDTH 437 0
DWIDTH 14 0
BBX 12 15 1 0
BITMAP
7FF0
4060
40E0
01C0
0180
0380
0700
0600
0E00
1C00
1C00
3810
7010
7030
FFF0
ENDCHAR
STARTCHAR 007B
ENCODING 123
SWIDTH 343 0
DWIDTH 11 0
BBX 8 30 2 -5
BITMAP
03
06
0C
08
18
18
18
18
1C
0C
0C
0C
0C
18
30
F8
1C
0C
0C
0C
0C
1C
18
18
18
18
18
0C
06
03
ENDCHAR
STARTCHAR 007C
ENCODING 124
SWIDTH 218 0
DWIDTH 7 0
BBX 2 32 3 -6
BITMAP
C0
C0
C0
C0
C0
C0
C0
C0
C0
C0
C0
C0
C0
C0
C0
C0
C0
C0
C0
C0
C0
C0
C0
C0
C0
C0
C0
C0
C0
C0
C0
C0
ENDCHAR
STARTCHAR 007D
ENCODING 125
SWIDTH 343 0
DWIDTH 11 0
BBX 8 30 1 -5
BITMAP
C0
60
30
18
18
18
18
18
38
30
30
30
30
38
1F
0C
18
30
30
30
30
38
18
18
18
18
10
30
60
C0
ENDCHAR
STARTCHAR 007E
ENCODING 126
SWIDTH 500 0
DWIDTH 16 0
BBX 14 6 1 7
BITMAP
1C08
3E0C
7F88
47F0
83F0
80E0
ENDCHAR
STARTCHAR 00A0
ENCODING 160
SWIDTH 218 0
DWIDTH 7 0
BBX 0 0 0 0
BITMAP
ENDCHAR
STARTCHAR 00A1
ENCODING 161
SWIDTH 281 0
DWIDTH 9 0
BBX 4 24 2 -9
BITMAP
70
F0
F0
E0
00
00
20
60
60
60
60
60
60
60
60
60
70
70
70
70
70
70
70
40
ENDCHAR
STARTCHAR 00A2
ENCODING 162
SWIDTH 468 0
DWIDTH 15 0
BBX 12 20 2 -1
BITMAP
0600
0600
0600
0FE0
36E0
6660
6600
C600
C600
C600
C600
C600
C600
E620
7630
3FC0
1F80
0600
0600
0600
ENDCHAR
STARTCHAR 00A3
ENCODING 163
SWIDTH 468 0
DWIDTH 15 0
BBX 13 19 1 0
BITMAP
07E0
0870
1030
1020
3020
3000
3000
3000
3000
FF00
3000
3000
3000
3000
3008
2018
6030
7FF0
83F0
ENDCHAR
STARTCHAR 00A4
ENCODING 164
SWIDTH 468 0
DWIDTH 15 0
BBX 11 10 2 4
BITMAP
C060
7FC0
31C0
60C0
60C0
60C0
71C0
3F80
4040
8020
ENDCHAR
STARTCHAR 00A5
ENCODING 165
SWIDTH 468 0
DWIDTH 15 0
BBX 16 19 -1 0
BITMAP
F03F
381C
1C18
1C38
0E30
0670
0760
03C0
03C0
0180
0180
3FFC
0180
0180
0180
0180
0180
0180
0FF0
ENDCHAR
STARTCHAR 00A6
ENCODING 166
SWIDTH 218 0
DWIDTH 7 0
BBX 2 32 3 -6
BITMAP
C0
C0
C0
C0
C0
C0
C0
C0
C0
C0
C0
C0
C0
C0
80
00
00
40
C0
C0
C0
C0
C0
C0
C0
C0
C0
C0
C0
C0
C0
C0
ENDCHAR
STARTCHAR 00A7
ENCODING 167
SWIDTH 468 0
DWIDTH 15 0
BBX 11 22 2 0
BITMAP
1F80
31C0
6080
6000
7000
7800
3E00
6F80
C7C0
C1E0
C0E0
E060
F060
7C60
3FC0
0F80
03C0
01C0
40C0
40C0
6080
3F00
ENDCHAR
STARTCHAR 00A8
ENCODING 168
SWIDTH 406 0
DWIDTH 13 0
BBX 9 4 2 17
BITMAP
6180
E380
E380
C300
ENDCHAR
STARTCHAR 00A9
ENCODING 169
SWIDTH 750 0
DWIDTH 24 0
BBX 21 20 1 0
BITMAP
01FC00
060300
1800C0
300060
307C60
618630
630030
C20018
C60018
C60018
C60018
C60018
C70018
630030
61C630
30F860
300060
1800C0
060300
01FC00
ENDCHAR
STARTCHAR 00AA
ENCODING 170
SWIDTH 250 0
DWIDTH 8 0
BBX 7 10 1 9
BITMAP
38
CC
8C
1C
6C
CC
DC
EE
00
FE
ENDCHAR
STARTCHAR 00AB
ENCODING 171
SWIDTH 500 0
DWIDTH 16 0
BBX 12 14 1 0
BITMAP
0610
0430
0860
1860
30C0
71C0
E380
E380
71C0
30C0
1860
0860
0430
0610
ENDCHAR
STARTCHAR 00AC
ENCODING 172
SWIDTH 468 0
DWIDTH 15 0
BBX 13 6 1 3
BITMAP
FFF8
0018
0018
0018
0018
0018
ENDCHAR
STARTCHAR 00AD
ENCODING 173
SWIDTH 343 0
DWIDTH 11 0
BBX 9 1 1 8
BITMAP
FF80
ENDCHAR
STARTCHAR 00AE
ENCODING 174
SWIDTH 343 0
DWIDTH 11 0
BBX 10 11 1 11
BITMAP
1E00
6100
7E80
9340
9740
9C40
9440
9240
6980
2100
1E00
ENDCHAR
STARTCHAR 00AF
ENCODING 175
SWIDTH 500 0
DWIDTH 16 0
BBX 10 1 3 19
BITMAP
FFC0
ENDCHAR
STARTCHAR 00B0
ENCODING 176
SWIDTH 343 0
DWIDTH 11 0
BBX 7 7 2 12
BITMAP
3C
6E
C6
C6
C6
EC
78
ENDCHAR
STARTCHAR 00B1
ENCODING 177
SWIDTH 406 0
DWIDTH 13 0
BBX 12 14 1 2
BITMAP
0600
0600
0600
0600
0600
FFF0
0600
0600
0600
0600
0400
0000
0000
FFE0
ENDCHAR
STARTCHAR 00B2
ENCODING 178
SWIDTH 312 0
DWIDTH 10 0
BBX 8 11 1 10
BITMAP
3E
63
C3
03
06
06
0C
18
32
61
FF
ENDCHAR
STARTCHAR 00B3
ENCODING 179
SWIDTH 343 0
DWIDTH 11 0
BBX 9 12 0 9
BITMAP
1F00
3380
6180
0180
0300
0F00
0180
0180
0180
0180
C300
3E00
ENDCHAR
STARTCHAR 00B4
ENCODING 180
SWIDTH 312 0
DWIDTH 10 0
BBX 7 7 3 16
BITMAP
0C
1E
18
30
30
60
C0
ENDCHAR
STARTCHAR 00B5
ENCODING 181
SWIDTH 531 0
DWIDTH 17 0
BBX 15 23 1 -8
BITMAP
3008
F038
3018
3018
3018
3018
3018
3018
3018
3018
3838
3878
3FF8
37DE
3398
3000
3000
3000
3000
3800
3800
3800
3000
ENDCHAR
STARTCHAR 00B6
ENCODING 182
SWIDTH 562 0
DWIDTH 18 0
BBX 15 24 1 -4
BITMAP
0FFE
30FC
60D8
40D8
C0D8
C0D8
C0D8
C0D8
E0D8
70D8
38D8
0FD8
00D8
00D8
00D8
00D8
00D8
00D8
00D8
00D8
00D8
00D8
00D8
03FE
ENDCHAR
STARTCHAR 00B7
ENCODING 183
SWIDTH 156 0
DWIDTH 5 0
BBX 3 4 1 9
BITMAP
60
E0
E0
C0
ENDCHAR
STARTCHAR 00B8
ENCODING 184
SWIDTH 218 0
DWIDTH 7 0
BBX 5 7 1 -7
BITMAP
30
20
30
78
18
30
E0
ENDCHAR
STARTCHAR 00B9
ENCODING 185
SWIDTH 343 0
DWIDTH 11 0
BBX 8 11 2 10
BITMAP
18
F8
18
18
18
18
18
18
18
18
FF
ENDCHAR
STARTCHAR 00BA
ENCODING 186
SWIDTH 281 0
DWIDTH 9 0
BBX 7 10 1 9
BITMAP
38
6C
C6
C6
C6
C6
6C
38
00
FE
ENDCHAR
STARTCHAR 00BB
ENCODING 187
SWIDTH 500 0
DWIDTH 16 0
BBX 12 14 2 0
BITMAP
8200
4100
6180
30C0
38E0
1C60
0C70
1C70
1E60
38E0
30C0
6180
4100
8200
ENDCHAR
STARTCHAR 00BC
ENCODING 188
SWIDTH 593 0
DWIDTH 19 0
BBX 16 19 2 0
BITMAP
3006
F00E
300C
3018
3038
3030
3060
30E0
30C0
CD82
018E
031E
0616
0626
0C46
187F
1886
3006
601F
ENDCHAR
STARTCHAR 00BD
ENCODING 189
SWIDTH 562 0
DWIDTH 18 0
BBX 15 19 2 0
BITMAP
3006
F00C
3008
3018
3030
3030
3060
30C0
30C0
CD80
011C
0366
0646
0406
0C0C
1818
1830
3062
60FE
ENDCHAR
STARTCHAR 00BE
ENCODING 190
SWIDTH 593 0
DWIDTH 19 0
BBX 17 19 1 0
BITMAP
3C0300
460600
060400
1C0C00
061800
061000
063000
8E6000
786000
00C100
018700
018F00
030B00
021300
062300
0C3F80
0C4300
180300
300F80
ENDCHAR
STARTCHAR 00BF
ENCODING 191
SWIDTH 406 0
DWIDTH 13 0
BBX 10 24 2 -9
BITMAP
0E00
1E00
1E00
1C00
0000
0000
0000
0C00
0C00
0C00
0C00
1C00
1800
3000
3000
6000
6000
C000
C040
C0C0
C0C0
E080
6180
3E00
ENDCHAR
STARTCHAR 00C0
ENCODING 192
SWIDTH 593 0
DWIDTH 19 0
BBX 19 27 0 0
BITMAP
060000
0F0000
078000
01C000
006000
001000
000000
004000
00E000
00E000
01E000
01F000
01B000
033000
033800
031800
061C00
061C00
060C00
0FFE00
0C0600
080600
180700
180300
100300
300380
FE0FE0
ENDCHAR
STARTCHAR 00C1
ENCODING 193
SWIDTH 593 0
DWIDTH 19 0
BBX 19 27 0 0
BITMAP
000800
001E00
003C00
007000
01C000
010000
000000
004000
00E000
00E000
01E000
01F000
01B000
033000
033800
031800
061C00
061C00
060C00
0FFE00
0C0600
080600
180700
180300
100300
300380
FE0FE0
ENDCHAR
STARTCHAR 00C2
ENCODING 194
SWIDTH 593 0
DWIDTH 19 0
BBX 19 27 0 0
BITMAP
00E000
01E000
01F000
033800
060C00
0C0400
000000
004000
00E000
00E000
01E000
01F000
01B000
033000
033800
031800
061C00
061C00
060C00
0FFE00
0C0600
080600
180700
180300
100300
300380
FE0FE0
ENDCHAR
STARTCHAR 00C3
ENCODING 195
SWIDTH 593 0
DWIDTH 19 0
BBX 19 26 0 0
BITMAP
038400
07E600
04FC00
083800
000000
000000
004000
00E000
00E000
01E000
01F000
01B000
033000
033800
031800
061C00
061C00
060C00
0FFE00
0C0600
080600
180700
180300
100300
300380
FE0FE0
ENDCHAR
STARTCHAR 00C4
ENCODING 196
SWIDTH 593 0
DWIDTH 19 0
BBX 19 25 0 0
BITMAP
060C00
060C00
0E1C00
060C00
000000
004000
00E000
00E000
01E000
01F000
01B000
033000
033800
031800
061C00
061C00
060C00
0FFE00
0C0600
080600
180700
180300
100300
300380
FE0FE0
ENDCHAR
STARTCHAR 00C5
ENCODING 197
SWIDTH 593 0
DWIDTH 19 0
BBX 19 27 0 0
BITMAP
00E000
01B000
013000
033000
01B000
01E000
000000
004000
00E000
00E000
01E000
01F000
01B000
033000
033800
031800
061C00
061C00
060C00
0FFE00
0C0600
080600
180700
180300
100300
300380
FE0FE0
ENDCHAR
STARTCHAR 00C6
ENCODING 198
SWIDTH 781 0
DWIDTH 25 0
BBX 23 20 0 0
BITMAP
03FFFC
007C04
006C04
00EC04
00CC00
01CC00
018C00
018C00
038C00
03FFF8
070C10
060C00
060C00
0C0C00
0C0C00
1C0C00
180C02
180C02
300C06
FC3FFE
ENDCHAR
STARTCHAR 00C7
ENCODING 199
SWIDTH 531 0
DWIDTH 17 0
BBX 15 27 1 -7
BITMAP
03F8
0C1C
1008
3000
6000
6000
4000
C000
C000
C000
C000
C000
C000
E000
6000
7000
7802
3C0C
1FF8
0FF0
0080
0080
01E0
00E0
0060
00C0
0300
ENDCHAR
STARTCHAR 00C8
ENCODING 200
SWIDTH 500 0
DWIDTH 16 0
BBX 13 27 1 0
BITMAP
1000
3800
1C00
0F00
0380
00C0
0000
FFF0
3010
3010
3010
3000
3000
3000
3000
3000
3FE0
3040
3000
3000
3000
3000
3000
3008
3008
3018
FFF8
ENDCHAR
STARTCHAR 00C9
ENCODING 201
SWIDTH 500 0
DWIDTH 16 0
BBX 13 27 1 0
BITMAP
0020
00F0
01E0
0380
0700
0C00
0000
FFF0
3010
3010
3010
3000
3000
3000
3000
3000
3FE0
3040
3000
3000
3000
3000
3000
3008
3008
3018
FFF8
ENDCHAR
STARTCHAR 00CA
ENCODING 202
SWIDTH 500 0
DWIDTH 16 0
BBX 13 27 1 0
BITMAP
0300
0780
0FC0
1CC0
3860
2030
0000
FFF0
3010
3010
3010
3000
3000
3000
3000
3000
3FE0
3040
3000
3000
3000
3000
3000
3008
3008
3018
FFF8
ENDCHAR
STARTCHAR 00CB
ENCODING 203
SWIDTH 500 0
DWIDTH 16 0
BBX 13 25 1 0
BITMAP
1830
3870
3870
3060
0000
FFF0
3010
3010
3010
3000
3000
3000
3000
3000
3FE0
3040
3000
3000
3000
3000
3000
3008
3008
3018
FFF8
ENDCHAR
STARTCHAR 00CC
ENCODING 204
SWIDTH 312 0
DWIDTH 10 0
BBX 9 27 -1 0
BITMAP
6000
F000
7800
1C00
0700
0100
0000
1F80
0600
0600
0600
0600
0600
0600
0600
0600
0600
0600
0600
0600
0600
0600
0600
0600
0600
0600
1F80
ENDCHAR
STARTCHAR 00CD
ENCODING 205
SWIDTH 312 0
DWIDTH 10 0
BBX 8 27 2 0
BITMAP
06
0F
1E
38
60
80
00
FC
30
30
30
30
30
30
30
30
30
30
30
30
30
30
30
30
30
30
FC
ENDCHAR
STARTCHAR 00CE
ENCODING 206
SWIDTH 312 0
DWIDTH 10 0
BBX 10 27 0 0
BITMAP
1C00
1E00
3E00
7300
C180
80C0
0000
3F00
0C00
0C00
0C00
0C00
0C00
0C00
0C00
0C00
0C00
0C00
0C00
0C00
0C00
0C00
0C00
0C00
0C00
0C00
3F00
ENDCHAR
STARTCHAR 00CF
ENCODING 207
SWIDTH 312 0
DWIDTH 10 0
BBX 10 25 0 0
BITMAP
C180
E1C0
E1C0
C180
0000
3F00
0C00
0C00
0C00
0C00
0C00
0C00
0C00
0C00
0C00
0C00
0C00
0C00
0C00
0C00
0C00
0C00
0C00
0C00
3F00
ENDCHAR
STARTCHAR 00D0
ENCODING 208
SWIDTH 593 0
DWIDTH 19 0
BBX 18 20 0 0
BITMAP
1FF000
781C00
180600
180300
180180
180180
1801C0
1800C0
1800C0
FF80C0
1800C0
1800C0
1800C0
180180
180180
180180
180300
180600
181C00
7FF000
ENDCHAR
STARTCHAR 00D1
ENCODING 209
SWIDTH 656 0
DWIDTH 21 0
BBX 19 26 1 0
BITMAP
038400
07E600
047C00
083800
000000
000000
F007E0
380180
3C0180
3C0180
3E0180
370180
338180
338180
31C180
30E180
306180
307180
303980
301D80
300D80
300F80
300780
300380
300380
FC0180
ENDCHAR
STARTCHAR 00D2
ENCODING 210
SWIDTH 593 0
DWIDTH 19 0
BBX 17 27 1 0
BITMAP
0C0000
1E0000
0F0000
038000
00E000
002000
000000
03F000
0C1800
100C00
300600
200300
600300
400380
C00180
C00180
C00180
C00180
C00180
C00180
E00100
600300
600200
300600
380400
0C1800
07E000
ENDCHAR
STARTCHAR 00D3
ENCODING 211
SWIDTH 593 0
DWIDTH 19 0
BBX 17 27 1 0
BITMAP
001800
003C00
007800
00E000
018000
020000
000000
03F000
0C1800
100C00
300600
200300
600300
400380
C00180
C00180
C00180
C00180
C00180
C00180
E00100
600300
600200
300600
380400
0C1800
07E000
ENDCHAR
STARTCHAR 00D4
ENCODING 212
SWIDTH 593 0
DWIDTH 19 0
BBX 17 27 1 0
BITMAP
01C000
01E000
03E000
073000
0C1800
080C00
000000
03F000
0C1800
100C00
300600
200300
600300
400380
C00180
C00180
C00180
C00180
C00180
C00180
E00100
600300
600200
300600
380400
0C1800
07E000
ENDCHAR
STARTCHAR 00D5
ENCODING 213
SWIDTH 593 0
DWIDTH 19 0
BBX 17 26 1 0
BITMAP
030400
07CC00
08F800
107000
000000
000000
03F000
0C1800
100C00
300600
200300
600300
400380
C00180
C00180
C00180
C00180
C00180
C00180
E00100
600300
600200
300600
380400
0C1800
07E000
ENDCHAR
STARTCHAR 00D6
ENCODING 214
SWIDTH 593 0
DWIDTH 19 0
BBX 17 25 1 0
BITMAP
0C1800
0E1C00
0E1C00
0C1800
000000
03F000
0C1800
100C00
300600
200300
600300
400380
C00180
C00180
C00180
C00180
C00180
C00180
E00100
600300
600200
300600
380400
0C1800
07E000
ENDCHAR
STARTCHAR 00D7
ENCODING 215
SWIDTH 406 0
DWIDTH 13 0
BBX 11 10 1 4
BITMAP
C060
60C0
3180
1B00
0E00
0E00
1B00
3180
60C0
C060
ENDCHAR
STARTCHAR 00D8
ENCODING 216
SWIDTH 593 0
DWIDTH 19 0
BBX 17 21 1 -1
BITMAP
03F180
041F00
180E00
301E00
201F00
603F00
403B80
C07380
C0E180
C0E180
C1C180
C38180
C30180
E70100
6E0300
7C0200
7C0600
380400
7C1800
C7E000
800000
ENDCHAR
STARTCHAR 00D9
ENCODING 217
SWIDTH 656 0
DWIDTH 21 0
BBX 19 27 1 0
BITMAP
060000
0F0000
078000
01C000
006000
001000
000000
FC07E0
300180
300180
300180
300180
300180
300180
300180
300180
300180
300180
300180
300180
300180
300180
300100
180300
1C0600
0E0C00
03F000
ENDCHAR
STARTCHAR 00DA
ENCODING 218
SWIDTH 656 0
DWIDTH 21 0
BBX 19 27 1 0
BITMAP
000C00
001E00
003C00
007000
00C000
010000
000000
FC07E0
300180
300180
300180
300180
300180
300180
300180
300180
300180
300180
300180
300180
300180
300180
300100
180300
1C0600
0E0C00
03F000
ENDCHAR
STARTCHAR 00DB
ENCODING 219
SWIDTH 656 0
DWIDTH 21 0
BBX 19 27 1 0
BITMAP
00E000
00F000
01F000
039800
060C00
040600
000000
FC07E0
300180
300180
300180
300180
300180
300180
300180
300180
300180
300180
300180
300180
300180
300180
300100
180300
1C0600
0E0C00
03F000
ENDCHAR
STARTCHAR 00DC
ENCODING 220
SWIDTH 656 0
DWIDTH 21 0
BBX 19 25 1 0
BITMAP
060C00
070E00
070E00
060C00
000000
FC07E0
300180
300180
300180
300180
300180
300180
300180
300180
300180
300180
300180
300180
300180
300180
300100
180300
1C0600
0E0C00
03F000
ENDCHAR
STARTCHAR 00DD
ENCODING 221
SWIDTH 593 0
DWIDTH 19 0
BBX 18 27 0 0
BITMAP
000C00
001E00
003C00
007000
00C000
010000
000000
F01FC0
380700
1C0600
0C0C00
0E0C00
071800
071800
033000
03B000
01E000
01E000
00C000
00C000
00C000
00C000
00C000
00C000
00C000
00C000
07F800
ENDCHAR
STARTCHAR 00DE
ENCODING 222
SWIDTH 531 0
DWIDTH 17 0
BBX 15 20 1 0
BITMAP
FE00
3000
3000
3000
3FE0
3078
301C
300E
3006
3006
3006
3006
300C
300C
3438
33E0
3000
3000
3000
FE00
ENDCHAR
STARTCHAR 00DF
ENCODING 223
SWIDTH 562 0
DWIDTH 18 0
BBX 16 24 1 0
BITMAP
01E0
0638
0818
101C
100C
300C
300C
301C
3038
30F0
31C0
3180
3180
31C0
30F0
307C
303E
300F
3007
3003
3103
3103
3186
F1F8
ENDCHAR
STARTCHAR 00E0
ENCODING 224
SWIDTH 468 0
DWIDTH 15 0
BBX 13 23 1 0
BITMAP
3800
3800
1C00
0E00
0600
0300
0100
0000
0FC0
30E0
7060
6060
0060
0060
0FE0
3FE0
7E60
F060
E060
C060
C060
41E0
3E78
ENDCHAR
STARTCHAR 00E1
ENCODING 225
SWIDTH 468 0
DWIDTH 15 0
BBX 13 23 1 0
BITMAP
00E0
00E0
01C0
0180
0300
0200
0400
0000
0FC0
30E0
7060
6060
0060
0060
0FE0
3FE0
7E60
F060
E060
C060
C060
41E0
3E78
ENDCHAR
STARTCHAR 00E2
ENCODING 226
SWIDTH 468 0
DWIDTH 15 0
BBX 13 23 1 0
BITMAP
0700
0700
0F80
1DC0
18C0
3060
2020
0000
0FC0
30E0
7060
6060
0060
0060
0FE0
3FE0
7E60
F060
E060
C060
C060
41E0
3E78
ENDCHAR
STARTCHAR 00E3
ENCODING 227
SWIDTH 468 0
DWIDTH 15 0
BBX 13 21 1 0
BITMAP
1C10
3F20
23C0
4000
0000
0000
0FC0
30E0
7060
6060
0060
0060
0FE0
3FE0
7E60
F060
E060
C060
C060
41E0
3E78
ENDCHAR
STARTCHAR 00E4
ENCODING 228
SWIDTH 468 0
DWIDTH 15 0
BBX 13 21 1 0
BITMAP
3060
3870
3060
3060
0000
0000
0FC0
30E0
7060
6060
0060
0060
0FE0
3FE0
7E60
F060
E060
C060
C060
41E0
3E78
ENDCHAR
STARTCHAR 00E5
ENCODING 229
SWIDTH 468 0
DWIDTH 15 0
BBX 13 22 1 0
BITMAP
0780
0D80
0CC0
0C80
0D80
0F00
0000
0FC0
30E0
7060
6060
0060
0060
0FE0
3FE0
7E60
F060
E060
C060
C060
41E0
3E78
ENDCHAR
STARTCHAR 00E6
ENCODING 230
SWIDTH 687 0
DWIDTH 22 0
BBX 19 15 2 0
BITMAP
1F8F00
71B0C0
60E0C0
E0E060
80C060
00C060
07FFC0
1CC000
70C000
60C000
C0C000
C0E000
C16040
C270E0
7C1F00
ENDCHAR
STARTCHAR 00E7
ENCODING 231
SWIDTH 437 0
DWIDTH 14 0
BBX 12 22 1 -7
BITMAP
07E0
1860
2020
6000
4000
C000
C000
C000
C000
C000
E000
7010
7860
3FC0
1F80
0200
0200
0780
0380
0180
0300
0C00
ENDCHAR
STARTCHAR 00E8
ENCODING 232
SWIDTH 468 0
DWIDTH 15 0
BBX 13 23 1 0
BITMAP
1800
3C00
0C00
0600
0300
0100
0180
0000
07C0
1860
2030
6018
4018
C018
FFF0
C000
C000
C000
E000
6000
7008
3830
0FC0
ENDCHAR
STARTCHAR 00E9
ENCODING 233
SWIDTH 468 0
DWIDTH 15 0
BBX 13 23 1 0
BITMAP
0060
00F0
00C0
0180
0180
0300
0600
0000
07C0
1860
2030
6018
4018
C018
FFF0
C000
C000
C000
E000
6000
7008
3830
0FC0
ENDCHAR
STARTCHAR 00EA
ENCODING 234
SWIDTH 468 0
DWIDTH 15 0
BBX 13 23 1 0
BITMAP
0300
0780
0F80
0CC0
1860
1020
2010
0000
07C0
1860
2030
6018
4018
C018
FFF0
C000
C000
C000
E000
6000
7008
3830
0FC0
ENDCHAR
STARTCHAR 00EB
ENCODING 235
SWIDTH 468 0
DWIDTH 15 0
BBX 13 21 1 0
BITMAP
1830
3870
3870
3060
0000
0000
07C0
1860
2030
6018
4018
C018
FFF0
C000
C000
C000
E000
6000
7008
3830
0FC0
ENDCHAR
STARTCHAR 00EC
ENCODING 236
SWIDTH 281 0
DWIDTH 9 0
BBX 7 23 0 0
BITMAP
E0
E0
70
30
18
0C
04
00
18
78
18
18
18
18
18
18
18
18
18
18
18
18
7E
ENDCHAR
STARTCHAR 00ED
ENCODING 237
SWIDTH 281 0
DWIDTH 9 0
BBX 8 23 1 0
BITMAP
07
07
0E
0C
18
30
20
00
30
F0
30
30
30
30
30
30
30
30
30
30
30
30
FC
ENDCHAR
STARTCHAR 00EE
ENCODING 238
SWIDTH 281 0
DWIDTH 9 0
BBX 9 23 0 0
BITMAP
1C00
1C00
3E00
7700
6300
C180
8080
0000
1800
7800
1800
1800
1800
1800
1800
1800
1800
1800
1800
1800
1800
1800
7E00
ENDCHAR
STARTCHAR 00EF
ENCODING 239
SWIDTH 281 0
DWIDTH 9 0
BBX 10 21 0 0
BITMAP
C180
C180
E3C0
C180
0000
0000
1800
7800
1800
1800
1800
1800
1800
1800
1800
1800
1800
1800
1800
1800
7E00
ENDCHAR
STARTCHAR 00F0
ENCODING 240
SWIDTH 500 0
DWIDTH 16 0
BBX 14 23 1 0
BITMAP
0C00
3E18
03F0
03C0
1EE0
3060
0070
0038
0798
1878
203C
601C
400C
C00C
C00C
C00C
C00C
C008
E018
6010
7030
3860
0F80
ENDCHAR
STARTCHAR 00F1
ENCODING 241
SWIDTH 562 0
DWIDTH 18 0
BBX 16 21 1 0
BITMAP
0708
0F90
18E0
1000
0000
0000
7070
B188
360C
380C
380C
300C
300C
300C
300C
300C
300C
300C
300C
300C
FC3F
ENDCHAR
STARTCHAR 00F2
ENCODING 242
SWIDTH 500 0
DWIDTH 16 0
BBX 14 23 1 0
BITMAP
1C00
1C00
0E00
0600
0300
0180
0080
0000
07C0
1870
2038
6018
401C
C00C
C00C
C00C
C00C
C00C
E008
6018
7010
3820
0FC0
ENDCHAR
STARTCHAR 00F3
ENCODING 243
SWIDTH 500 0
DWIDTH 16 0
BBX 14 23 1 0
BITMAP
0070
0070
00E0
01C0
0180
0300
0200
0000
07C0
1870
2038
6018
401C
C00C
C00C
C00C
C00C
C00C
E008
6018
7010
3820
0FC0
ENDCHAR
STARTCHAR 00F4
ENCODING 244
SWIDTH 500 0
DWIDTH 16 0
BBX 14 23 1 0
BITMAP
0380
0380
07C0
0EC0
0C60
1830
3010
0000
07C0
1870
2038
6018
401C
C00C
C00C
C00C
C00C
C00C
E008
6018
7010
3820
0FC0
ENDCHAR
STARTCHAR 00F5
ENCODING 245
SWIDTH 500 0
DWIDTH 16 0
BBX 14 21 1 0
BITMAP
0E08
1F90
11E0
2000
0000
0000
07C0
1870
2038
6018
401C
C00C
C00C
C00C
C00C
C00C
E008
6018
7010
3820
0FC0
ENDCHAR
STARTCHAR 00F6
ENCODING 246
SWIDTH 500 0
DWIDTH 16 0
BBX 14 21 1 0
BITMAP
1830
1830
3870
1830
0000
0000
07C0
1870
2038
6018
401C
C00C
C00C
C00C
C00C
C00C
E008
6018
7010
3820
0FC0
ENDCHAR
STARTCHAR 00F7
ENCODING 247
SWIDTH 406 0
DWIDTH 13 0
BBX 11 10 1 4
BITMAP
0600
0600
0600
0000
0000
FFE0
0000
0600
0600
0600
ENDCHAR
STARTCHAR 00F8
ENCODING 248
SWIDTH 500 0
DWIDTH 16 0
BBX 14 16 1 -1
BITMAP
07CC
1878
2078
6078
40FC
C1DC
C18C
C38C
C70C
C60C
EC08
7C18
7810
7820
CFC0
8000
ENDCHAR
STARTCHAR 00F9
ENCODING 249
SWIDTH 531 0
DWIDTH 17 0
BBX 15 23 1 0
BITMAP
1C00
1C00
0E00
0700
0300
0180
0080
0000
3018
F078
3018
3018
3018
3018
3018
3018
3018
3018
3018
3018
3038
18DE
0F18
ENDCHAR
STARTCHAR 00FA
ENCODING 250
SWIDTH 531 0
DWIDTH 17 0
BBX 15 23 1 0
BITMAP
0070
0070
00E0
00C0
0180
0100
0200
0000
3018
F078
3018
3018
3018
3018
3018
3018
3018
3018
3018
3018
3038
18DE
0F18
ENDCHAR
STARTCHAR 00FB
ENCODING 251
SWIDTH 531 0
DWIDTH 17 0
BBX 15 23 1 0
BITMAP
0380
0380
07C0
0EE0
0C60
1830
1010
0000
3018
F078
3018
3018
3018
3018
3018
3018
3018
3018
3018
3018
3038
18DE
0F18
ENDCHAR
STARTCHAR 00FC
ENCODING 252
SWIDTH 531 0
DWIDTH 17 0
BBX 15 21 1 0
BITMAP
1830
1C38
1830
1830
0000
0000
3018
F078
3018
3018
3018
3018
3018
3018
3018
3018
3018
3018
3038
18DE
0F18
ENDCHAR
STARTCHAR 00FD
ENCODING 253
SWIDTH 500 0
DWIDTH 16 0
BBX 16 31 -1 -8
BITMAP
001C
001C
0038
0070
0060
00C0
0080
0000
7E1F
1C06
1C04
0C0C
0E0C
0E08
0618
0718
0310
0330
03B0
01A0
01E0
01E0
00C0
00C0
0080
0180
0180
0300
7E00
7C00
F800
ENDCHAR
STARTCHAR 00FE
ENCODING 254
SWIDTH 531 0
DWIDTH 17 0
BBX 15 32 1 -8
BITMAP
1000
F000
3000
3000
3000
3000
3000
3000
3000
30F0
3318
341C
380C
300E
3006
3006
3006
3006
3006
3004
300C
3808
3C10
37E0
3000
3000
3000
3000
3000
3000
3000
FE00
ENDCHAR
STARTCHAR 00FF
ENCODING 255
SWIDTH 500 0
DWIDTH 16 0
BBX 16 29 -1 -8
BITMAP
060C
0E1C
0E1C
060C
0000
0000
7E1F
1C06
1C04
0C0C
0E0C
0E08
0618
0718
0310
0330
03B0
01A0
01E0
01E0
00C0
00C0
0080
0180
0180
0300
7E00
7C00
F800
ENDCHAR
STARTCHAR 0100
ENCODING 256
SWIDTH 593 0
DWIDTH 19 0
BBX 19 25 0 0
BITMAP
0FFE00
000000
000000
000000
000000
004000
00E000
00E000
01E000
01F000
01B000
033000
033800
031800
061C00
061C00
060C00
0FFE00
0C0600
080600
180700
180300
100300
300380
FE0FE0
ENDCHAR
STARTCHAR 0101
ENCODING 257
SWIDTH 468 0
DWIDTH 15 0
BBX 13 20 1 0
BITMAP
3FF0
4000
0000
0000
0000
0FC0
30E0
7060
6060
0060
0060
0FE0
3FE0
7E60
F060
E060
C060
C060
41E0
3E78
ENDCHAR
STARTCHAR 0102
ENCODING 258
SWIDTH 593 0
DWIDTH 19 0
BBX 19 27 0 0
BITMAP
080400
040400
021800
01F000
000000
000000
000000
004000
00E000
00E000
01E000
01F000
01B000
033000
033800
031800
061C00
061C00
060C00
0FFE00
0C0600
080600
180700
180300
100300
300380
FE0FE0
ENDCHAR
STARTCHAR 0103
ENCODING 259
SWIDTH 468 0
DWIDTH 15 0
BBX 13 22 1 0
BITMAP
4030
2020
18C0
0F80
0000
0000
0000
0FC0
30E0
7060
6060
0060
0060
0FE0
3FE0
7E60
F060
E060
C060
C060
41E0
3E78
ENDCHAR
STARTCHAR 0106
ENCODING 262
SWIDTH 531 0
DWIDTH 17 0
BBX 14 27 1 0
BITMAP
0018
003C
0078
00E0
0180
0200
0000
03F8
0C1C
1008
3000
6000
6000
4000
C000
C000
C000
C000
C000
C000
C000
6000
6000
7000
3804
1C18
07E0
ENDCHAR
STARTCHAR 0107
ENCODING 263
SWIDTH 437 0
DWIDTH 14 0
BBX 12 23 1 0
BITMAP
00E0
00E0
01C0
0180
0300
0200
0400
0000
07E0
1860
2020
6000
4000
C000
C000
C000
C000
C000
C000
6000
7020
3870
1F80
ENDCHAR
STARTCHAR 0108
ENCODING 264
SWIDTH 531 0
DWIDTH 17 0
BBX 14 27 1 0
BITMAP
01C0
01E0
03E0
0730
0C18
080C
0000
03F8
0C1C
1008
3000
6000
6000
4000
C000
C000
C000
C000
C000
C000
C000
6000
6000
7000
3804
1C18
07E0
ENDCHAR
STARTCHAR 0109
ENCODING 265
SWIDTH 437 0
DWIDTH 14 0
BBX 12 23 1 0
BITMAP
0700
0700
0F80
0DC0
18C0
3060
2030
0000
07E0
1860
2020
6000
4000
C000
C000
C000
C000
C000
C000
6000
7020
3870
1F80
ENDCHAR
STARTCHAR 010A
ENCODING 266
SWIDTH 531 0
DWIDTH 17 0
BBX 14 25 1 0
BITMAP
0180
01C0
01C0
0180
0000
03F8
0C1C
1008
3000
6000
6000
4000
C000
C000
C000
C000
C000
C000
C000
6000
6000
7000
3804
1C18
07E0
ENDCHAR
STARTCHAR 010B
ENCODING 267
SWIDTH 437 0
DWIDTH 14 0
BBX 12 21 1 0
BITMAP
0600
0700
0700
0600
0000
0000
07E0
1860
2020
6000
4000
C000
C000
C000
C000
C000
C000
6000
7020
3870
1F80
ENDCHAR
STARTCHAR 010C
ENCODING 268
SWIDTH 531 0
DWIDTH 17 0
BBX 14 27 1 0
BITMAP
0808
0C1C
0730
03E0
01C0
0000
0000
03F8
0C1C
1008
3000
6000
6000
4000
C000
C000
C000
C000
C000
C000
C000
6000
6000
7000
3804
1C18
07E0
ENDCHAR
STARTCHAR 010D
ENCODING 269
SWIDTH 437 0
DWIDTH 14 0
BBX 12 23 1 0
BITMAP
2020
3070
18C0
0D80
0780
0700
0000
0000
07E0
1860
2020
6000
4000
C000
C000
C000
C000
C000
C000
6000
7020
3870
1F80
ENDCHAR
STARTCHAR 010E
ENCODING 270
SWIDTH 593 0
DWIDTH 19 0
BBX 17 27 1 0
BITMAP
101000
183800
0E6000
07C000
038000
000000
000000
3FE000
F03800
300C00
300600
300300
300300
300380
300180
300180
300180
300180
300180
300180
300300
300300
300300
300600
300C00
303800
FFE000
ENDCHAR
STARTCHAR 0110
ENCODING 272
SWIDTH 593 0
DWIDTH 19 0
BBX 18 20 0 0
BITMAP
1FF000
781C00
180600
180300
180180
180180
1801C0
1800C0
1800C0
FF80C0
1800C0
1800C0
1800C0
180180
180180
180180
180300
180600
181C00
7FF000
ENDCHAR
STARTCHAR 0111
ENCODING 273
SWIDTH 531 0
DWIDTH 17 0
BBX 16 24 1 0
BITMAP
0018
0078
0018
0018
0018
03FF
0018
0018
0018
07F8
1838
2018
6018
4018
C018
C018
C018
C018
C018
C018
6018
7038
38DE
0F18
ENDCHAR
STARTCHAR 0112
ENCODING 274
SWIDTH 500 0
DWIDTH 16 0
BBX 13 25 1 0
BITMAP
3FF0
0000
0000
0000
0000
FFF0
3010
3010
3010
3000
3000
3000
3000
3000
3FE0
3040
3000
3000
3000
3000
3000
3008
3008
3018
FFF8
ENDCHAR
STARTCHAR 0113
ENCODING 275
SWIDTH 468 0
DWIDTH 15 0
BBX 13 20 1 0
BITMAP
3FF0
0000
0000
0000
0000
07C0
1860
2030
6018
4018
C018
FFF0
C000
C000
C000
E000
6000
7008
3830
0FC0
ENDCHAR
STARTCHAR 0114
ENCODING 276
SWIDTH 500 0
DWIDTH 16 0
BBX 13 27 1 0
BITMAP
2010
3020
1860
0780
0000
0000
0000
FFF0
3010
3010
3010
3000
3000
3000
3000
3000
3FE0
3040
3000
3000
3000
3000
3000
3008
3008
3018
FFF8
ENDCHAR
STARTCHAR 0115
ENCODING 277
SWIDTH 468 0
DWIDTH 15 0
BBX 13 22 1 0
BITMAP
2010
3030
1860
0780
0000
0000
0000
07C0
1860
2030
6018
4018
C018
FFF0
C000
C000
C000
E000
6000
7008
3830
0FC0
ENDCHAR
STARTCHAR 0116
ENCODING 278
SWIDTH 500 0
DWIDTH 16 0
BBX 13 25 1 0
BITMAP
0300
0700
0700
0600
0000
FFF0
3010
3010
3010
3000
3000
3000
3000
3000
3FE0
3040
3000
3000
3000
3000
3000
3008
3008
3018
FFF8
ENDCHAR
STARTCHAR 0117
ENCODING 279
SWIDTH 468 0
DWIDTH 15 0
BBX 13 21 1 0
BITMAP
0300
0700
0700
0600
0000
0000
07C0
1860
2030
6018
4018
C018
FFF0
C000
C000
C000
E000
6000
7008
3830
0FC0
ENDCHAR
STARTCHAR 011A
ENCODING 282
SWIDTH 500 0
DWIDTH 16 0
BBX 13 27 1 0
BITMAP
2030
1860
0CC0
0780
0300
0000
0000
FFF0
3010
3010
3010
3000
3000
3000
3000
3000
3FE0
3040
3000
3000
3000
3000
3000
3008
3008
3018
FFF8
ENDCHAR
STARTCHAR 011B
ENCODING 283
SWIDTH 468 0
DWIDTH 15 0
BBX 13 23 1 0
BITMAP
2010
1020
1860
0FC0
0780
0300
0000
0000
07C0
1860
2030
6018
4018
C018
FFF0
C000
C000
C000
E000
6000
7008
3830
0FC0
ENDCHAR
STARTCHAR 011C
ENCODING 284
SWIDTH 593 0
DWIDTH 19 0
BBX 18 27 1 0
BITMAP
00C000
01E000
03F000
073800
061800
080400
000000
01FE00
060F00
080000
100000
200000
600000
400000
C00000
C00000
C00000
C00000
C01FC0
C00700
C00300
600300
600300
300300
180300
0C0300
03FC00
ENDCHAR
STARTCHAR 011D
ENCODING 285
SWIDTH 500 0
DWIDTH 16 0
BBX 15 31 1 -8
BITMAP
0300
0780
0F80
0DC0
1860
3020
2010
0000
0786
18FC
2060
6030
6030
6030
6030
7060
3840
1F80
0800
1000
3C00
3FE0
0FF8
3FFC
707C
E00C
C00C
C008
6010
7020
1FC0
ENDCHAR
STARTCHAR 011E
ENCODING 286
SWIDTH 593 0
DWIDTH 19 0
BBX 18 27 1 0
BITMAP
080400
0C0C00
061800
01E000
000000
000000
000000
01FE00
060F00
080000
100000
200000
600000
400000
C00000
C00000
C00000
C00000
C01FC0
C00700
C00300
600300
600300
300300
180300
0C0300
03FC00
ENDCHAR
STARTCHAR 011F
ENCODING 287
SWIDTH 500 0
DWIDTH 16 0
BBX 15 30 1 -8
BITMAP
2010
3020
1860
0F80
0000
0000
0000
0786
18FC
2060
6030
6030
6030
6030
7060
3840
1F80
0800
1000
3C00
3FE0
0FF8
3FFC
707C
E00C
C00C
C008
6010
7020
1FC0
ENDCHAR
STARTCHAR 0120
ENCODING 288
SWIDTH 593 0
DWIDTH 19 0
BBX 18 25 1 0
BITMAP
00C000
01C000
01C000
018000
000000
01FE00
060F00
080000
100000
200000
600000
400000
C00000
C00000
C00000
C00000
C01FC0
C00700
C00300
600300
600300
300300
180300
0C0300
03FC00
ENDCHAR
STARTCHAR 0121
ENCODING 289
SWIDTH 500 0
DWIDTH 16 0
BBX 15 29 1 -8
BITMAP
0300
0700
0700
0600
0000
0000
0786
18FC
2060
6030
6030
6030
6030
7060
3840
1F80
0800
1000
3C00
3FE0
0FF8
3FFC
707C
E00C
C00C
C008
6010
7020
1FC0
ENDCHAR
STARTCHAR 0124
ENCODING 292
SWIDTH 656 0
DWIDTH 21 0
BBX 19 27 1 0
BITMAP
00E000
01E000
03F000
033800
060C00
0C0400
000000
FC07E0
300180
300180
300180
300180
300180
300180
300180
300180
3FFF80
300180
300180
300180
300180
300180
300180
300180
300180
300180
FC07E0
ENDCHAR
STARTCHAR 0125
ENCODING 293
SWIDTH 562 0
DWIDTH 18 0
BBX 16 31 1 0
BITMAP
0180
03C0
07E0
0E70
0C30
1818
0000
1000
F000
3000
3000
3000
3000
3000
3000
3000
3070
3188
360C
380C
380C
300C
300C
300C
300C
300C
300C
300C
300C
300C
FC3F
ENDCHAR
STARTCHAR 0128
ENCODING 296
SWIDTH 312 0
DWIDTH 10 0
BBX 11 26 -1 0
BITMAP
1820
3E60
47C0
8380
0000
0000
1F80
0600
0600
0600
0600
0600
0600
0600
0600
0600
0600
0600
0600
0600
0600
0600
0600
0600
0600
1F80
ENDCHAR
STARTCHAR 0129
ENCODING 297
SWIDTH 281 0
DWIDTH 9 0
BBX 11 21 -1 0
BITMAP
3820
7E40
4780
8000
0000
0000
0C00
3C00
0C00
0C00
0C00
0C00
0C00
0C00
0C00
0C00
0C00
0C00
0C00
0C00
3F00
ENDCHAR
STARTCHAR 012A
ENCODING 298
SWIDTH 312 0
DWIDTH 10 0
BBX 8 25 1 0
BITMAP
FF
00
00
00
00
7E
18
18
18
18
18
18
18
18
18
18
18
18
18
18
18
18
18
18
7E
ENDCHAR
STARTCHAR 012B
ENCODING 299
SWIDTH 281 0
DWIDTH 9 0
BBX 8 20 1 0
BITMAP
FF
00
00
00
00
30
F0
30
30
30
30
30
30
30
30
30
30
30
30
FC
ENDCHAR
STARTCHAR 012C
ENCODING 300
SWIDTH 312 0
DWIDTH 10 0
BBX 10 27 0 0
BITMAP
8040
8080
6100
3E00
0000
0000
0000
3F00
0C00
0C00
0C00
0C00
0C00
0C00
0C00
0C00
0C00
0C00
0C00
0C00
0C00
0C00
0C00
0C00
0C00
0C00
3F00
ENDCHAR
STARTCHAR 012D
ENCODING 301
SWIDTH 281 0
DWIDTH 9 0
BBX 11 22 -1 0
BITMAP
8060
4040
2180
1F00
0000
0000
0000
0C00
3C00
0C00
0C00
0C00
0C00
0C00
0C00
0C00
0C00
0C00
0C00
0C00
0C00
3F00
ENDCHAR
STARTCHAR 0130
ENCODING 304
SWIDTH 312 0
DWIDTH 10 0
BBX 6 25 2 0
BITMAP
60
70
70
60
00
FC
30
30
30
30
30
30
30
30
30
30
30
30
30
30
30
30
30
30
FC
ENDCHAR
STARTCHAR 0131
ENCODING 305
SWIDTH 281 0
DWIDTH 9 0
BBX 6 15 1 0
BITMAP
30
F0
30
30
30
30
30
30
30
30
30
30
30
30
FC
ENDCHAR
STARTCHAR 0132
ENCODING 306
SWIDTH 593 0
DWIDTH 19 0
BBX 16 25 2 -5
BITMAP
FCFF
301C
300C
300C
300C
300C
300C
300C
300C
300C
300C
300C
300C
300C
300C
300C
300C
3008
3008
FC18
0018
0018
0010
0220
07C0
ENDCHAR
STARTCHAR 0133
ENCODING 307
SWIDTH 531 0
DWIDTH 17 0
BBX 13 29 1 -8
BITMAP
3030
7038
7038
6030
0000
0000
3018
F0F8
3038
3018
3018
3018
3018
3018
3018
3018
3018
3018
3018
3018
FC18
0018
0010
0030
0030
0030
0020
07C0
0F00
ENDCHAR
STARTCHAR 0139
ENCODING 313
SWIDTH 468 0
DWIDTH 15 0
BBX 13 27 1 0
BITMAP
0040
00E0
01F0
0380
0E00
0800
0000
FC00
3000
3000
3000
3000
3000
3000
3000
3000
3000
3000
3000
3000
3000
3000
3000
3008
3008
3018
FFF8
ENDCHAR
STARTCHAR 013A
ENCODING 314
SWIDTH 281 0
DWIDTH 9 0
BBX 9 32 1 0
BITMAP
0300
0780
0F00
1C00
3000
4000
0000
0000
1000
F000
3000
3000
3000
3000
3000
3000
3000
3000
3000
3000
3000
3000
3000
3000
3000
3000
3000
3000
3000
3000
3000
FC00
ENDCHAR
STARTCHAR 0141
ENCODING 321
SWIDTH 468 0
DWIDTH 15 0
BBX 13 20 1 0
BITMAP
FC00
3000
3000
3000
3000
3000
3100
3380
3E00
3C00
7000
F000
B000
3000
3000
3000
3008
3008
3018
FFF8
ENDCHAR
STARTCHAR 0142
ENCODING 322
SWIDTH 281 0
DWIDTH 9 0
BBX 8 24 1 0
BITMAP
08
78
18
18
18
18
18
18
18
1B
1E
1C
38
78
D8
18
18
18
18
18
18
18
18
7E
ENDCHAR
STARTCHAR 0143
ENCODING 323
SWIDTH 656 0
DWIDTH 21 0
BBX 19 27 1 0
BITMAP
000800
001E00
003C00
007000
01C000
010000
000000
F007E0
380180
3C0180
3C0180
3E0180
370180
338180
338180
31C180
30E180
306180
307180
303980
301D80
300D80
300F80
300780
300380
300380
FC0180
ENDCHAR
STARTCHAR 0144
ENCODING 324
SWIDTH 562 0
DWIDTH 18 0
BBX 16 23 1 0
BITMAP
0030
0078
0060
00C0
00C0
0180
0300
0000
7070
B188
360C
380C
380C
300C
300C
300C
300C
300C
300C
300C
300C
300C
FC3F
ENDCHAR
STARTCHAR 0147
ENCODING 327
SWIDTH 656 0
DWIDTH 21 0
BBX 19 27 1 0
BITMAP
040400
0E0C00
033800
01F000
00E000
000000
000000
F007E0
380180
3C0180
3C0180
3E0180
370180
338180
338180
31C180
30E180
306180
307180
303980
301D80
300D80
300F80
300780
300380
300380
FC0180
ENDCHAR
STARTCHAR 0148
ENCODING 328
SWIDTH 562 0
DWIDTH 18 0
BBX 16 23 1 0
BITMAP
1008
0810
0E30
0760
03C0
0180
0000
0000
7070
B188
360C
380C
380C
300C
300C
300C
300C
300C
300C
300C
300C
300C
FC3F
ENDCHAR
STARTCHAR 014A
ENCODING 330
SWIDTH 593 0
DWIDTH 19 0
BBX 16 26 1 -6
BITMAP
103C
F0FE
3187
3303
3603
3C03
3803
3003
3003
3003
3003
3003
3003
3003
3003
3003
3003
3003
3003
FC03
0002
0006
0004
040C
0718
0FE0
ENDCHAR
STARTCHAR 014B
ENCODING 331
SWIDTH 562 0
DWIDTH 18 0
BBX 14 23 1 -8
BITMAP
70F0
B108
360C
380C
380C
300C
300C
300C
300C
300C
300C
300C
300C
300C
FC0C
000C
000C
000C
0008
0018
0010
0620
0FC0
ENDCHAR
STARTCHAR 014C
ENCODING 332
SWIDTH 593 0
DWIDTH 19 0
BBX 17 25 1 0
BITMAP
0FFC00
100000
000000
000000
000000
03F000
0C1800
100C00
300600
200300
600300
400380
C00180
C00180
C00180
C00180
C00180
C00180
E00100
600300
600200
300600
380400
0C1800
07E000
ENDCHAR
STARTCHAR 014D
ENCODING 333
SWIDTH 500 0
DWIDTH 16 0
BBX 14 20 1 0
BITMAP
3FF8
0000
0000
0000
0000
07C0
1870
2038
6018
401C
C00C
C00C
C00C
C00C
C00C
E008
6018
7010
3820
0FC0
ENDCHAR
STARTCHAR 014E
ENCODING 334
SWIDTH 593 0
DWIDTH 19 0
BBX 17 27 1 0
BITMAP
080400
080800
061000
03E000
000000
000000
000000
03F000
0C1800
100C00
300600
200300
600300
400380
C00180
C00180
C00180
C00180
C00180
C00180
E00100
600300
600200
300600
380400
0C1800
07E000
ENDCHAR
STARTCHAR 014F
ENCODING 335
SWIDTH 500 0
DWIDTH 16 0
BBX 14 22 1 0
BITMAP
2010
1010
0860
07C0
0000
0000
0000
07C0
1870
2038
6018
401C
C00C
C00C
C00C
C00C
C00C
E008
6018
7010
3820
0FC0
ENDCHAR
STARTCHAR 0150
ENCODING 336
SWIDTH 593 0
DWIDTH 19 0
BBX 17 28 1 0
BITMAP
00CC00
01CE00
019C00
031800
031000
023000
042000
000000
03F000
0C1800
100C00
300600
200300
600300
400380
C00180
C00180
C00180
C00180
C00180
C00180
E00100
600300
600200
300600
380400
0C1800
07E000
ENDCHAR
STARTCHAR 0151
ENCODING 337
SWIDTH 500 0
DWIDTH 16 0
BBX 14 23 1 0
BITMAP
0398
0398
0330
0630
0660
0C40
08C0
0000
07C0
1870
2038
6018
401C
C00C
C00C
C00C
C00C
C00C
E008
6018
7010
3820
0FC0
ENDCHAR
STARTCHAR 0152
ENCODING 338
SWIDTH 812 0
DWIDTH 26 0
BBX 24 20 1 0
BITMAP
03FFFC
0C0E04
100604
300600
200600
600600
400600
C00600
C00600
C007F8
C00610
C00600
C00600
E00600
600600
600600
300600
380601
0C0603
07FFFE
ENDCHAR
STARTCHAR 0153
ENCODING 339
SWIDTH 781 0
DWIDTH 25 0
BBX 23 15 1 0
BITMAP
0780F0
18E308
20740C
603C06
401806
C01806
C01FFC
C01800
C01800
E01800
E03C00
703C00
7CEC04
3FC60C
0F03F0
ENDCHAR
STARTCHAR 0154
ENCODING 340
SWIDTH 562 0
DWIDTH 18 0
BBX 18 27 1 0
BITMAP
002000
007000
00E000
03C000
070000
0C0000
000000
3FC000
F07000
301800
300C00
300C00
300C00
300C00
301800
307000
3FE000
3FC000
31C000
30E000
307000
307000
303800
303C00
301C00
300F00
FC0FC0
ENDCHAR
STARTCHAR 0155
ENCODING 341
SWIDTH 406 0
DWIDTH 13 0
BBX 11 23 1 0
BITMAP
00C0
01E0
0180
0380
0300
0600
0C00
0000
31E0
F3E0
3440
3840
3800
3000
3000
3000
3000
3000
3000
3000
3000
3000
FE00
ENDCHAR
STARTCHAR 0158
ENCODING 344
SWIDTH 562 0
DWIDTH 18 0
BBX 18 27 1 0
BITMAP
301000
186000
0CC000
078000
030000
000000
000000
3FC000
F07000
301800
300C00
300C00
300C00
300C00
301800
307000
3FE000
3FC000
31C000
30E000
307000
307000
303800
303C00
301C00
300F00
FC0FC0
ENDCHAR
STARTCHAR 0159
ENCODING 345
SWIDTH 406 0
DWIDTH 13 0
BBX 11 23 1 0
BITMAP
4020
2040
38C0
1D80
0F00
0600
0000
0000
31E0
F3E0
3440
3840
3800
3000
3000
3000
3000
3000
3000
3000
3000
3000
FE00
ENDCHAR
STARTCHAR 015A
ENCODING 346
SWIDTH 468 0
DWIDTH 15 0
BBX 12 27 2 0
BITMAP
00C0
01E0
03C0
0700
0C00
1800
0000
0FE0
30E0
4040
C000
C000
E000
F800
7E00
7F00
1FC0
07E0
01F0
00F0
0070
0030
0030
8020
C060
E0C0
7F00
ENDCHAR
STARTCHAR 015B
ENCODING 347
SWIDTH 375 0
DWIDTH 12 0
BBX 9 23 2 0
BITMAP
0380
0700
0700
0E00
0C00
1800
1000
0000
3F00
4300
C100
C000
E000
F800
7E00
3F00
0F80
0380
0180
8180
8100
C300
FC00
ENDCHAR
STARTCHAR 015C
ENCODING 348
SWIDTH 468 0
DWIDTH 15 0
BBX 12 27 2 0
BITMAP
0600
0F00
1F80
3980
70C0
4060
0000
0FE0
30E0
4040
C000
C000
E000
F800
7E00
7F00
1FC0
07E0
01F0
00F0
0070
0030
0030
8020
C060
E0C0
7F00
ENDCHAR
STARTCHAR 015D
ENCODING 349
SWIDTH 375 0
DWIDTH 12 0
BBX 10 23 1 0
BITMAP
0C00
1E00
1F00
3B00
7180
40C0
8040
0000
1F80
2180
6080
6000
7000
7C00
3F00
1F80
07C0
01C0
00C0
40C0
4080
6180
7E00
ENDCHAR
STARTCHAR 0160
ENCODING 352
SWIDTH 468 0
DWIDTH 15 0
BBX 12 27 2 0
BITMAP
4060
30C0
1980
0F00
0600
0000
0000
0FE0
30E0
4040
C000
C000
E000
F800
7E00
7F00
1FC0
07E0
01F0
00F0
0070
0030
0030
8020
C060
E0C0
7F00
ENDCHAR
STARTCHAR 0161
ENCODING 353
SWIDTH 375 0
DWIDTH 12 0
BBX 10 23 1 0
BITMAP
C040
60C0
3180
3B00
1E00
0C00
0000
0000
1F80
2180
6080
6000
7000
7C00
3F00
1F80
07C0
01C0
00C0
40C0
4080
6180
7E00
ENDCHAR
STARTCHAR 0164
ENCODING 356
SWIDTH 562 0
DWIDTH 18 0
BBX 16 27 1 0
BITMAP
1010
1830
0E60
07C0
0380
0000
0000
FFFF
8183
8181
8181
0180
0180
0180
0180
0180
0180
0180
0180
0180
0180
0180
0180
0180
0180
0180
0FF0
ENDCHAR
STARTCHAR 0168
ENCODING 360
SWIDTH 656 0
DWIDTH 21 0
BBX 19 26 1 0
BITMAP
018400
07E600
047C00
083800
000000
000000
FC07E0
300180
300180
300180
300180
300180
300180
300180
300180
300180
300180
300180
300180
300180
300180
300100
180300
1C0600
0E0C00
03F000
ENDCHAR
STARTCHAR 0169
ENCODING 361
SWIDTH 531 0
DWIDTH 17 0
BBX 15 21 1 0
BITMAP
0E08
1F90
11E0
2000
0000
0000
3018
F078
3018
3018
3018
3018
3018
3018
3018
3018
3018
3018
3038
18DE
0F18
ENDCHAR
STARTCHAR 016A
ENCODING 362
SWIDTH 656 0
DWIDTH 21 0
BBX 19 25 1 0
BITMAP
07FE00
080000
000000
000000
000000
FC07E0
300180
300180
300180
300180
300180
300180
300180
300180
300180
300180
300180
300180
300180
300180
300100
180300
1C0600
0E0C00
03F000
ENDCHAR
STARTCHAR 016B
ENCODING 363
SWIDTH 531 0
DWIDTH 17 0
BBX 15 20 1 0
BITMAP
1FF8
2000
0000
0000
0000
3018
F078
3018
3018
3018
3018
3018
3018
3018
3018
3018
3018
3038
18DE
0F18
ENDCHAR
STARTCHAR 016C
ENCODING 364
SWIDTH 656 0
DWIDTH 21 0
BBX 19 27 1 0
BITMAP
040200
0C0400
030800
01F000
000000
000000
000000
FC07E0
300180
300180
300180
300180
300180
300180
300180
300180
300180
300180
300180
300180
300180
300180
300100
180300
1C0600
0E0C00
03F000
ENDCHAR
STARTCHAR 016D
ENCODING 365
SWIDTH 531 0
DWIDTH 17 0
BBX 15 22 1 0
BITMAP
2018
1010
0C60
07C0
0000
0000
0000
3018
F078
3018
3018
3018
3018
3018
3018
3018
3018
3018
3018
3038
18DE
0F18
ENDCHAR
STARTCHAR 016E
ENCODING 366
SWIDTH 656 0
DWIDTH 21 0
BBX 19 27 1 0
BITMAP
00F000
01B000
019800
019000
01B000
00E000
000000
FC07E0
300180
300180
300180
300180
300180
300180
300180
300180
300180
300180
300180
300180
300180
300180
300100
180300
1C0600
0E0C00
03F000
ENDCHAR
STARTCHAR 016F
ENCODING 367
SWIDTH 531 0
DWIDTH 17 0
BBX 15 22 1 0
BITMAP
03C0
06C0
0660
0640
06C0
0780
0000
3018
F078
3018
3018
3018
3018
3018
3018
3018
3018
3018
3018
3038
18DE
0F18
ENDCHAR
STARTCHAR 0170
ENCODING 368
SWIDTH 656 0
DWIDTH 21 0
BBX 19 28 1 0
BITMAP
006600
00E700
00CE00
018C00
018800
011800
021000
000000
FC07E0
300180
300180
300180
300180
300180
300180
300180
300180
300180
300180
300180
300180
300180
300180
300100
180300
1C0600
0E0C00
03F000
ENDCHAR
STARTCHAR 0171
ENCODING 369
SWIDTH 531 0
DWIDTH 17 0
BBX 15 23 1 0
BITMAP
0198
039C
0338
0630
0660
0460
0840
0000
3018
F078
3018
3018
3018
3018
3018
3018
3018
3018
3018
3018
3038
18DE
0F18
ENDCHAR
STARTCHAR 0174
ENCODING 372
SWIDTH 843 0
DWIDTH 27 0
BBX 27 27 0 0
BITMAP
000E0000
001E0000
001F0000
00338000
0060C000
00C04000
00000000
FE040FE0
38040300
180E0300
180E0300
1C0F0300
1C1B0200
0C1B0600
0C1B8600
0C318600
0E318600
0E31C400
0660CC00
0660CC00
0760EC00
07C06C00
03C07800
03C07800
03803800
03803800
03003000
ENDCHAR
STARTCHAR 0175
ENCODING 373
SWIDTH 718 0
DWIDTH 23 0
BBX 22 23 0 0
BITMAP
001800
003C00
007C00
006E00
00C700
018300
010180
000000
FC107C
301818
383810
183830
183C30
1C6C30
0C6E20
0C4E60
0CC660
0EC740
068340
0783C0
0783C0
030180
020100
ENDCHAR
STARTCHAR 0176
ENCODING 374
SWIDTH 593 0
DWIDTH 19 0
BBX 18 27 0 0
BITMAP
00E000
01E000
01F000
033800
060C00
0C0400
000000
F01FC0
380700
1C0600
0C0C00
0E0C00
071800
071800
033000
03B000
01E000
01E000
00C000
00C000
00C000
00C000
00C000
00C000
00C000
00C000
07F800
ENDCHAR
STARTCHAR 0177
ENCODING 375
SWIDTH 500 0
DWIDTH 16 0
BBX 16 31 -1 -8
BITMAP
00C0
01E0
01F0
03B0
0718
060C
0C04
0000
7E1F
1C06
1C04
0C0C
0E0C
0E08
0618
0718
0310
0330
03B0
01A0
01E0
01E0
00C0
00C0
0080
0180
0180
0300
7E00
7C00
F800
ENDCHAR
STARTCHAR 0178
ENCODING 376
SWIDTH 593 0
DWIDTH 19 0
BBX 18 25 0 0
BITMAP
060C00
060C00
0E1C00
060C00
000000
F01FC0
380700
1C0600
0C0C00
0E0C00
071800
071800
033000
03B000
01E000
01E000
00C000
00C000
00C000
00C000
00C000
00C000
00C000
00C000
07F800
ENDCHAR
STARTCHAR 0179
ENCODING 377
SWIDTH 531 0
DWIDTH 17 0
BBX 14 27 1 0
BITMAP
0030
0078
00F0
01C0
0300
0600
0000
7FFC
601C
4038
4078
0070
00E0
00E0
01C0
03C0
0380
0700
0700
0E00
1E00
1C00
3800
3804
7004
F00C
FFFC
ENDCHAR
STARTCHAR 017A
ENCODING 378
SWIDTH 437 0
DWIDTH 14 0
BBX 12 23 1 0
BITMAP
00E0
00E0
01C0
0180
0300
0200
0400
0000
7FF0
4060
40E0
01C0
0180
0380
0700
0600
0E00
1C00
1C00
3810
7010
7030
FFF0
ENDCHAR
STARTCHAR 017B
ENCODING 379
SWIDTH 531 0
DWIDTH 17 0
BBX 14 25 1 0
BITMAP
0300
0380
0380
0300
0000
7FFC
601C
4038
4078
0070
00E0
00E0
01C0
03C0
0380
0700
0700
0E00
1E00
1C00
3800
3804
7004
F00C
FFFC
ENDCHAR
STARTCHAR 017C
ENCODING 380
SWIDTH 437 0
DWIDTH 14 0
BBX 12 21 1 0
BITMAP
0600
0700
0600
0600
0000
0000
7FF0
4060
40E0
01C0
0180
0380
0700
0600
0E00
1C00
1C00
3810
7010
7030
FFF0
ENDCHAR
STARTCHAR 017D
ENCODING 381
SWIDTH 531 0
DWIDTH 17 0
BBX 14 27 1 0
BITMAP
1018
0830
0E60
07C0
0380
0000
0000
7FFC
601C
4038
4078
0070
00E0
00E0
01C0
03C0
0380
0700
0700
0E00
1E00
1C00
3800
3804
7004
F00C
FFFC
ENDCHAR
STARTCHAR 017E
ENCODING 382
SWIDTH 437 0
DWIDTH 14 0
BBX 12 23 1 0
BITMAP
2020
3060
18C0
0D80
0780
0700
0000
0000
7FF0
4060
40E0
01C0
0180
0380
0700
0600
0E00
1C00
1C00
3810
7010
7030
FFF0
ENDCHAR
STARTCHAR 0181
ENCODING 385
SWIDTH 656 0
DWIDTH 21 0
BBX 18 20 1 0
BITMAP
0FF800
730F00
C30380
C30180
C30180
E30180
030180
030300
030E00
03FE00
030700
030380
0301C0
0300C0
0300C0
0300C0
0300C0
030180
030300
0FFC00
ENDCHAR
STARTCHAR 0186
ENCODING 390
SWIDTH 531 0
DWIDTH 17 0
BBX 15 20 1 0
BITMAP
1FC0
6060
8038
0018
000C
000C
0006
0006
0006
0006
0006
0006
0006
6004
C00C
C00C
C018
E010
7060
3F80
ENDCHAR
STARTCHAR 0189
ENCODING 393
SWIDTH 593 0
DWIDTH 19 0
BBX 18 20 0 0
BITMAP
1FF000
781C00
180600
180300
180180
180180
1801C0
1800C0
1800C0
FF80C0
1800C0
1800C0
1800C0
180180
180180
180180
180300
180600
181C00
7FF000
ENDCHAR
STARTCHAR 018A
ENCODING 394
SWIDTH 687 0
DWIDTH 22 0
BBX 20 20 1 0
BITMAP
0FFC00
730700
C30180
C300C0
C30060
E30060
030070
030030
030030
030030
030030
030030
030030
030020
030060
030060
0300C0
030180
030300
0FFC00
ENDCHAR
STARTCHAR 018E
ENCODING 398
SWIDTH 468 0
DWIDTH 15 0
BBX 13 20 1 0
BITMAP
3FF8
6060
4060
4060
0060
0060
0060
0060
1060
1FE0
2060
0060
0060
0060
0060
8060
8060
C060
C060
FFF8
ENDCHAR
STARTCHAR 0190
ENCODING 400
SWIDTH 500 0
DWIDTH 16 0
BBX 13 20 1 0
BITMAP
07F0
3878
6020
4000
C000
C000
C000
E000
7800
3F00
3C00
7000
E000
C000
C000
C000
C000
6008
7030
1FC0
ENDCHAR
STARTCHAR 0192
ENCODING 402
SWIDTH 281 0
DWIDTH 9 0
BBX 16 32 -4 -8
BITMAP
001F
0027
00C0
0080
0180
0180
0180
0180
0180
07F8
0190
0180
0180
0180
0180
0180
0180
0180
0180
0180
0180
0180
0180
0180
0180
0180
0180
0100
0300
0200
7C00
F800
ENDCHAR
STARTCHAR 0197
ENCODING 407
SWIDTH 312 0
DWIDTH 10 0
BBX 8 20 1 0
BITMAP
7E
18
18
18
18
18
18
18
18
FF
18
18
18
18
18
18
18
18
18
7E
ENDCHAR
STARTCHAR 0198
ENCODING 408
SWIDTH 625 0
DWIDTH 20 0
BBX 18 20 1 0
BITMAP
FC0F80
3018C0
3030C0
3060C0
304080
308100
310000
320000
360000
360000
3F0000
378000
33C000
31E000
30F000
307800
303C00
301E00
300FC0
FC0780
ENDCHAR
STARTCHAR 0199
ENCODING 409
SWIDTH 500 0
DWIDTH 16 0
BBX 15 24 1 0
BITMAP
01F0
0678
0820
1800
1800
1000
3000
3000
3000
30FC
3070
30E0
3180
3300
3600
3E00
3600
3300
3380
31C0
30E0
3070
3078
FC3E
ENDCHAR
STARTCHAR 019A
ENCODING 410
SWIDTH 312 0
DWIDTH 10 0
BBX 8 24 1 0
BITMAP
18
78
18
18
18
18
18
18
18
18
18
FF
18
18
18
18
18
18
18
18
18
18
18
7E
ENDCHAR
STARTCHAR 019D
ENCODING 413
SWIDTH 656 0
DWIDTH 21 0
BBX 24 25 -4 -5
BITMAP
07803F
01C00C
01E00C
01E00C
01F00C
01B80C
01980C
018C0C
018E0C
01870C
01830C
01818C
0181CC
0180EC
01806C
01807C
01803C
01801C
01800C
018004
018000
010000
030000
620000
FC0000
ENDCHAR
STARTCHAR 019F
ENCODING 415
SWIDTH 593 0
DWIDTH 19 0
BBX 17 20 1 0
BITMAP
03F000
0C1800
100C00
300600
200300
600300
400380
C00180
C00180
FFFF80
C00180
C00180
C00180
E00100
600300
600200
300600
380400
0C1800
07E000
ENDCHAR
STARTCHAR 01A0
ENCODING 416
SWIDTH 625 0
DWIDTH 20 0
BBX 18 23 1 0
BITMAP
0000C0
0001C0
0000C0
03F080
0C1D00
100E00
300600
200300
600300
400380
C00180
C00180
C00180
C00180
C00180
C00180
E00100
600300
600200
300600
380400
0C1800
07E000
ENDCHAR
STARTCHAR 01A1
ENCODING 417
SWIDTH 562 0
DWIDTH 18 0
BBX 16 18 1 0
BITMAP
0003
0007
0003
07C2
1874
2038
6018
401C
C00C
C00C
C00C
C00C
C00C
E008
6018
7010
3820
0FC0
ENDCHAR
STARTCHAR 01A9
ENCODING 425
SWIDTH 531 0
DWIDTH 17 0
BBX 15 20 1 0
BITMAP
FFFC
700C
3804
3C04
1C00
0E00
0E00
0700
0380
0380
0300
0300
0600
0C00
1800
1802
3006
6006
7FFC
FFFC
ENDCHAR
STARTCHAR 01AA
ENCODING 426
SWIDTH 343 0
DWIDTH 11 0
BBX 15 32 0 -8
BITMAP
3C00
6600
C300
C300
E700
7B00
0300
0300
0300
0300
0300
0300
0300
0300
0300
0300
0300
0300
0300
0300
0300
0300
0300
0300
0300
0300
0300
0300
0306
018E
018C
00F8
ENDCHAR
STARTCHAR 01AF
ENCODING 431
SWIDTH 687 0
DWIDTH 22 0
BBX 21 23 1 0
BITMAP
000018
000038
000038
FC07F0
3001E0
3001C0
300180
300180
300180
300180
300180
300180
300180
300180
300180
300180
300180
300180
300100
180300
1C0600
0E0C00
03F000
ENDCHAR
STARTCHAR 01B0
ENCODING 432
SWIDTH 625 0
DWIDTH 20 0
BBX 18 18 1 0
BITMAP
0000C0
0001C0
0000C0
003880
707900
F01E00
301800
301800
301800
301800
301800
301800
301800
301800
301800
303800
38DF00
1F0C00
ENDCHAR
STARTCHAR 01B3
ENCODING 435
SWIDTH 687 0
DWIDTH 22 0
BBX 23 20 0 0
BITMAP
F00078
3801CE
1C0386
0C0706
0E0604
070C08
071C00
033800
03B000
01E000
01E000
00C000
00C000
00C000
00C000
00C000
00C000
00C000
00C000
07F800
ENDCHAR
STARTCHAR 01B4
ENCODING 436
SWIDTH 500 0
DWIDTH 16 0
BBX 23 28 -1 -8
BITMAP
00003C
0000FE
0001C0
000100
000300
7E0200
1C0600
1C0600
0C0400
0E0C00
0E0800
060800
071800
071000
033000
03B000
01A000
01E000
01E000
00C000
00C000
008000
008000
018000
010000
020000
7C0000
F80000
ENDCHAR
STARTCHAR 01B7
ENCODING 439
SWIDTH 531 0
DWIDTH 17 0
BBX 13 20 2 0
BITMAP
FFF0
C0F0
80E0
81C0
03C0
0780
0700
0E00
1FC0
30F0
0030
0038
0018
0018
0018
0018
0010
C030
F060
7F80
ENDCHAR
STARTCHAR 01CD
ENCODING 461
SWIDTH 593 0
DWIDTH 19 0
BBX 19 27 0 0
BITMAP
040400
0E0C00
033800
01F000
00E000
000000
000000
004000
00E000
00E000
01E000
01F000
01B000
033000
033800
031800
061C00
061C00
060C00
0FFE00
0C0600
080600
180700
180300
100300
300380
FE0FE0
ENDCHAR
STARTCHAR 01CE
ENCODING 462
SWIDTH 468 0
DWIDTH 15 0
BBX 13 23 1 0
BITMAP
2020
3060
18C0
0D80
0780
0700
0000
0000
0FC0
30E0
7060
6060
0060
0060
0FE0
3FE0
7E60
F060
E060
C060
C060
41E0
3E78
ENDCHAR
STARTCHAR 01CF
ENCODING 463
SWIDTH 312 0
DWIDTH 10 0
BBX 10 27 0 0
BITMAP
8080
C1C0
7300
3E00
1C00
0000
0000
3F00
0C00
0C00
0C00
0C00
0C00
0C00
0C00
0C00
0C00
0C00
0C00
0C00
0C00
0C00
0C00
0C00
0C00
0C00
3F00
ENDCHAR
STARTCHAR 01D0
ENCODING 464
SWIDTH 281 0
DWIDTH 9 0
BBX 9 23 0 0
BITMAP
8080
C180
6300
3600
3C00
1C00
0000
0000
1800
7800
1800
1800
1800
1800
1800
1800
1800
1800
1800
1800
1800
1800
7E00
ENDCHAR
STARTCHAR 01D1
ENCODING 465
SWIDTH 593 0
DWIDTH 19 0
BBX 17 28 1 0
BITMAP
080800
0C1C00
063000
036000
01E000
01C000
000000
000000
03F000
0C1800
100C00
300600
200300
600300
400380
C00180
C00180
C00180
C00180
C00180
C00180
E00100
600300
600200
300600
380400
0C1800
07E000
ENDCHAR
STARTCHAR 01D2
ENCODING 466
SWIDTH 500 0
DWIDTH 16 0
BBX 14 23 1 0
BITMAP
1010
3830
0C60
06C0
0780
0380
0000
0000
07C0
1870
2038
6018
401C
C00C
C00C
C00C
C00C
C00C
E008
6018
7010
3820
0FC0
ENDCHAR
STARTCHAR 01D3
ENCODING 467
SWIDTH 656 0
DWIDTH 21 0
BBX 19 27 1 0
BITMAP
040400
060E00
039800
01F000
00E000
000000
000000
FC07E0
300180
300180
300180
300180
300180
300180
300180
300180
300180
300180
300180
300180
300180
300180
300100
180300
1C0600
0E0C00
03F000
ENDCHAR
STARTCHAR 01D4
ENCODING 468
SWIDTH 531 0
DWIDTH 17 0
BBX 15 23 1 0
BITMAP
1010
1830
0C60
06C0
03C0
0380
0000
0000
3018
F078
3018
3018
3018
3018
3018
3018
3018
3018
3018
3018
3038
18DE
0F18
ENDCHAR
STARTCHAR 01D5
ENCODING 469
SWIDTH 656 0
DWIDTH 21 0
BBX 19 30 1 0
BITMAP
07FE00
080000
000000
000000
000000
060C00
070E00
070E00
060C00
000000
FC07E0
300180
300180
300180
300180
300180
300180
300180
300180
300180
300180
300180
300180
300180
300180
300100
180300
1C0600
0E0C00
03F000
ENDCHAR
STARTCHAR 01D6
ENCODING 470
SWIDTH 531 0
DWIDTH 17 0
BBX 15 26 1 0
BITMAP
1FF8
2000
0000
0000
0000
1830
1C38
1830
1830
0000
0000
3018
F078
3018
3018
3018
3018
3018
3018
3018
3018
3018
3018
3038
18DE
0F18
ENDCHAR
STARTCHAR 01D7
ENCODING 471
SWIDTH 656 0
DWIDTH 21 0
BBX 19 32 1 0
BITMAP
000C00
001E00
003C00
007000
00C000
010000
000000
060C00
070E00
070E00
060C00
000000
FC07E0
300180
300180
300180
300180
300180
300180
300180
300180
300180
300180
300180
300180
300180
300180
300100
180300
1C0600
0E0C00
03F000
ENDCHAR
STARTCHAR 01D8
ENCODING 472
SWIDTH 531 0
DWIDTH 17 0
BBX 15 29 1 0
BITMAP
0020
0070
00E0
00C0
0180
0180
0300
0000
1830
1C38
1830
1830
0000
0000
3018
F078
3018
3018
3018
3018
3018
3018
3018
3018
3018
3018
3038
18DE
0F18
ENDCHAR
STARTCHAR 01D9
ENCODING 473
SWIDTH 656 0
DWIDTH 21 0
BBX 19 32 1 0
BITMAP
040400
060E00
039800
01F000
00E000
000000
000000
060C00
070E00
070E00
060C00
000000
FC07E0
300180
300180
300180
300180
300180
300180
300180
300180
300180
300180
300180
300180
300180
300180
300100
180300
1C0600
0E0C00
03F000
ENDCHAR
STARTCHAR 01DA
ENCODING 474
SWIDTH 531 0
DWIDTH 17 0
BBX 15 29 1 0
BITMAP
2010
1810
0C60
0EE0
07C0
0380
0000
0000
1830
1C38
1830
1830
0000
0000
3018
F078
3018
3018
3018
3018
3018
3018
3018
3018
3018
3018
3038
18DE
0F18
ENDCHAR
STARTCHAR 01DB
ENCODING 475
SWIDTH 656 0
DWIDTH 21 0
BBX 19 32 1 0
BITMAP
060000
0F0000
078000
01C000
006000
001000
000000
060C00
070E00
070E00
060C00
000000
FC07E0
300180
300180
300180
300180
300180
300180
300180
300180
300180
300180
300180
300180
300180
300180
300100
180300
1C0600
0E0C00
03F000
ENDCHAR
STARTCHAR 01DC
ENCODING 476
SWIDTH 531 0
DWIDTH 17 0
BBX 15 29 1 0
BITMAP
0400
1C00
0E00
0600
0300
0180
0080
0000
1830
1C38
1830
1830
0000
0000
3018
F078
3018
3018
3018
3018
3018
3018
3018
3018
3018
3018
3038
18DE
0F18
ENDCHAR
STARTCHAR 01DD
ENCODING 477
SWIDTH 468 0
DWIDTH 15 0
BBX 13 15 1 0
BITMAP
0F80
3FE0
E0F0
8070
0038
0018
0018
0018
7FF8
C018
C010
C030
6030
7060
1F80
ENDCHAR
STARTCHAR 01DE
ENCODING 478
SWIDTH 593 0
DWIDTH 19 0
BBX 19 30 0 0
BITMAP
0FFE00
000000
000000
000000
000000
060C00
060C00
0E1C00
060C00
000000
004000
00E000
00E000
01E000
01F000
01B000
033000
033800
031800
061C00
061C00
060C00
0FFE00
0C0600
080600
180700
180300
100300
300380
FE0FE0
ENDCHAR
STARTCHAR 01DF
ENCODING 479
SWIDTH 468 0
DWIDTH 15 0
BBX 13 26 1 0
BITMAP
3FF0
4000
0000
0000
0000
3060
3870
3060
3060
0000
0000
0FC0
30E0
7060
6060
0060
0060
0FE0
3FE0
7E60
F060
E060
C060
C060
41E0
3E78
ENDCHAR
STARTCHAR 01E0
ENCODING 480
SWIDTH 593 0
DWIDTH 19 0
BBX 19 30 0 0
BITMAP
0FFE00
000000
000000
000000
000000
00C000
00C000
01C000
00C000
000000
004000
00E000
00E000
01E000
01F000
01B000
033000
033800
031800
061C00
061C00
060C00
0FFE00
0C0600
080600
180700
180300
100300
300380
FE0FE0
ENDCHAR
STARTCHAR 01E1
ENCODING 481
SWIDTH 468 0
DWIDTH 15 0
BBX 13 26 1 0
BITMAP
3FF0
4000
0000
0000
0000
0600
0700
0600
0600
0000
0000
0FC0
30E0
7060
6060
0060
0060
0FE0
3FE0
7E60
F060
E060
C060
C060
41E0
3E78
ENDCHAR
STARTCHAR 01E2
ENCODING 482
SWIDTH 781 0
DWIDTH 25 0
BBX 23 25 0 0
BITMAP
007FF0
000000
000000
000000
000000
03FFFC
007C04
006C04
00EC04
00CC00
01CC00
018C00
018C00
038C00
03FFF8
070C10
060C00
060C00
0C0C00
0C0C00
1C0C00
180C02
180C02
300C06
FC3FFE
ENDCHAR
STARTCHAR 01E3
ENCODING 483
SWIDTH 687 0
DWIDTH 22 0
BBX 19 20 2 0
BITMAP
07FE00
080000
000000
000000
000000
1F8F00
71B0C0
60E0C0
E0E060
80C060
00C060
07FFC0
1CC000
70C000
60C000
C0C000
C0E000
C16040
C270E0
7C1F00
ENDCHAR
STARTCHAR 01E6
ENCODING 486
SWIDTH 593 0
DWIDTH 19 0
BBX 18 27 1 0
BITMAP
080400
061800
033000
01E000
00C000
000000
000000
01FE00
060F00
080000
100000
200000
600000
400000
C00000
C00000
C00000
C00000
C01FC0
C00700
C00300
600300
600300
300300
180300
0C0300
03FC00
ENDCHAR
STARTCHAR 01E7
ENCODING 487
SWIDTH 500 0
DWIDTH 16 0
BBX 15 31 1 -8
BITMAP
2010
3060
18C0
0DC0
0780
0300
0000
0000
0786
18FC
2060
6030
6030
6030
6030
7060
3840
1F80
0800
1000
3C00
3FE0
0FF8
3FFC
707C
E00C
C00C
C008
6010
7020
1FC0
ENDCHAR
STARTCHAR 01E8
ENCODING 488
SWIDTH 593 0
DWIDTH 19 0
BBX 17 27 1 0
BITMAP
180800
0C1000
066000
03C000
01C000
000000
000000
FC7F00
301800
303000
306000
30E000
31C000
318000
330000
360000
3E0000
360000
370000
338000
31C000
30E000
307000
307800
303C00
301E00
FC0F80
ENDCHAR
STARTCHAR 01E9
ENCODING 489
SWIDTH 500 0
DWIDTH 16 0
BBX 15 31 1 0
BITMAP
1010
3830
0C60
07C0
0380
0000
0000
1000
F000
3000
3000
3000
3000
3000
3000
3000
30FC
3070
30E0
3180
3300
3600
3E00
3600
3700
3380
31C0
30E0
3070
3078
FC3E
ENDCHAR
STARTCHAR 01EE
ENCODING 494
SWIDTH 531 0
DWIDTH 17 0
BBX 13 28 2 0
BITMAP
2020
7060
18C0
0D80
0F00
0700
0000
0000
FFF0
C0F0
80E0
81C0
03C0
0780
0700
0E00
1FC0
30F0
0030
0038
0018
0018
0018
0018
0010
C030
F060
7F80
ENDCHAR
STARTCHAR 01EF
ENCODING 495
SWIDTH 437 0
DWIDTH 14 0
BBX 12 30 1 -8
BITMAP
4020
30C0
1980
0F00
0600
0000
0000
7FE0
40E0
41C0
0180
0380
0700
0E00
1E00
1C00
3F80
01C0
00E0
0070
0070
0030
0030
0030
0030
0020
0060
C040
E080
7F00
ENDCHAR
STARTCHAR 01F4
ENCODING 500
SWIDTH 593 0
DWIDTH 19 0
BBX 18 27 1 0
BITMAP
000800
001C00
007800
00E000
01C000
030000
000000
01FE00
060F00
080000
100000
200000
600000
400000
C00000
C00000
C00000
C00000
C01FC0
C00700
C00300
600300
600300
300300
180300
0C0300
03FC00
ENDCHAR
STARTCHAR 01F5
ENCODING 501
SWIDTH 500 0
DWIDTH 16 0
BBX 15 31 1 -8
BITMAP
0060
00F0
01C0
0180
0300
0200
0600
0000
0786
18FC
2060
6030
6030
6030
6030
7060
3840
1F80
0800
1000
3C00
3FE0
0FF8
3FFC
707C
E00C
C00C
C008
6010
7020
1FC0
ENDCHAR
STARTCHAR 01F8
ENCODING 504
SWIDTH 656 0
DWIDTH 21 0
BBX 19 27 1 0
BITMAP
060000
0F0000
078000
01C000
006000
001000
000000
F007E0
380180
3C0180
3C0180
3E0180
370180
338180
338180
31C180
30E180
306180
307180
303980
301D80
300D80
300F80
300780
300380
300380
FC0180
ENDCHAR
STARTCHAR 01F9
ENCODING 505
SWIDTH 562 0
DWIDTH 18 0
BBX 16 23 1 0
BITMAP
0C00
1E00
0600
0300
0180
0080
00C0
0000
7070
B188
360C
380C
380C
300C
300C
300C
300C
300C
300C
300C
300C
300C
FC3F
ENDCHAR
STARTCHAR 01FA
ENCODING 506
SWIDTH 593 0
DWIDTH 19 0
BBX 19 34 0 0
BITMAP
000800
001E00
003C00
007000
00C000
010000
000000
00E000
01B000
013000
033000
01B000
01E000
000000
004000
00E000
00E000
01E000
01F000
01B000
033000
033800
031800
061C00
061C00
060C00
0FFE00
0C0600
080600
180700
180300
100300
300380
FE0FE0
ENDCHAR
STARTCHAR 01FB
ENCODING 507
SWIDTH 468 0
DWIDTH 15 0
BBX 13 30 1 0
BITMAP
00E0
00E0
01C0
0180
0300
0200
0400
0000
0780
0D80
0CC0
0C80
0D80
0F00
0000
0FC0
30E0
7060
6060
0060
0060
0FE0
3FE0
7E60
F060
E060
C060
C060
41E0
3E78
ENDCHAR
STARTCHAR 01FC
ENCODING 508
SWIDTH 781 0
DWIDTH 25 0
BBX 23 27 0 0
BITMAP
000060
0000F0
0001E0
000380
000600
000800
000000
03FFFC
007C04
006C04
00EC04
00CC00
01CC00
018C00
018C00
038C00
03FFF8
070C10
060C00
060C00
0C0C00
0C0C00
1C0C00
180C02
180C02
300C06
FC3FFE
ENDCHAR
STARTCHAR 01FD
ENCODING 509
SWIDTH 687 0
DWIDTH 22 0
BBX 19 23 2 0
BITMAP
001C00
001C00
003800
003000
006000
004000
008000
000000
1F8F00
71B0C0
60E0C0
E0E060
80C060
00C060
07FFC0
1CC000
70C000
60C000
C0C000
C0E000
C16040
C270E0
7C1F00
ENDCHAR
STARTCHAR 01FE
ENCODING 510
SWIDTH 593 0
DWIDTH 19 0
BBX 17 28 1 -1
BITMAP
001800
003C00
007800
00E000
018000
020000
000000
03F180
041F00
180E00
301E00
201F00
603F00
403B80
C07380
C0E180
C0E180
C1C180
C38180
C30180
E70100
6E0300
7C0200
7C0600
380400
7C1800
C7E000
800000
ENDCHAR
STARTCHAR 01FF
ENCODING 511
SWIDTH 500 0
DWIDTH 16 0
BBX 14 24 1 -1
BITMAP
0070
00E0
00E0
01C0
0180
0300
0200
0000
07CC
1878
2078
6078
40FC
C1DC
C18C
C38C
C70C
C60C
EC08
7C18
7810
7820
CFC0
8000
ENDCHAR
STARTCHAR 021E
ENCODING 542
SWIDTH 656 0
DWIDTH 21 0
BBX 19 27 1 0
BITMAP
0C0400
060800
033800
01F000
00E000
000000
000000
FC07E0
300180
300180
300180
300180
300180
300180
300180
300180
3FFF80
300180
300180
300180
300180
300180
300180
300180
300180
300180
FC07E0
ENDCHAR
STARTCHAR 021F
ENCODING 543
SWIDTH 562 0
DWIDTH 18 0
BBX 16 31 1 0
BITMAP
1008
0C30
0660
03C0
0180
0000
0000
1000
F000
3000
3000
3000
3000
3000
3000
3000
3070
3188
360C
380C
380C
300C
300C
300C
300C
300C
300C
300C
300C
300C
FC3F
ENDCHAR
STARTCHAR 0226
ENCODING 550
SWIDTH 593 0
DWIDTH 19 0
BBX 19 25 0 0
BITMAP
00C000
00C000
01C000
00C000
000000
004000
00E000
00E000
01E000
01F000
01B000
033000
033800
031800
061C00
061C00
060C00
0FFE00
0C0600
080600
180700
180300
100300
300380
FE0FE0
ENDCHAR
STARTCHAR 0227
ENCODING 551
SWIDTH 468 0
DWIDTH 15 0
BBX 13 21 1 0
BITMAP
0600
0700
0600
0600
0000
0000
0FC0
30E0
7060
6060
0060
0060
0FE0
3FE0
7E60
F060
E060
C060
C060
41E0
3E78
ENDCHAR
STARTCHAR 0228
ENCODING 552
SWIDTH 500 0
DWIDTH 16 0
BBX 15 27 1 -7
BITMAP
FFF0
3010
3010
3010
3000
3000
3000
3000
3000
3FE0
3040
3000
3000
3000
3000
3000
3004
3006
3004
FFFC
0100
0300
03C0
01C0
00C0
0180
0E00
ENDCHAR
STARTCHAR 0229
ENCODING 553
SWIDTH 437 0
DWIDTH 14 0
BBX 12 22 1 -7
BITMAP
0780
1840
2060
6030
4030
C030
FFE0
C000
C000
C000
E000
6000
7010
3820
0FC0
0200
0200
0780
0180
0180
0300
0C00
ENDCHAR
STARTCHAR 022A
ENCODING 554
SWIDTH 593 0
DWIDTH 19 0
BBX 17 30 1 0
BITMAP
0FFC00
100000
000000
000000
000000
0C1800
0E1C00
0E1C00
0C1800
000000
03F000
0C1800
100C00
300600
200300
600300
400380
C00180
C00180
C00180
C00180
C00180
C00180
E00100
600300
600200
300600
380400
0C1800
07E000
ENDCHAR
STARTCHAR 022B
ENCODING 555
SWIDTH 500 0
DWIDTH 16 0
BBX 14 26 1 0
BITMAP
1FF8
2000
0000
0000
0000
1830
1830
3870
1830
0000
0000
07C0
1870
2038
6018
401C
C00C
C00C
C00C
C00C
C00C
E008
6018
7010
3820
0FC0
ENDCHAR
STARTCHAR 022C
ENCODING 556
SWIDTH 593 0
DWIDTH 19 0
BBX 17 30 1 0
BITMAP
0FFC00
100000
000000
000000
030400
07CC00
08F800
107000
000000
000000
03F000
0C1800
100C00
300600
200300
600300
400380
C00180
C00180
C00180
C00180
C00180
C00180
E00100
600300
600200
300600
380400
0C1800
07E000
ENDCHAR
STARTCHAR 022D
ENCODING 557
SWIDTH 500 0
DWIDTH 16 0
BBX 14 26 1 0
BITMAP
1FF8
2000
0000
0000
0000
0E08
1F90
11E0
2000
0000
0000
07C0
1870
2038
6018
401C
C00C
C00C
C00C
C00C
C00C
E008
6018
7010
3820
0FC0
ENDCHAR
STARTCHAR 022E
ENCODING 558
SWIDTH 593 0
DWIDTH 19 0
BBX 17 25 1 0
BITMAP
018000
01C000
01C000
018000
000000
03F000
0C1800
100C00
300600
200300
600300
400380
C00180
C00180
C00180
C00180
C00180
C00180
E00100
600300
600200
300600
380400
0C1800
07E000
ENDCHAR
STARTCHAR 022F
ENCODING 559
SWIDTH 500 0
DWIDTH 16 0
BBX 14 21 1 0
BITMAP
0300
0300
0700
0300
0000
0000
07C0
1870
2038
6018
401C
C00C
C00C
C00C
C00C
C00C
E008
6018
7010
3820
0FC0
ENDCHAR
STARTCHAR 0230
ENCODING 560
SWIDTH 593 0
DWIDTH 19 0
BBX 17 30 1 0
BITMAP
0FFC00
100000
000000
000000
000000
018000
01C000
01C000
018000
000000
03F000
0C1800
100C00
300600
200300
600300
400380
C00180
C00180
C00180
C00180
C00180
C00180
E00100
600300
600200
300600
380400
0C1800
07E000
ENDCHAR
STARTCHAR 0231
ENCODING 561
SWIDTH 500 0
DWIDTH 16 0
BBX 14 26 1 0
BITMAP
1FF8
2000
0000
0000
0000
0300
0300
0700
0300
0000
0000
07C0
1870
2038
6018
401C
C00C
C00C
C00C
C00C
C00C
E008
6018
7010
3820
0FC0
ENDCHAR
STARTCHAR 0232
ENCODING 562
SWIDTH 593 0
DWIDTH 19 0
BBX 18 25 0 0
BITMAP
0FFE00
000000
000000
000000
000000
F01FC0
380700
1C0600
0C0C00
0E0C00
071800
071800
033000
03B000
01E000
01E000
00C000
00C000
00C000
00C000
00C000
00C000
00C000
00C000
07F800
ENDCHAR
STARTCHAR 0233
ENCODING 563
SWIDTH 500 0
DWIDTH 16 0
BBX 16 28 -1 -8
BITMAP
0FFE
0000
0000
0000
0000
7E1F
1C06
1C04
0C0C
0E0C
0E08
0618
0718
0310
0330
03B0
01A0
01E0
01E0
00C0
00C0
0080
0180
0180
0300
7E00
7C00
F800
ENDCHAR
STARTCHAR 0237
ENCODING 567
SWIDTH 250 0
DWIDTH 8 0
BBX 9 23 -4 -8
BITMAP
0180
0780
0180
0180
0180
0180
0180
0180
0180
0180
0180
0180
0180
0180
0180
0180
0180
0180
0100
0300
0200
7C00
F800
ENDCHAR
STARTCHAR 023D
ENCODING 573
SWIDTH 468 0
DWIDTH 15 0
BBX 13 20 1 0
BITMAP
FC00
3000
3000
3000
3000
3000
3000
3000
3000
3000
FF00
3000
3000
3000
3000
3000
3008
3008
3018
FFF8
ENDCHAR
STARTCHAR 0241
ENCODING 577
SWIDTH 468 0
DWIDTH 15 0
BBX 13 20 1 0
BITMAP
1FC0
7070
6030
C018
C018
C018
0038
0070
00E0
01C0
0300
0600
0600
0600
0600
0600
0600
0600
0600
3FE0
ENDCHAR
STARTCHAR 0242
ENCODING 578
SWIDTH 375 0
DWIDTH 12 0
BBX 10 15 1 0
BITMAP
3F00
6180
C0C0
C0C0
80C0
01C0
0380
0700
0600
0C00
0C00
0C00
0C00
0C00
7F80
ENDCHAR
STARTCHAR 0244
ENCODING 580
SWIDTH 656 0
DWIDTH 21 0
BBX 19 20 1 0
BITMAP
FC07E0
300180
300180
300180
300180
300180
300180
300180
300180
FFFFE0
300180
300180
300180
300180
300180
300300
180300
1C0600
0E0C00
03F000
ENDCHAR
STARTCHAR 0245
ENCODING 581
SWIDTH 656 0
DWIDTH 21 0
BBX 20 20 0 0
BITMAP
002000
007000
00F000
00F000
00F800
019800
019C00
011C00
030C00
030E00
060E00
060600
060700
0C0300
0C0380
0C0380
180180
1801C0
1801C0
FE07F0
ENDCHAR
STARTCHAR 024A
ENCODING 586
SWIDTH 593 0
DWIDTH 19 0
BBX 21 28 1 -8
BITMAP
01E200
07FF00
0C1E00
180E00
300600
600600
600600
C00600
C00600
C00600
C00600
C00600
C00600
E00600
600600
600E00
301E00
383600
1FE600
078600
000600
000600
000600
000600
000608
000618
000710
0003E0
ENDCHAR
STARTCHAR 024B
ENCODING 587
SWIDTH 500 0
DWIDTH 16 0
BBX 19 23 1 -8
BITMAP
07C800
183800
301800
601800
401800
C01800
C01800
C01800
C01800
C01800
C01800
601800
703800
385800
0F9800
001800
001800
001800
001800
001860
001860
001C40
000F80
ENDCHAR
STARTCHAR 0251
ENCODING 593
SWIDTH 500 0
DWIDTH 16 0
BBX 14 15 1 0
BITMAP
0790
1870
2030
6030
4030
C030
C030
C030
C030
C030
C030
6030
6070
30BC
1F30
ENDCHAR
STARTCHAR 0253
ENCODING 595
SWIDTH 500 0
DWIDTH 16 0
BBX 13 24 2 0
BITMAP
07C0
19E0
2080
6000
6000
4000
C000
C000
C000
C3C0
C7E0
D870
F030
E038
C018
C018
C018
C018
C018
C010
C030
C020
7040
1F80
ENDCHAR
STARTCHAR 0254
ENCODING 596
SWIDTH 437 0
DWIDTH 14 0
BBX 12 15 1 0
BITMAP
1F00
3FC0
C1E0
8060
0070
0030
0030
0030
0030
E030
C020
C060
C040
6080
3F00
ENDCHAR
STARTCHAR 0256
ENCODING 598
SWIDTH 500 0
DWIDTH 16 0
BBX 19 32 1 -8
BITMAP
001800
007800
001800
001800
001800
001800
001800
001800
001800
07F800
183800
201800
601800
401800
C01800
C01800
C01800
C01800
C01800
C01800
601800
703800
385800
0F9800
001800
001800
001800
001800
001860
0018E0
001CE0
000F80
ENDCHAR
STARTCHAR 0257
ENCODING 599
SWIDTH 531 0
DWIDTH 17 0
BBX 19 24 1 0
BITMAP
0003C0
0004E0
000840
001800
001800
001800
001800
001800
001800
07F800
183800
201800
601800
401800
C01800
C01800
C01800
C01800
C01800
C01800
601800
703A00
38DE00
0F1800
ENDCHAR
STARTCHAR 0259
ENCODING 601
SWIDTH 468 0
DWIDTH 15 0
BBX 13 15 1 0
BITMAP
0F80
3FE0
E0F0
8070
0038
0018
0018
0018
7FF8
C018
C010
C030
6030
7060
1F80
ENDCHAR
STARTCHAR 025B
ENCODING 603
SWIDTH 437 0
DWIDTH 14 0
BBX 11 15 2 0
BITMAP
1FC0
20C0
4040
C000
C000
E000
7000
3C00
7200
E000
C000
C000
C020
6040
3F80
ENDCHAR
STARTCHAR 0263
ENCODING 611
SWIDTH 500 0
DWIDTH 16 0
BBX 16 23 0 -8
BITMAP
FC1F
300C
380C
1818
1C18
0C30
0E30
0660
0760
03C0
03C0
0380
01C0
03C0
03E0
06E0
0670
0E70
0C30
0C30
0C30
0660
03C0
ENDCHAR
STARTCHAR 0268
ENCODING 616
SWIDTH 281 0
DWIDTH 9 0
BBX 8 21 0 0
BITMAP
18
38
38
30
00
00
18
78
18
18
18
18
18
7F
98
18
18
18
18
18
7E
ENDCHAR
STARTCHAR 0269
ENCODING 617
SWIDTH 281 0
DWIDTH 9 0
BBX 8 15 1 0
BITMAP
30
F0
30
30
30
30
30
30
30
30
30
30
31
3E
18
ENDCHAR
STARTCHAR 026B
ENCODING 619
SWIDTH 343 0
DWIDTH 11 0
BBX 10 24 0 0
BITMAP
0400
3C00
0C00
0C00
0C00
0C00
0C00
0C00
0C00
0C00
0C40
3CC0
CF00
8C00
0C00
0C00
0C00
0C00
0C00
0C00
0C00
0C00
0C00
3F00
ENDCHAR
STARTCHAR 0272
ENCODING 626
SWIDTH 562 0
DWIDTH 18 0
BBX 21 23 -4 -8
BITMAP
038380
058C40
01B060
01C060
01C060
018060
018060
018060
018060
018060
018060
018060
018060
018060
0181F8
018000
018000
018000
010000
030000
260000
7C0000
F80000
ENDCHAR
STARTCHAR 0275
ENCODING 629
SWIDTH 500 0
DWIDTH 16 0
BBX 14 15 1 0
BITMAP
07C0
1870
2038
6018
401C
C00C
C00C
FFFC
C00C
C00C
E008
6018
7010
3820
0FC0
ENDCHAR
STARTCHAR 0283
ENCODING 643
SWIDTH 250 0
DWIDTH 8 0
BBX 15 32 -4 -8
BITMAP
003C
00DE
0100
0100
0300
0300
0300
0300
0300
0300
0300
0380
0380
0180
0180
0180
0180
0180
01C0
01C0
00C0
00C0
00C0
00C0
00C0
00C0
00C0
0080
0180
2100
7E00
FC00
ENDCHAR
STARTCHAR 0289
ENCODING 649
SWIDTH 531 0
DWIDTH 17 0
BBX 15 15 1 0
BITMAP
1018
F078
3018
3018
3018
3018
3018
FFFE
7F1A
3018
3018
3018
3038
185E
0F98
ENDCHAR
STARTCHAR 028A
ENCODING 650
SWIDTH 468 0
DWIDTH 15 0
BBX 13 15 1 0
BITMAP
F8F8
38E0
3060
6030
6030
C038
C018
C018
C018
C018
C010
6010
7020
3840
0F80
ENDCHAR
STARTCHAR 028C
ENCODING 652
SWIDTH 500 0
DWIDTH 16 0
BBX 15 15 0 0
BITMAP
0180
0380
03C0
03C0
06C0
06E0
0460
0C60
0870
1830
1838
1018
3018
301C
F87E
ENDCHAR
STARTCHAR 0292
ENCODING 658
SWIDTH 437 0
DWIDTH 14 0
BBX 12 23 1 -8
BITMAP
7FE0
40E0
41C0
0180
0380
0700
0E00
1E00
1C00
3F80
01C0
00E0
0070
0070
0030
0030
0030
0030
0020
0060
C040
E080
7F00
ENDCHAR
STARTCHAR 0294
ENCODING 660
SWIDTH 437 0
DWIDTH 14 0
BBX 12 24 1 0
BITMAP
0F80
30E0
6060
C030
C030
C030
0030
0070
0060
00C0
0180
0180
0300
0200
0600
0600
0600
0600
0600
0600
0600
0600
0600
3FC0
ENDCHAR
STARTCHAR 02A0
ENCODING 672
SWIDTH 500 0
DWIDTH 16 0
BBX 18 32 1 -8
BITMAP
000780
0009C0
001080
003000
003000
003000
003000
003000
003000
07F000
187000
203000
603000
403000
C03000
C03000
C03000
C03000
C03000
C03000
603000
607000
30B000
1F3000
003000
003000
003000
003000
003000
003000
003000
01FC00
ENDCHAR
STARTCHAR 02BC
ENCODING 700
SWIDTH 218 0
DWIDTH 7 0
BBX 4 7 2 17
BITMAP
60
F0
30
30
30
60
40
ENDCHAR
STARTCHAR 02C0
ENCODING 704
SWIDTH 312 0
DWIDTH 10 0
BBX 8 11 1 13
BITMAP
3E
67
C3
C3
03
06
0C
18
18
18
18
ENDCHAR
STARTCHAR 02C6
ENCODING 710
SWIDTH 343 0
DWIDTH 11 0
BBX 10 7 1 16
BITMAP
0C00
1E00
3E00
3700
6380
C180
80C0
ENDCHAR
STARTCHAR 02C7
ENCODING 711
SWIDTH 343 0
DWIDTH 11 0
BBX 10 6 1 17
BITMAP
80C0
C180
6300
3700
1E00
0C00
ENDCHAR
STARTCHAR 02C9
ENCODING 713
SWIDTH 500 0
DWIDTH 16 0
BBX 10 1 3 19
BITMAP
FFC0
ENDCHAR
STARTCHAR 02CA
ENCODING 714
SWIDTH 187 0
DWIDTH 6 0
BBX 6 7 0 16
BITMAP
1C
1C
38
30
60
40
80
ENDCHAR
STARTCHAR 02CB
ENCODING 715
SWIDTH 187 0
DWIDTH 6 0
BBX 6 7 0 16
BITMAP
E0
E0
70
38
18
0C
04
ENDCHAR
STARTCHAR 02CD
ENCODING 717
SWIDTH 500 0
DWIDTH 16 0
BBX 10 1 3 -3
BITMAP
FFC0
ENDCHAR
STARTCHAR 02D7
ENCODING 727
SWIDTH 343 0
DWIDTH 11 0
BBX 9 1 1 8
BITMAP
FF80
ENDCHAR
STARTCHAR 02D8
ENCODING 728
SWIDTH 343 0
DWIDTH 11 0
BBX 10 4 1 18
BITMAP
8040
8080
6100
3E00
ENDCHAR
STARTCHAR 02D9
ENCODING 729
SWIDTH 187 0
DWIDTH 6 0
BBX 3 4 2 17
BITMAP
60
E0
E0
C0
ENDCHAR
STARTCHAR 02DA
ENCODING 730
SWIDTH 250 0
DWIDTH 8 0
BBX 6 6 1 16
BITMAP
38
4C
CC
CC
C8
70
ENDCHAR
STARTCHAR 02DB
ENCODING 731
SWIDTH 250 0
DWIDTH 8 0
BBX 6 8 2 -7
BITMAP
0C
10
60
60
C0
C0
C4
78
ENDCHAR
STARTCHAR 02DC
ENCODING 732
SWIDTH 406 0
DWIDTH 13 0
BBX 11 4 1 17
BITMAP
3820
7E40
4780
8000
ENDCHAR
STARTCHAR 02DD
ENCODING 733
SWIDTH 375 0
DWIDTH 12 0
BBX 10 7 1 16
BITMAP
1980
39C0
3380
3300
6200
4600
8400
ENDCHAR
STARTCHAR 0300
ENCODING 768
SWIDTH 0 0
DWIDTH 0 0
BBX 6 7 -11 16
BITMAP
E0
E0
70
30
18
08
04
ENDCHAR
STARTCHAR 0301
ENCODING 769
SWIDTH 0 0
DWIDTH 0 0
BBX 6 7 -10 16
BITMAP
1C
1C
38
30
60
40
80
ENDCHAR
STARTCHAR 0302
ENCODING 770
SWIDTH 0 0
DWIDTH 0 0
BBX 10 7 -13 16
BITMAP
0C00
1E00
3E00
3300
6180
4080
8040
ENDCHAR
STARTCHAR 0303
ENCODING 771
SWIDTH 0 0
DWIDTH 0 0
BBX 10 4 -13 17
BITMAP
3840
7C80
C700
8000
ENDCHAR
STARTCHAR 0304
ENCODING 772
SWIDTH 0 0
DWIDTH 0 0
BBX 10 1 -13 19
BITMAP
FFC0
ENDCHAR
STARTCHAR 0306
ENCODING 774
SWIDTH 0 0
DWIDTH 0 0
BBX 10 4 -13 18
BITMAP
8040
C080
6180
1E00
ENDCHAR
STARTCHAR 0307
ENCODING 775
SWIDTH 0 0
DWIDTH 0 0
BBX 3 4 -10 17
BITMAP
60
E0
E0
C0
ENDCHAR
STARTCHAR 0308
ENCODING 776
SWIDTH 0 0
DWIDTH 0 0
BBX 10 4 -13 17
BITMAP
60C0
E1C0
E1C0
C180
ENDCHAR
STARTCHAR 0309
ENCODING 777
SWIDTH 0 0
DWIDTH 0 0
BBX 5 6 -11 17
BITMAP
70
98
98
30
60
70
ENDCHAR
STARTCHAR 030A
ENCODING 778
SWIDTH 0 0
DWIDTH 0 0
BBX 6 6 -11 16
BITMAP
38
4C
CC
CC
C8
70
ENDCHAR
STARTCHAR 030B
ENCODING 779
SWIDTH 0 0
DWIDTH 0 0
BBX 9 7 -11 16
BITMAP
3180
3B80
7300
6300
4600
C400
8C00
ENDCHAR
STARTCHAR 030C
ENCODING 780
SWIDTH 0 0
DWIDTH 0 0
BBX 10 6 -13 17
BITMAP
8040
4080
6180
3F00
1E00
0C00
ENDCHAR
STARTCHAR 031B
ENCODING 795
SWIDTH 31 0
DWIDTH 1 0
BBX 5 7 -4 11
BITMAP
18
38
18
18
30
60
80
ENDCHAR
STARTCHAR 0323
ENCODING 803
SWIDTH 0 0
DWIDTH 0 0
BBX 3 4 -10 -7
BITMAP
60
E0
E0
C0
ENDCHAR
STARTCHAR 0327
ENCODING 807
SWIDTH 0 0
DWIDTH 0 0
BBX 5 7 -11 -7
BITMAP
30
20
30
78
18
30
E0
ENDCHAR
STARTCHAR 0328
ENCODING 808
SWIDTH 0 0
DWIDTH 0 0
BBX 6 8 -11 -7
BITMAP
0C
10
60
60
C0
C0
C4
78
ENDCHAR
STARTCHAR 0331
ENCODING 817
SWIDTH 0 0
DWIDTH 0 0
BBX 10 1 -13 -4
BITMAP
FFC0
ENDCHAR
STARTCHAR 033F
ENCODING 831
SWIDTH 0 0
DWIDTH 0 0
BBX 17 6 -16 19
BITMAP
FFFF80
000000
000000
000000
000000
FFFF80
ENDCHAR
STARTCHAR 035E
ENCODING 862
SWIDTH 0 0
DWIDTH 0 0
BBX 20 1 -10 27
BITMAP
FFFFF0
ENDCHAR
STARTCHAR 035F
ENCODING 863
SWIDTH 0 0
DWIDTH 0 0
BBX 20 1 -10 -10
BITMAP
FFFFF0
ENDCHAR
STARTCHAR 03A0
ENCODING 928
SWIDTH 625 0
DWIDTH 20 0
BBX 18 20 1 0
BITMAP
FFFFC0
380700
300300
300300
300300
300300
300300
300300
300300
300300
300300
300300
300300
300300
300300
300300
300300
300300
300300
FC0FC0
ENDCHAR
STARTCHAR 03A9
ENCODING 937
SWIDTH 625 0
DWIDTH 20 0
BBX 16 20 2 0
BITMAP
03E0
0C18
300C
2006
6006
4003
C003
C003
C003
C003
C003
C007
6006
6006
700C
381C
9839
8C31
8661
FE7F
ENDCHAR
STARTCHAR 03C0
ENCODING 960
SWIDTH 531 0
DWIDTH 17 0
BBX 16 15 0 0
BITMAP
3FFF
7FFE
FFFC
8C30
0C30
0C30
0C30
0C30
1C30
1C30
1C30
1C30
1C30
3C3F
701C
ENDCHAR
STARTCHAR 1E02
ENCODING 7682
SWIDTH 562 0
DWIDTH 18 0
BBX 14 25 1 0
BITMAP
0300
0700
0700
0300
0000
3FC0
F070
3038
3018
3018
3018
3018
3030
30E0
3FE0
3070
3038
301C
300C
300C
300C
300C
3018
3030
FFC0
ENDCHAR
STARTCHAR 1E03
ENCODING 7683
SWIDTH 500 0
DWIDTH 16 0
BBX 15 24 0 0
BITMAP
3000
F000
3000
30C0
31C0
31C0
31C0
3000
3000
30F0
31F8
361C
3C0C
380E
3006
3006
3006
3006
3006
3004
300C
3008
1C10
07E0
ENDCHAR
STARTCHAR 1E04
ENCODING 7684
SWIDTH 562 0
DWIDTH 18 0
BBX 14 27 1 -7
BITMAP
3FC0
F070
3038
3018
3018
3018
3018
3030
30E0
3FE0
3070
3038
301C
300C
300C
300C
300C
3018
3030
FFC0
0000
0000
0000
0300
0700
0700
0300
ENDCHAR
STARTCHAR 1E05
ENCODING 7685
SWIDTH 500 0
DWIDTH 16 0
BBX 15 31 0 -7
BITMAP
3000
F000
3000
3000
3000
3000
3000
3000
3000
30F0
31F8
361C
3C0C
380E
3006
3006
3006
3006
3006
3004
300C
3008
1C10
07E0
0000
0000
0000
0300
0380
0300
0300
ENDCHAR
STARTCHAR 1E06
ENCODING 7686
SWIDTH 562 0
DWIDTH 18 0
BBX 14 24 1 -4
BITMAP
3FC0
F070
3038
3018
3018
3018
3018
3030
30E0
3FE0
3070
3038
301C
300C
300C
300C
300C
3018
3030
FFC0
0000
0000
0000
3FF8
ENDCHAR
STARTCHAR 1E07
ENCODING 7687
SWIDTH 500 0
DWIDTH 16 0
BBX 15 28 0 -4
BITMAP
3000
F000
3000
3000
3000
3000
3000
3000
3000
30F0
31F8
361C
3C0C
380E
3006
3006
3006
3006
3006
3004
300C
3008
1C10
07E0
0000
0000
0000
3FF8
ENDCHAR
STARTCHAR 1E08
ENCODING 7688
SWIDTH 531 0
DWIDTH 17 0
BBX 15 34 1 -7
BITMAP
0018
003C
0078
00E0
0380
0200
0000
03F8
0C1C
1008
3000
6000
6000
4000
C000
C000
C000
C000
C000
C000
E000
6000
7000
7802
3C0C
1FF8
0FF0
0080
0080
01E0
00E0
0060
00C0
0300
ENDCHAR
STARTCHAR 1E09
ENCODING 7689
SWIDTH 437 0
DWIDTH 14 0
BBX 12 30 1 -7
BITMAP
00E0
00E0
01C0
0180
0300
0200
0400
0000
07E0
1860
2020
6000
4000
C000
C000
C000
C000
C000
E000
7010
7860
3FC0
1F80
0600
0200
0780
0380
0180
0300
0C00
ENDCHAR
STARTCHAR 1E0A
ENCODING 7690
SWIDTH 593 0
DWIDTH 19 0
BBX 17 25 1 0
BITMAP
030000
038000
038000
030000
000000
3FE000
F03800
300C00
300600
300300
300300
300380
300180
300180
300180
300180
300180
300180
300300
300300
300300
300600
300C00
303800
FFE000
ENDCHAR
STARTCHAR 1E0B
ENCODING 7691
SWIDTH 531 0
DWIDTH 17 0
BBX 15 24 1 0
BITMAP
0018
0078
0018
1818
3818
3818
1818
0018
0018
07F8
1838
2018
6018
4018
C018
C018
C018
C018
C018
C018
6018
7038
38DE
0F18
ENDCHAR
STARTCHAR 1E0C
ENCODING 7692
SWIDTH 593 0
DWIDTH 19 0
BBX 17 27 1 -7
BITMAP
3FE000
F03800
300C00
300600
300300
300300
300380
300180
300180
300180
300180
300180
300180
300300
300300
300300
300600
300C00
303800
FFE000
000000
000000
000000
030000
038000
038000
030000
ENDCHAR
STARTCHAR 1E0D
ENCODING 7693
SWIDTH 531 0
DWIDTH 17 0
BBX 15 31 1 -7
BITMAP
0018
0078
0018
0018
0018
0018
0018
0018
0018
07F8
1838
2018
6018
4018
C018
C018
C018
C018
C018
C018
6018
7038
38DE
0F18
0000
0000
0000
0300
0700
0700
0700
ENDCHAR
STARTCHAR 1E0E
ENCODING 7694
SWIDTH 593 0
DWIDTH 19 0
BBX 17 24 1 -4
BITMAP
3FE000
F03800
300C00
300600
300300
300300
300380
300180
300180
300180
300180
300180
300180
300300
300300
300300
300600
300C00
303800
FFE000
000000
000000
000000
3FF800
ENDCHAR
STARTCHAR 1E0F
ENCODING 7695
SWIDTH 531 0
DWIDTH 17 0
BBX 15 28 1 -4
BITMAP
0018
0078
0018
0018
0018
0018
0018
0018
0018
07F8
1838
2018
6018
4018
C018
C018
C018
C018
C018
C018
6018
7038
38DE
0F18
0000
0000
0000
3FF0
ENDCHAR
STARTCHAR 1E14
ENCODING 7700
SWIDTH 500 0
DWIDTH 16 0
BBX 13 32 1 0
BITMAP
1000
3800
1C00
0F00
0380
00C0
0000
3FF0
0000
0000
0000
0000
FFF0
3010
3010
3010
3000
3000
3000
3000
3000
3FE0
3040
3000
3000
3000
3000
3000
3008
3008
3018
FFF8
ENDCHAR
STARTCHAR 1E15
ENCODING 7701
SWIDTH 468 0
DWIDTH 15 0
BBX 13 29 1 0
BITMAP
0800
3C00
1C00
0E00
0600
0300
0180
0000
0000
3FF0
0000
0000
0000
0000
07C0
1860
2030
6018
4018
C018
FFF0
C000
C000
C000
E000
6000
7008
3830
0FC0
ENDCHAR
STARTCHAR 1E16
ENCODING 7702
SWIDTH 500 0
DWIDTH 16 0
BBX 13 32 1 0
BITMAP
0020
00F0
01E0
0380
0700
0C00
0000
3FF0
0000
0000
0000
0000
FFF0
3010
3010
3010
3000
3000
3000
3000
3000
3FE0
3040
3000
3000
3000
3000
3000
3008
3008
3018
FFF8
ENDCHAR
STARTCHAR 1E17
ENCODING 7703
SWIDTH 468 0
DWIDTH 15 0
BBX 13 29 1 0
BITMAP
0040
00F0
00E0
01C0
0180
0300
0200
0400
0000
3FF0
0000
0000
0000
0000
07C0
1860
2030
6018
4018
C018
FFF0
C000
C000
C000
E000
6000
7008
3830
0FC0
ENDCHAR
STARTCHAR 1E1C
ENCODING 7708
SWIDTH 500 0
DWIDTH 16 0
BBX 15 34 1 -7
BITMAP
2010
3020
1860
0780
0000
0000
0000
FFF0
3010
3010
3010
3000
3000
3000
3000
3000
3FE0
3040
3000
3000
3000
3000
3000
3004
3006
3004
FFFC
0100
0300
03C0
01C0
00C0
0180
0E00
ENDCHAR
STARTCHAR 1E1D
ENCODING 7709
SWIDTH 437 0
DWIDTH 14 0
BBX 12 29 1 -7
BITMAP
2010
3030
1860
0780
0000
0000
0000
0780
1840
2060
6030
4030
C030
FFE0
C000
C000
C000
E000
6000
7010
3820
0FC0
0200
0200
0780
0180
0180
0300
0C00
ENDCHAR
STARTCHAR 1E1E
ENCODING 7710
SWIDTH 468 0
DWIDTH 15 0
BBX 12 25 1 0
BITMAP
0600
0600
0E00
0600
0000
FFF0
3010
3010
3010
3000
3000
3000
3000
3000
3FC0
3080
3000
3000
3000
3000
3000
3000
3000
3000
FE00
ENDCHAR
STARTCHAR 1E1F
ENCODING 7711
SWIDTH 312 0
DWIDTH 10 0
BBX 11 29 1 0
BITMAP
0C00
0E00
0E00
0C00
0000
03E0
04C0
1800
1000
3000
3000
3000
3000
3000
FF00
3200
3000
3000
3000
3000
3000
3000
3000
3000
3000
3000
3000
3000
FE00
ENDCHAR
STARTCHAR 1E20
ENCODING 7712
SWIDTH 593 0
DWIDTH 19 0
BBX 18 25 1 0
BITMAP
0FFC00
000000
000000
000000
000000
01FE00
060F00
080000
100000
200000
600000
400000
C00000
C00000
C00000
C00000
C01FC0
C00700
C00300
600300
600300
300300
180300
0C0300
03FC00
ENDCHAR
STARTCHAR 1E21
ENCODING 7713
SWIDTH 500 0
DWIDTH 16 0
BBX 15 28 1 -8
BITMAP
3FF0
0000
0000
0000
0000
0786
18FC
2060
6030
6030
6030
6030
7060
3840
1F80
0800
1000
3C00
3FE0
0FF8
3FFC
707C
E00C
C00C
C008
6010
7020
1FC0
ENDCHAR
STARTCHAR 1E22
ENCODING 7714
SWIDTH 656 0
DWIDTH 21 0
BBX 19 25 1 0
BITMAP
00C000
01C000
01C000
00C000
000000
FC07E0
300180
300180
300180
300180
300180
300180
300180
300180
3FFF80
300180
300180
300180
300180
300180
300180
300180
300180
300180
FC07E0
ENDCHAR
STARTCHAR 1E23
ENCODING 7715
SWIDTH 562 0
DWIDTH 18 0
BBX 16 29 1 0
BITMAP
0180
0380
0380
0300
0000
1000
F000
3000
3000
3000
3000
3000
3000
3000
3070
3188
360C
380C
380C
300C
300C
300C
300C
300C
300C
300C
300C
300C
FC3F
ENDCHAR
STARTCHAR 1E24
ENCODING 7716
SWIDTH 656 0
DWIDTH 21 0
BBX 19 27 1 -7
BITMAP
FC07E0
300180
300180
300180
300180
300180
300180
300180
300180
3FFF80
300180
300180
300180
300180
300180
300180
300180
300180
300180
FC07E0
000000
000000
000000
00C000
01C000
01C000
00C000
ENDCHAR
STARTCHAR 1E25
ENCODING 7717
SWIDTH 562 0
DWIDTH 18 0
BBX 16 31 1 -7
BITMAP
1000
F000
3000
3000
3000
3000
3000
3000
3000
3070
3188
360C
380C
380C
300C
300C
300C
300C
300C
300C
300C
300C
300C
FC3F
0000
0000
0000
0180
0380
0380
0300
ENDCHAR
STARTCHAR 1E26
ENCODING 7718
SWIDTH 656 0
DWIDTH 21 0
BBX 19 25 1 0
BITMAP
060C00
0E1C00
0E1C00
060C00
000000
FC07E0
300180
300180
300180
300180
300180
300180
300180
300180
3FFF80
300180
300180
300180
300180
300180
300180
300180
300180
300180
FC07E0
ENDCHAR
STARTCHAR 1E27
ENCODING 7719
SWIDTH 562 0
DWIDTH 18 0
BBX 16 29 1 0
BITMAP
0C18
1C38
1C38
1830
0000
1000
F000
3000
3000
3000
3000
3000
3000
3000
3070
3188
360C
380C
380C
300C
300C
300C
300C
300C
300C
300C
300C
300C
FC3F
ENDCHAR
STARTCHAR 1E2E
ENCODING 7726
SWIDTH 312 0
DWIDTH 10 0
BBX 10 32 0 0
BITMAP
0180
03C0
0780
0E00
1800
2000
0000
C180
E1C0
E1C0
C180
0000
3F00
0C00
0C00
0C00
0C00
0C00
0C00
0C00
0C00
0C00
0C00
0C00
0C00
0C00
0C00
0C00
0C00
0C00
0C00
3F00
ENDCHAR
STARTCHAR 1E2F
ENCODING 7727
SWIDTH 281 0
DWIDTH 9 0
BBX 10 29 0 0
BITMAP
0300
0380
0700
0600
0C00
0800
1800
0000
C180
C180
E3C0
C180
0000
0000
1800
7800
1800
1800
1800
1800
1800
1800
1800
1800
1800
1800
1800
1800
7E00
ENDCHAR
STARTCHAR 1E30
ENCODING 7728
SWIDTH 593 0
DWIDTH 19 0
BBX 17 27 1 0
BITMAP
001000
003800
007800
01E000
038000
060000
000000
FC7F00
301800
303000
306000
30E000
31C000
318000
330000
360000
3E0000
360000
370000
338000
31C000
30E000
307000
307800
303C00
301E00
FC0F80
ENDCHAR
STARTCHAR 1E31
ENCODING 7729
SWIDTH 500 0
DWIDTH 16 0
BBX 15 31 1 0
BITMAP
0020
0078
00F0
01C0
0300
0400
0000
1000
F000
3000
3000
3000
3000
3000
3000
3000
30FC
3070
30E0
3180
3300
3600
3E00
3600
3700
3380
31C0
30E0
3070
3078
FC3E
ENDCHAR
STARTCHAR 1E32
ENCODING 7730
SWIDTH 593 0
DWIDTH 19 0
BBX 17 27 1 -7
BITMAP
FC7F00
301800
303000
306000
30E000
31C000
318000
330000
360000
3E0000
360000
370000
338000
31C000
30E000
307000
307800
303C00
301E00
FC0F80
000000
000000
000000
018000
01C000
018000
018000
ENDCHAR
STARTCHAR 1E33
ENCODING 7731
SWIDTH 500 0
DWIDTH 16 0
BBX 15 31 1 -7
BITMAP
1000
F000
3000
3000
3000
3000
3000
3000
3000
30FC
3070
30E0
3180
3300
3600
3E00
3600
3700
3380
31C0
30E0
3070
3078
FC3E
0000
0000
0000
0300
0300
0700
0300
ENDCHAR
STARTCHAR 1E34
ENCODING 7732
SWIDTH 593 0
DWIDTH 19 0
BBX 17 24 1 -4
BITMAP
FC7F00
301800
303000
306000
30E000
31C000
318000
330000
360000
3E0000
360000
370000
338000
31C000
30E000
307000
307800
303C00
301E00
FC0F80
000000
000000
000000
1FFC00
ENDCHAR
STARTCHAR 1E35
ENCODING 7733
SWIDTH 500 0
DWIDTH 16 0
BBX 15 28 1 -4
BITMAP
1000
F000
3000
3000
3000
3000
3000
3000
3000
30FC
3070
30E0
3180
3300
3600
3E00
3600
3700
3380
31C0
30E0
3070
3078
FC3E
0000
0000
0000
3FF8
ENDCHAR
STARTCHAR 1E36
ENCODING 7734
SWIDTH 468 0
DWIDTH 15 0
BBX 13 27 1 -7
BITMAP
FC00
3000
3000
3000
3000
3000
3000
3000
3000
3000
3000
3000
3000
3000
3000
3000
3008
3008
3018
FFF8
0000
0000
0000
0700
0700
0700
0600
ENDCHAR
STARTCHAR 1E37
ENCODING 7735
SWIDTH 281 0
DWIDTH 9 0
BBX 6 31 1 -7
BITMAP
10
F0
30
30
30
30
30
30
30
30
30
30
30
30
30
30
30
30
30
30
30
30
30
FC
00
00
00
30
30
78
30
ENDCHAR
STARTCHAR 1E38
ENCODING 7736
SWIDTH 468 0
DWIDTH 15 0
BBX 13 32 1 -7
BITMAP
7FF0
0000
0000
0000
0000
FC00
3000
3000
3000
3000
3000
3000
3000
3000
3000
3000
3000
3000
3000
3000
3000
3008
3008
3018
FFF8
0000
0000
0000
0700
0700
0700
0600
ENDCHAR
STARTCHAR 1E39
ENCODING 7737
SWIDTH 281 0
DWIDTH 9 0
BBX 11 37 -1 -7
BITMAP
7FE0
8000
0000
0000
0000
0000
0400
3C00
0C00
0C00
0C00
0C00
0C00
0C00
0C00
0C00
0C00
0C00
0C00
0C00
0C00
0C00
0C00
0C00
0C00
0C00
0C00
0C00
0C00
3F00
0000
0000
0000
0C00
0C00
1E00
0C00
ENDCHAR
STARTCHAR 1E3A
ENCODING 7738
SWIDTH 468 0
DWIDTH 15 0
BBX 13 24 1 -4
BITMAP
FC00
3000
3000
3000
3000
3000
3000
3000
3000
3000
3000
3000
3000
3000
3000
3000
3008
3008
3018
FFF8
0000
0000
0000
7FF0
ENDCHAR
STARTCHAR 1E3B
ENCODING 7739
SWIDTH 281 0
DWIDTH 9 0
BBX 11 28 -1 -4
BITMAP
0400
3C00
0C00
0C00
0C00
0C00
0C00
0C00
0C00
0C00
0C00
0C00
0C00
0C00
0C00
0C00
0C00
0C00
0C00
0C00
0C00
0C00
0C00
3F00
0000
0000
0000
FFE0
ENDCHAR
STARTCHAR 1E3E
ENCODING 7742
SWIDTH 812 0
DWIDTH 26 0
BBX 24 27 1 0
BITMAP
000300
000780
000F00
001C00
003000
006000
000000
F8003E
3C0038
3C0078
3E0078
3600D8
3600D8
370098
330198
338198
318318
31C318
31C618
30C618
30E618
306C18
307C18
303818
303818
303818
FC10FF
ENDCHAR
STARTCHAR 1E3F
ENCODING 7743
SWIDTH 812 0
DWIDTH 26 0
BBX 24 23 1 0
BITMAP
000300
000780
000600
000E00
000C00
001800
001000
002000
F0F078
33198C
341A0C
381C0C
381C0C
30180C
30180C
30180C
30180C
30180C
30180C
30180C
30180C
30180C
FC7E3F
ENDCHAR
STARTCHAR 1E40
ENCODING 7744
SWIDTH 812 0
DWIDTH 26 0
BBX 24 25 1 0
BITMAP
003000
003800
003800
003000
000000
F8003E
3C0038
3C0078
3E0078
3600D8
3600D8
370098
330198
338198
318318
31C318
31C618
30C618
30E618
306C18
307C18
303818
303818
303818
FC10FF
ENDCHAR
STARTCHAR 1E41
ENCODING 7745
SWIDTH 812 0
DWIDTH 26 0
BBX 24 21 1 0
BITMAP
001800
003800
003800
003000
000000
000000
F0F078
33198C
341A0C
381C0C
381C0C
30180C
30180C
30180C
30180C
30180C
30180C
30180C
30180C
30180C
FC7E3F
ENDCHAR
STARTCHAR 1E42
ENCODING 7746
SWIDTH 812 0
DWIDTH 26 0
BBX 24 27 1 -7
BITMAP
F8003E
3C0038
3C0078
3E0078
3600D8
3600D8
370098
330198
338198
318318
31C318
31C618
30C618
30E618
306C18
307C18
303818
303818
303818
FC10FF
000000
000000
000000
003000
003800
003800
003000
ENDCHAR
STARTCHAR 1E43
ENCODING 7747
SWIDTH 812 0
DWIDTH 26 0
BBX 24 22 1 -7
BITMAP
F0F078
33198C
341A0C
381C0C
381C0C
30180C
30180C
30180C
30180C
30180C
30180C
30180C
30180C
30180C
FC7E3F
000000
000000
000000
001800
003800
003800
003000
ENDCHAR
STARTCHAR 1E44
ENCODING 7748
SWIDTH 656 0
DWIDTH 21 0
BBX 19 25 1 0
BITMAP
00C000
00C000
01C000
00C000
000000
F007E0
380180
3C0180
3C0180
3E0180
370180
338180
338180
31C180
30E180
306180
307180
303980
301D80
300D80
300F80
300780
300380
300380
FC0180
ENDCHAR
STARTCHAR 1E45
ENCODING 7749
SWIDTH 562 0
DWIDTH 18 0
BBX 16 21 1 0
BITMAP
0180
0380
0380
0300
0000
0000
7070
B188
360C
380C
380C
300C
300C
300C
300C
300C
300C
300C
300C
300C
FC3F
ENDCHAR
STARTCHAR 1E46
ENCODING 7750
SWIDTH 656 0
DWIDTH 21 0
BBX 19 27 1 -7
BITMAP
F007E0
380180
3C0180
3C0180
3E0180
370180
338180
338180
31C180
30E180
306180
307180
303980
301D80
300D80
300F80
300780
300380
300380
FC0180
000000
000000
000000
00C000
00C000
01C000
00C000
ENDCHAR
STARTCHAR 1E47
ENCODING 7751
SWIDTH 562 0
DWIDTH 18 0
BBX 16 22 1 -7
BITMAP
7070
B188
360C
380C
380C
300C
300C
300C
300C
300C
300C
300C
300C
300C
FC3F
0000
0000
0000
0180
0380
0380
0300
ENDCHAR
STARTCHAR 1E48
ENCODING 7752
SWIDTH 656 0
DWIDTH 21 0
BBX 19 24 1 -4
BITMAP
F007E0
380180
3C0180
3C0180
3E0180
370180
338180
338180
31C180
30E180
306180
307180
303980
301D80
300D80
300F80
300780
300380
300380
FC0180
000000
000000
000000
0FFE00
ENDCHAR
STARTCHAR 1E49
ENCODING 7753
SWIDTH 562 0
DWIDTH 18 0
BBX 16 19 1 -4
BITMAP
7070
B188
360C
380C
380C
300C
300C
300C
300C
300C
300C
300C
300C
300C
FC3F
0000
0000
0000
1FF8
ENDCHAR
STARTCHAR 1E4C
ENCODING 7756
SWIDTH 593 0
DWIDTH 19 0
BBX 17 32 1 0
BITMAP
001800
003C00
007800
00E000
018000
020000
030400
07CC00
08F800
107000
000000
000000
03F000
0C1800
100C00
300600
200300
600300
400380
C00180
C00180
C00180
C00180
C00180
C00180
E00100
600300
600200
300600
380400
0C1800
07E000
ENDCHAR
STARTCHAR 1E4D
ENCODING 7757
SWIDTH 500 0
DWIDTH 16 0
BBX 14 29 1 0
BITMAP
0040
0070
00E0
00C0
0180
0100
0200
0000
0E08
1F90
11E0
2000
0000
0000
07C0
1870
2038
6018
401C
C00C
C00C
C00C
C00C
C00C
E008
6018
7010
3820
0FC0
ENDCHAR
STARTCHAR 1E4E
ENCODING 7758
SWIDTH 593 0
DWIDTH 19 0
BBX 17 30 1 0
BITMAP
0C1800
0E1C00
0E1C00
0C1800
030400
07CC00
08F800
107000
000000
000000
03F000
0C1800
100C00
300600
200300
600300
400380
C00180
C00180
C00180
C00180
C00180
C00180
E00100
600300
600200
300600
380400
0C1800
07E000
ENDCHAR
STARTCHAR 1E4F
ENCODING 7759
SWIDTH 500 0
DWIDTH 16 0
BBX 14 27 1 0
BITMAP
1020
1830
3870
3870
0000
0000
0E08
1F90
11E0
2000
0000
0000
07C0
1870
2038
6018
401C
C00C
C00C
C00C
C00C
C00C
E008
6018
7010
3820
0FC0
ENDCHAR
STARTCHAR 1E50
ENCODING 7760
SWIDTH 593 0
DWIDTH 19 0
BBX 17 32 1 0
BITMAP
0C0000
1E0000
0F0000
038000
00E000
002000
000000
0FFC00
100000
000000
000000
000000
03F000
0C1800
100C00
300600
200300
600300
400380
C00180
C00180
C00180
C00180
C00180
C00180
E00100
600300
600200
300600
380400
0C1800
07E000
ENDCHAR
STARTCHAR 1E51
ENCODING 7761
SWIDTH 500 0
DWIDTH 16 0
BBX 14 29 1 0
BITMAP
0800
1C00
0E00
0600
0300
0100
0180
0000
0000
3FF8
0000
0000
0000
0000
07C0
1870
2038
6018
401C
C00C
C00C
C00C
C00C
C00C
E008
6018
7010
3820
0FC0
ENDCHAR
STARTCHAR 1E52
ENCODING 7762
SWIDTH 593 0
DWIDTH 19 0
BBX 17 32 1 0
BITMAP
001800
003C00
007800
00E000
018000
020000
000000
0FFC00
100000
000000
000000
000000
03F000
0C1800
100C00
300600
200300
600300
400380
C00180
C00180
C00180
C00180
C00180
C00180
E00100
600300
600200
300600
380400
0C1800
07E000
ENDCHAR
STARTCHAR 1E53
ENCODING 7763
SWIDTH 500 0
DWIDTH 16 0
BBX 14 29 1 0
BITMAP
0040
0070
00E0
00C0
0180
0100
0200
0000
0000
3FF8
0000
0000
0000
0000
07C0
1870
2038
6018
401C
C00C
C00C
C00C
C00C
C00C
E008
6018
7010
3820
0FC0
ENDCHAR
STARTCHAR 1E54
ENCODING 7764
SWIDTH 531 0
DWIDTH 17 0
BBX 15 27 1 0
BITMAP
0020
0070
01E0
0380
0700
0C00
0000
3FE0
F038
301C
300E
3006
3006
3006
3006
300C
300C
3438
33E0
3000
3000
3000
3000
3000
3000
3000
FE00
ENDCHAR
STARTCHAR 1E55
ENCODING 7765
SWIDTH 531 0
DWIDTH 17 0
BBX 15 31 1 -8
BITMAP
0070
0070
00E0
01C0
0180
0300
0200
0000
70F0
B318
341C
380C
300E
3006
3006
3006
3006
3006
3004
300C
3008
3C10
37E0
3000
3000
3000
3000
3000
3000
3000
FE00
ENDCHAR
STARTCHAR 1E56
ENCODING 7766
SWIDTH 531 0
DWIDTH 17 0
BBX 15 25 1 0
BITMAP
0300
0700
0700
0600
0000
3FE0
F038
301C
300E
3006
3006
3006
3006
300C
300C
3438
33E0
3000
3000
3000
3000
3000
3000
3000
FE00
ENDCHAR
STARTCHAR 1E57
ENCODING 7767
SWIDTH 531 0
DWIDTH 17 0
BBX 15 29 1 -8
BITMAP
0300
0700
0700
0300
0000
0000
70F0
B318
341C
380C
300E
3006
3006
3006
3006
3006
3004
300C
3008
3C10
37E0
3000
3000
3000
3000
3000
3000
3000
FE00
ENDCHAR
STARTCHAR 1E58
ENCODING 7768
SWIDTH 562 0
DWIDTH 18 0
BBX 18 25 1 0
BITMAP
030000
070000
070000
070000
000000
3FC000
F07000
301800
300C00
300C00
300C00
300C00
301800
307000
3FE000
3FC000
31C000
30E000
307000
307000
303800
303C00
301C00
300F00
FC0FC0
ENDCHAR
STARTCHAR 1E59
ENCODING 7769
SWIDTH 406 0
DWIDTH 13 0
BBX 11 21 1 0
BITMAP
0600
0E00
0E00
0C00
0000
0000
31E0
F3E0
3440
3840
3800
3000
3000
3000
3000
3000
3000
3000
3000
3000
FE00
ENDCHAR
STARTCHAR 1E5A
ENCODING 7770
SWIDTH 562 0
DWIDTH 18 0
BBX 18 27 1 -7
BITMAP
3FC000
F07000
301800
300C00
300C00
300C00
300C00
301800
307000
3FE000
3FC000
31C000
30E000
307000
307000
303800
303C00
301C00
300F00
FC0FC0
000000
000000
000000
030000
070000
070000
070000
ENDCHAR
STARTCHAR 1E5B
ENCODING 7771
SWIDTH 406 0
DWIDTH 13 0
BBX 11 22 1 -7
BITMAP
31E0
F3E0
3440
3840
3800
3000
3000
3000
3000
3000
3000
3000
3000
3000
FE00
0000
0000
0000
3000
7000
7000
3000
ENDCHAR
STARTCHAR 1E5C
ENCODING 7772
SWIDTH 562 0
DWIDTH 18 0
BBX 18 32 1 -7
BITMAP
3FF800
000000
000000
000000
000000
3FC000
F07000
301800
300C00
300C00
300C00
300C00
301800
307000
3FE000
3FC000
31C000
30E000
307000
307000
303800
303C00
301C00
300F00
FC0FC0
000000
000000
000000
030000
070000
070000
070000
ENDCHAR
STARTCHAR 1E5D
ENCODING 7773
SWIDTH 406 0
DWIDTH 13 0
BBX 11 27 1 -7
BITMAP
7FE0
0000
0000
0000
0000
31E0
F3E0
3440
3840
3800
3000
3000
3000
3000
3000
3000
3000
3000
3000
FE00
0000
0000
0000
3000
7000
7000
3000
ENDCHAR
STARTCHAR 1E5E
ENCODING 7774
SWIDTH 562 0
DWIDTH 18 0
BBX 18 24 1 -4
BITMAP
3FC000
F07000
301800
300C00
300C00
300C00
300C00
301800
307000
3FE000
3FC000
31C000
30E000
307000
307000
303800
303C00
301C00
300F00
FC0FC0
000000
000000
000000
3FF000
ENDCHAR
STARTCHAR 1E5F
ENCODING 7775
SWIDTH 406 0
DWIDTH 13 0
BBX 13 19 -1 -4
BITMAP
0C78
3CF8
0D10
0E10
0E00
0C00
0C00
0C00
0C00
0C00
0C00
0C00
0C00
0C00
3F80
0000
0000
0000
FFE0
ENDCHAR
STARTCHAR 1E60
ENCODING 7776
SWIDTH 468 0
DWIDTH 15 0
BBX 12 25 2 0
BITMAP
0600
0E00
0E00
0C00
0000
0FE0
30E0
4040
C000
C000
E000
F800
7E00
7F00
1FC0
07E0
01F0
00F0
0070
0030
0030
8020
C060
E0C0
7F00
ENDCHAR
STARTCHAR 1E61
ENCODING 7777
SWIDTH 375 0
DWIDTH 12 0
BBX 9 21 2 0
BITMAP
1800
3800
3800
3800
0000
0000
3F00
4300
C100
C000
E000
F800
7E00
3F00
0F80
0380
0180
8180
8100
C300
FC00
ENDCHAR
STARTCHAR 1E62
ENCODING 7778
SWIDTH 468 0
DWIDTH 15 0
BBX 12 27 2 -7
BITMAP
0FE0
30E0
4040
C000
C000
E000
F800
7E00
7F00
1FC0
07E0
01F0
00F0
0070
0030
0030
8020
C060
E0C0
7F00
0000
0000
0000
0600
0E00
0E00
0C00
ENDCHAR
STARTCHAR 1E63
ENCODING 7779
SWIDTH 375 0
DWIDTH 12 0
BBX 9 22 2 -7
BITMAP
3F00
4300
C100
C000
E000
F800
7E00
3F00
0F80
0380
0180
8180
8100
C300
FC00
0000
0000
0000
1800
3800
3800
3800
ENDCHAR
STARTCHAR 1E64
ENCODING 7780
SWIDTH 468 0
DWIDTH 15 0
BBX 12 30 2 0
BITMAP
0600
0E00
0E00
0CC0
01E0
03C0
0700
0C00
1800
0000
0FE0
30E0
4040
C000
C000
E000
F800
7E00
7F00
1FC0
07E0
01F0
00F0
0070
0030
0030
8020
C060
E0C0
7F00
ENDCHAR
STARTCHAR 1E65
ENCODING 7781
SWIDTH 375 0
DWIDTH 12 0
BBX 9 27 2 0
BITMAP
1000
3800
3800
3800
0380
0700
0700
0E00
0C00
1800
1000
0000
3F00
4300
C100
C000
E000
F800
7E00
3F00
0F80
0380
0180
8180
8100
C300
FC00
ENDCHAR
STARTCHAR 1E66
ENCODING 7782
SWIDTH 468 0
DWIDTH 15 0
BBX 12 30 2 0
BITMAP
0600
0E00
0E00
4C60
30C0
1980
0F00
0600
0000
0000
0FE0
30E0
4040
C000
C000
E000
F800
7E00
7F00
1FC0
07E0
01F0
00F0
0070
0030
0030
8020
C060
E0C0
7F00
ENDCHAR
STARTCHAR 1E67
ENCODING 7783
SWIDTH 375 0
DWIDTH 12 0
BBX 10 26 1 0
BITMAP
0C00
1C00
1C00
DC40
60C0
3180
3B00
1E00
0C00
0000
0000
1F80
2180
6080
6000
7000
7C00
3F00
1F80
07C0
01C0
00C0
40C0
4080
6180
7E00
ENDCHAR
STARTCHAR 1E68
ENCODING 7784
SWIDTH 468 0
DWIDTH 15 0
BBX 12 32 2 -7
BITMAP
0600
0E00
0E00
0C00
0000
0FE0
30E0
4040
C000
C000
E000
F800
7E00
7F00
1FC0
07E0
01F0
00F0
0070
0030
0030
8020
C060
E0C0
7F00
0000
0000
0000
0600
0E00
0E00
0C00
ENDCHAR
STARTCHAR 1E69
ENCODING 7785
SWIDTH 375 0
DWIDTH 12 0
BBX 9 28 2 -7
BITMAP
1800
3800
3800
3800
0000
0000
3F00
4300
C100
C000
E000
F800
7E00
3F00
0F80
0380
0180
8180
8100
C300
FC00
0000
0000
0000
1800
3800
3800
3800
ENDCHAR
STARTCHAR 1E6A
ENCODING 7786
SWIDTH 562 0
DWIDTH 18 0
BBX 16 25 1 0
BITMAP
0300
0380
0300
0300
0000
FFFF
8183
8181
8181
0180
0180
0180
0180
0180
0180
0180
0180
0180
0180
0180
0180
0180
0180
0180
0FF0
ENDCHAR
STARTCHAR 1E6B
ENCODING 7787
SWIDTH 343 0
DWIDTH 11 0
BBX 10 25 1 0
BITMAP
1800
1800
3800
1800
0000
1000
3000
3000
3000
3000
FFC0
3100
3000
3000
3000
3000
3000
3000
3000
3000
3000
3000
3000
3080
1F40
ENDCHAR
STARTCHAR 1E6C
ENCODING 7788
SWIDTH 562 0
DWIDTH 18 0
BBX 16 27 1 -7
BITMAP
FFFF
8183
8181
8181
0180
0180
0180
0180
0180
0180
0180
0180
0180
0180
0180
0180
0180
0180
0180
0FF0
0000
0000
0000
0300
0380
0300
0300
ENDCHAR
STARTCHAR 1E6D
ENCODING 7789
SWIDTH 343 0
DWIDTH 11 0
BBX 10 27 1 -7
BITMAP
1000
3000
3000
3000
3000
FFC0
3100
3000
3000
3000
3000
3000
3000
3000
3000
3000
3000
3000
3080
1F40
0000
0000
0000
1800
1800
3800
1800
ENDCHAR
STARTCHAR 1E6E
ENCODING 7790
SWIDTH 562 0
DWIDTH 18 0
BBX 16 24 1 -4
BITMAP
FFFF
8183
8181
8181
0180
0180
0180
0180
0180
0180
0180
0180
0180
0180
0180
0180
0180
0180
0180
0FF0
0000
0000
0000
3FF8
ENDCHAR
STARTCHAR 1E6F
ENCODING 7791
SWIDTH 343 0
DWIDTH 11 0
BBX 11 24 0 -4
BITMAP
0800
1800
1800
1800
1800
7FE0
1880
1800
1800
1800
1800
1800
1800
1800
1800
1800
1800
1800
1840
0FA0
0000
0000
0000
FFE0
ENDCHAR
STARTCHAR 1E78
ENCODING 7800
SWIDTH 656 0
DWIDTH 21 0
BBX 19 32 1 0
BITMAP
000C00
001E00
003C00
007000
00C000
010000
018400
07E600
047C00
083800
000000
000000
FC07E0
300180
300180
300180
300180
300180
300180
300180
300180
300180
300180
300180
300180
300180
300180
300100
180300
1C0600
0E0C00
03F000
ENDCHAR
STARTCHAR 1E79
ENCODING 7801
SWIDTH 531 0
DWIDTH 17 0
BBX 15 29 1 0
BITMAP
0020
0070
00E0
00C0
0180
0180
0300
0000
0E08
1F90
11E0
2000
0000
0000
3018
F078
3018
3018
3018
3018
3018
3018
3018
3018
3018
3018
3038
18DE
0F18
ENDCHAR
STARTCHAR 1E7A
ENCODING 7802
SWIDTH 656 0
DWIDTH 21 0
BBX 19 30 1 0
BITMAP
060C00
070E00
070E00
060C00
000000
07FE00
080000
000000
000000
000000
FC07E0
300180
300180
300180
300180
300180
300180
300180
300180
300180
300180
300180
300180
300180
300180
300100
180300
1C0600
0E0C00
03F000
ENDCHAR
STARTCHAR 1E7B
ENCODING 7803
SWIDTH 531 0
DWIDTH 17 0
BBX 15 27 1 0
BITMAP
0810
1C38
1C38
1830
0000
0000
0000
1FF8
2000
0000
0000
0000
3018
F078
3018
3018
3018
3018
3018
3018
3018
3018
3018
3018
3038
18DE
0F18
ENDCHAR
STARTCHAR 1E7C
ENCODING 7804
SWIDTH 656 0
DWIDTH 21 0
BBX 20 26 0 0
BITMAP
01C200
03F300
023E00
041C00
000000
000000
FE03F0
3800C0
180080
1C0180
0C0180
0E0300
0E0300
060300
070600
070600
030600
038C00
018C00
01CC00
01D800
00D800
00F800
00F000
007000
006000
ENDCHAR
STARTCHAR 1E7D
ENCODING 7805
SWIDTH 500 0
DWIDTH 16 0
BBX 15 21 0 0
BITMAP
0704
0FC8
08F0
1000
0000
0000
FC3E
380C
3808
1818
1C18
0C10
0C30
0E30
0620
0760
0740
0340
03C0
0180
0100
ENDCHAR
STARTCHAR 1E7E
ENCODING 7806
SWIDTH 656 0
DWIDTH 21 0
BBX 20 27 0 -7
BITMAP
FE03F0
3800C0
180080
1C0180
0C0180
0E0300
0E0300
060300
070600
070600
030600
038C00
018C00
01CC00
01D800
00D800
00F800
00F000
007000
006000
000000
000000
000000
006000
00E000
00E000
006000
ENDCHAR
STARTCHAR 1E7F
ENCODING 7807
SWIDTH 500 0
DWIDTH 16 0
BBX 15 22 0 -7
BITMAP
FC3E
380C
3808
1818
1C18
0C10
0C30
0E30
0620
0760
0740
0340
03C0
0180
0100
0000
0000
0000
0180
0380
0380
0300
ENDCHAR
STARTCHAR 1E80
ENCODING 7808
SWIDTH 843 0
DWIDTH 27 0
BBX 27 27 0 0
BITMAP
00600000
00F00000
00780000
001C0000
00060000
00010000
00000000
FE040FE0
38040300
180E0300
180E0300
1C0F0300
1C1B0200
0C1B0600
0C1B8600
0C318600
0E318600
0E31C400
0660CC00
0660CC00
0760EC00
07C06C00
03C07800
03C07800
03803800
03803800
03003000
ENDCHAR
STARTCHAR 1E81
ENCODING 7809
SWIDTH 718 0
DWIDTH 23 0
BBX 22 23 0 0
BITMAP
01C000
00E000
00E000
007000
003000
001800
000C00
000000
FC107C
301818
383810
183830
183C30
1C6C30
0C6E20
0C4E60
0CC660
0EC740
068340
0783C0
0783C0
030180
020100
ENDCHAR
STARTCHAR 1E82
ENCODING 7810
SWIDTH 843 0
DWIDTH 27 0
BBX 27 27 0 0
BITMAP
0000C000
0001E000
0003C000
00070000
000C0000
00100000
00000000
FE040FE0
38040300
180E0300
180E0300
1C0F0300
1C1B0200
0C1B0600
0C1B8600
0C318600
0E318600
0E31C400
0660CC00
0660CC00
0760EC00
07C06C00
03C07800
03C07800
03803800
03803800
03003000
ENDCHAR
STARTCHAR 1E83
ENCODING 7811
SWIDTH 718 0
DWIDTH 23 0
BBX 22 23 0 0
BITMAP
000300
000700
000E00
000C00
001800
001000
003000
000000
FC107C
301818
383810
183830
183C30
1C6C30
0C6E20
0C4E60
0CC660
0EC740
068340
0783C0
0783C0
030180
020100
ENDCHAR
STARTCHAR 1E84
ENCODING 7812
SWIDTH 843 0
DWIDTH 27 0
BBX 27 25 0 0
BITMAP
0060C000
0060C000
00F1E000
0060C000
00000000
FE040FE0
38040300
180E0300
180E0300
1C0F0300
1C1B0200
0C1B0600
0C1B8600
0C318600
0E318600
0E31C400
0660CC00
0660CC00
0760EC00
07C06C00
03C07800
03C07800
03803800
03803800
03003000
ENDCHAR
STARTCHAR 1E85
ENCODING 7813
SWIDTH 718 0
DWIDTH 23 0
BBX 22 21 0 0
BITMAP
018300
01C380
01C380
018300
000000
000000
FC107C
301818
383810
183830
183C30
1C6C30
0C6E20
0C4E60
0CC660
0EC740
068340
0783C0
0783C0
030180
020100
ENDCHAR
STARTCHAR 1E86
ENCODING 7814
SWIDTH 843 0
DWIDTH 27 0
BBX 27 25 0 0
BITMAP
000C0000
000C0000
001E0000
000C0000
00000000
FE040FE0
38040300
180E0300
180E0300
1C0F0300
1C1B0200
0C1B0600
0C1B8600
0C318600
0E318600
0E31C400
0660CC00
0660CC00
0760EC00
07C06C00
03C07800
03C07800
03803800
03803800
03003000
ENDCHAR
STARTCHAR 1E87
ENCODING 7815
SWIDTH 718 0
DWIDTH 23 0
BBX 22 21 0 0
BITMAP
003000
003800
003800
003000
000000
000000
FC107C
301818
383810
183830
183C30
1C6C30
0C6E20
0C4E60
0CC660
0EC740
068340
0783C0
0783C0
030180
020100
ENDCHAR
STARTCHAR 1E88
ENCODING 7816
SWIDTH 843 0
DWIDTH 27 0
BBX 27 27 0 -7
BITMAP
FE040FE0
38040300
180E0300
180E0300
1C0F0300
1C1B0200
0C1B0600
0C1B8600
0C318600
0E318600
0E31C400
0660CC00
0660CC00
0760EC00
07C06C00
03C07800
03C07800
03803800
03803800
03003000
00000000
00000000
00000000
000C0000
000C0000
001E0000
000C0000
ENDCHAR
STARTCHAR 1E89
ENCODING 7817
SWIDTH 718 0
DWIDTH 23 0
BBX 22 22 0 -7
BITMAP
FC107C
301818
383810
183830
183C30
1C6C30
0C6E20
0C4E60
0CC660
0EC740
068340
0783C0
0783C0
030180
020100
000000
000000
000000
003000
003000
007000
003000
ENDCHAR
STARTCHAR 1E8A
ENCODING 7818
SWIDTH 625 0
DWIDTH 20 0
BBX 19 25 0 0
BITMAP
006000
00E000
00E000
00C000
000000
7F1FC0
3C0700
1C0600
0E0600
070C00
071C00
039800
01F000
01F000
00E000
00F000
01F000
01B800
031C00
070C00
060E00
0C0700
1C0380
3803C0
FF0FE0
ENDCHAR
STARTCHAR 1E8B
ENCODING 7819
SWIDTH 500 0
DWIDTH 16 0
BBX 16 21 0 0
BITMAP
0180
0380
0380
0300
0000
0000
FE3F
3C1C
1C10
0E30
0660
07C0
03C0
01C0
03C0
06E0
0C70
0C38
1818
381C
FC3F
ENDCHAR
STARTCHAR 1E8C
ENCODING 7820
SWIDTH 625 0
DWIDTH 20 0
BBX 19 25 0 0
BITMAP
030600
070E00
070E00
060C00
000000
7F1FC0
3C0700
1C0600
0E0600
070C00
071C00
039800
01F000
01F000
00E000
00F000
01F000
01B800
031C00
070C00
060E00
0C0700
1C0380
3803C0
FF0FE0
ENDCHAR
STARTCHAR 1E8D
ENCODING 7821
SWIDTH 500 0
DWIDTH 16 0
BBX 16 21 0 0
BITMAP
0C18
1C38
1C38
1830
0000
0000
FE3F
3C1C
1C10
0E30
0660
07C0
03C0
01C0
03C0
06E0
0C70
0C38
1818
381C
FC3F
ENDCHAR
STARTCHAR 1E8E
ENCODING 7822
SWIDTH 593 0
DWIDTH 19 0
BBX 18 25 0 0
BITMAP
00C000
00C000
01C000
00C000
000000
F01FC0
380700
1C0600
0C0C00
0E0C00
071800
071800
033000
03B000
01E000
01E000
00C000
00C000
00C000
00C000
00C000
00C000
00C000
00C000
07F800
ENDCHAR
STARTCHAR 1E8F
ENCODING 7823
SWIDTH 500 0
DWIDTH 16 0
BBX 16 29 -1 -8
BITMAP
00C0
01C0
01C0
00C0
0000
0000
7E1F
1C06
1C04
0C0C
0E0C
0E08
0618
0718
0310
0330
03B0
01A0
01E0
01E0
00C0
00C0
0080
0180
0180
0300
7E00
7C00
F800
ENDCHAR
STARTCHAR 1E90
ENCODING 7824
SWIDTH 531 0
DWIDTH 17 0
BBX 14 27 1 0
BITMAP
0380
03C0
07C0
0E60
1830
1018
0000
7FFC
601C
4038
4078
0070
00E0
00E0
01C0
03C0
0380
0700
0700
0E00
1E00
1C00
3800
3804
7004
F00C
FFFC
ENDCHAR
STARTCHAR 1E91
ENCODING 7825
SWIDTH 437 0
DWIDTH 14 0
BBX 12 23 1 0
BITMAP
0700
0700
0F80
1DC0
18C0
3060
2020
0000
7FF0
4060
40E0
01C0
0180
0380
0700
0600
0E00
1C00
1C00
3810
7010
7030
FFF0
ENDCHAR
STARTCHAR 1E92
ENCODING 7826
SWIDTH 531 0
DWIDTH 17 0
BBX 14 27 1 -7
BITMAP
7FFC
601C
4038
4078
0070
00E0
00E0
01C0
03C0
0380
0700
0700
0E00
1E00
1C00
3800
3804
7004
F00C
FFFC
0000
0000
0000
0300
0300
0700
0300
ENDCHAR
STARTCHAR 1E93
ENCODING 7827
SWIDTH 437 0
DWIDTH 14 0
BBX 12 22 1 -7
BITMAP
7FF0
4060
40E0
01C0
0180
0380
0700
0600
0E00
1C00
1C00
3810
7010
7030
FFF0
0000
0000
0000
0600
0E00
0E00
0C00
ENDCHAR
STARTCHAR 1E94
ENCODING 7828
SWIDTH 531 0
DWIDTH 17 0
BBX 14 24 1 -4
BITMAP
7FFC
601C
4038
4078
0070
00E0
00E0
01C0
03C0
0380
0700
0700
0E00
1E00
1C00
3800
3804
7004
F00C
FFFC
0000
0000
0000
3FF8
ENDCHAR
STARTCHAR 1E95
ENCODING 7829
SWIDTH 437 0
DWIDTH 14 0
BBX 12 19 1 -4
BITMAP
7FF0
4060
40E0
01C0
0180
0380
0700
0600
0E00
1C00
1C00
3810
7010
7030
FFF0
0000
0000
0000
7FE0
ENDCHAR
STARTCHAR 1E96
ENCODING 7830
SWIDTH 562 0
DWIDTH 18 0
BBX 16 28 1 -4
BITMAP
1000
F000
3000
3000
3000
3000
3000
3000
3000
3070
3188
360C
380C
380C
300C
300C
300C
300C
300C
300C
300C
300C
300C
FC3F
0000
0000
0000
1FF8
ENDCHAR
STARTCHAR 1E97
ENCODING 7831
SWIDTH 343 0
DWIDTH 11 0
BBX 11 25 0 0
BITMAP
60C0
60C0
E1C0
60C0
0000
0800
1800
1800
1800
1800
7FE0
1880
1800
1800
1800
1800
1800
1800
1800
1800
1800
1800
1800
1840
0FA0
ENDCHAR
STARTCHAR 1E98
ENCODING 7832
SWIDTH 718 0
DWIDTH 23 0
BBX 22 22 0 0
BITMAP
001C00
006E00
006600
006600
006C00
003800
000000
FC107C
301818
383810
183830
183C30
1C6C30
0C6E20
0C4E60
0CC660
0EC740
068340
0783C0
0783C0
030180
020100
ENDCHAR
STARTCHAR 1E99
ENCODING 7833
SWIDTH 500 0
DWIDTH 16 0
BBX 16 30 -1 -8
BITMAP
00E0
01B0
0330
0330
03B0
01E0
0000
7E1F
1C06
1C04
0C0C
0E0C
0E08
0618
0718
0310
0330
03B0
01A0
01E0
01E0
00C0
00C0
0080
0180
0180
0300
7E00
7C00
F800
ENDCHAR
STARTCHAR 1EA0
ENCODING 7840
SWIDTH 593 0
DWIDTH 19 0
BBX 19 27 0 -7
BITMAP
004000
00E000
00E000
01E000
01F000
01B000
033000
033800
031800
061C00
061C00
060C00
0FFE00
0C0600
080600
180700
180300
100300
300380
FE0FE0
000000
000000
000000
00C000
00C000
01C000
00C000
ENDCHAR
STARTCHAR 1EA1
ENCODING 7841
SWIDTH 468 0
DWIDTH 15 0
BBX 13 22 1 -7
BITMAP
0FC0
30E0
7060
6060
0060
0060
0FE0
3FE0
7E60
F060
E060
C060
C060
41E0
3E78
0000
0000
0000
0600
0E00
0E00
0E00
ENDCHAR
STARTCHAR 1EA2
ENCODING 7842
SWIDTH 593 0
DWIDTH 19 0
BBX 19 28 0 0
BITMAP
00E000
016000
026000
00C000
018000
00C000
000000
000000
004000
00E000
00E000
01E000
01F000
01B000
033000
033800
031800
061C00
061C00
060C00
0FFE00
0C0600
080600
180700
180300
100300
300380
FE0FE0
ENDCHAR
STARTCHAR 1EA3
ENCODING 7843
SWIDTH 468 0
DWIDTH 15 0
BBX 13 23 1 0
BITMAP
0700
0B80
1300
0600
0C00
0600
0000
0000
0FC0
30E0
7060
6060
0060
0060
0FE0
3FE0
7E60
F060
E060
C060
C060
41E0
3E78
ENDCHAR
STARTCHAR 1EA4
ENCODING 7844
SWIDTH 593 0
DWIDTH 19 0
BBX 19 33 0 0
BITMAP
000C00
001E00
007800
00E000
01C000
010000
00E000
01E000
01F000
033800
060C00
0C0400
000000
004000
00E000
00E000
01E000
01F000
01B000
033000
033800
031800
061C00
061C00
060C00
0FFE00
0C0600
080600
180700
180300
100300
300380
FE0FE0
ENDCHAR
STARTCHAR 1EA5
ENCODING 7845
SWIDTH 468 0
DWIDTH 15 0
BBX 13 30 1 0
BITMAP
00E0
00E0
01C0
0180
0300
0600
0400
0700
0700
0F80
1DC0
18C0
3060
2020
0000
0FC0
30E0
7060
6060
0060
0060
0FE0
3FE0
7E60
F060
E060
C060
C060
41E0
3E78
ENDCHAR
STARTCHAR 1EA6
ENCODING 7846
SWIDTH 593 0
DWIDTH 19 0
BBX 19 33 0 0
BITMAP
060000
0F0000
038000
01C000
007000
001000
00E000
01E000
01F000
033800
060C00
0C0400
000000
004000
00E000
00E000
01E000
01F000
01B000
033000
033800
031800
061C00
061C00
060C00
0FFE00
0C0600
080600
180700
180300
100300
300380
FE0FE0
ENDCHAR
STARTCHAR 1EA7
ENCODING 7847
SWIDTH 468 0
DWIDTH 15 0
BBX 13 30 1 0
BITMAP
3800
3800
1C00
0E00
0600
0300
0100
0700
0700
0F80
1DC0
18C0
3060
2020
0000
0FC0
30E0
7060
6060
0060
0060
0FE0
3FE0
7E60
F060
E060
C060
C060
41E0
3E78
ENDCHAR
STARTCHAR 1EA8
ENCODING 7848
SWIDTH 593 0
DWIDTH 19 0
BBX 19 34 0 0
BITMAP
00E000
016000
026000
00C000
018000
00C000
000000
00E000
01E000
01F000
033800
060C00
0C0400
000000
004000
00E000
00E000
01E000
01F000
01B000
033000
033800
031800
061C00
061C00
060C00
0FFE00
0C0600
080600
180700
180300
100300
300380
FE0FE0
ENDCHAR
STARTCHAR 1EA9
ENCODING 7849
SWIDTH 468 0
DWIDTH 15 0
BBX 13 30 1 0
BITMAP
0700
0B80
1300
0600
0C00
0600
0000
0700
0700
0F80
1DC0
18C0
3060
2020
0000
0FC0
30E0
7060
6060
0060
0060
0FE0
3FE0
7E60
F060
E060
C060
C060
41E0
3E78
ENDCHAR
STARTCHAR 1EAA
ENCODING 7850
SWIDTH 593 0
DWIDTH 19 0
BBX 19 32 0 0
BITMAP
03C400
07EE00
0C7800
083000
000000
00E000
01E000
01F000
033800
060C00
0C0400
000000
004000
00E000
00E000
01E000
01F000
01B000
033000
033800
031800
061C00
061C00
060C00
0FFE00
0C0600
080600
180700
180300
100300
300380
FE0FE0
ENDCHAR
STARTCHAR 1EAB
ENCODING 7851
SWIDTH 468 0
DWIDTH 15 0
BBX 13 28 1 0
BITMAP
1C10
3F20
23C0
4000
0000
0700
0700
0F80
1DC0
18C0
3060
2020
0000
0FC0
30E0
7060
6060
0060
0060
0FE0
3FE0
7E60
F060
E060
C060
C060
41E0
3E78
ENDCHAR
STARTCHAR 1EAC
ENCODING 7852
SWIDTH 593 0
DWIDTH 19 0
BBX 19 34 0 -7
BITMAP
00E000
01E000
01F000
033800
060C00
0C0400
000000
004000
00E000
00E000
01E000
01F000
01B000
033000
033800
031800
061C00
061C00
060C00
0FFE00
0C0600
080600
180700
180300
100300
300380
FE0FE0
000000
000000
000000
00C000
00C000
01C000
00C000
ENDCHAR
STARTCHAR 1EAD
ENCODING 7853
SWIDTH 468 0
DWIDTH 15 0
BBX 13 30 1 -7
BITMAP
0700
0700
0F80
1DC0
18C0
3060
2020
0000
0FC0
30E0
7060
6060
0060
0060
0FE0
3FE0
7E60
F060
E060
C060
C060
41E0
3E78
0000
0000
0000
0600
0E00
0E00
0E00
ENDCHAR
STARTCHAR 1EAE
ENCODING 7854
SWIDTH 593 0
DWIDTH 19 0
BBX 19 32 0 0
BITMAP
000800
001E00
003C00
007000
01C000
090400
040400
021800
01F000
000000
000000
000000
004000
00E000
00E000
01E000
01F000
01B000
033000
033800
031800
061C00
061C00
060C00
0FFE00
0C0600
080600
180700
180300
100300
300380
FE0FE0
ENDCHAR
STARTCHAR 1EAF
ENCODING 7855
SWIDTH 468 0
DWIDTH 15 0
BBX 13 28 1 0
BITMAP
00E0
00E0
01C0
0180
0300
0200
4430
2020
18C0
0F80
0000
0000
0000
0FC0
30E0
7060
6060
0060
0060
0FE0
3FE0
7E60
F060
E060
C060
C060
41E0
3E78
ENDCHAR
STARTCHAR 1EB0
ENCODING 7856
SWIDTH 593 0
DWIDTH 19 0
BBX 19 32 0 0
BITMAP
060000
0F0000
078000
01C000
006000
081400
040400
021800
01F000
000000
000000
000000
004000
00E000
00E000
01E000
01F000
01B000
033000
033800
031800
061C00
061C00
060C00
0FFE00
0C0600
080600
180700
180300
100300
300380
FE0FE0
ENDCHAR
STARTCHAR 1EB1
ENCODING 7857
SWIDTH 468 0
DWIDTH 15 0
BBX 13 28 1 0
BITMAP
3800
3800
1C00
0E00
0600
0300
4130
2020
18C0
0F80
0000
0000
0000
0FC0
30E0
7060
6060
0060
0060
0FE0
3FE0
7E60
F060
E060
C060
C060
41E0
3E78
ENDCHAR
STARTCHAR 1EB2
ENCODING 7858
SWIDTH 593 0
DWIDTH 19 0
BBX 19 33 0 0
BITMAP
00E000
016000
026000
00C000
018000
00C000
080400
040400
021800
01F000
000000
000000
000000
004000
00E000
00E000
01E000
01F000
01B000
033000
033800
031800
061C00
061C00
060C00
0FFE00
0C0600
080600
180700
180300
100300
300380
FE0FE0
ENDCHAR
STARTCHAR 1EB3
ENCODING 7859
SWIDTH 468 0
DWIDTH 15 0
BBX 13 28 1 0
BITMAP
0700
0B80
1300
0600
0C00
0600
4030
2020
18C0
0F80
0000
0000
0000
0FC0
30E0
7060
6060
0060
0060
0FE0
3FE0
7E60
F060
E060
C060
C060
41E0
3E78
ENDCHAR
STARTCHAR 1EB4
ENCODING 7860
SWIDTH 593 0
DWIDTH 19 0
BBX 19 32 0 0
BITMAP
03C600
047800
080000
000000
000000
080400
040400
061800
01F000
000000
000000
000000
004000
00E000
00E000
01E000
01F000
01B000
033000
033800
031800
061C00
061C00
060C00
0FFE00
0C0600
080600
180700
180300
100300
300380
FE0FE0
ENDCHAR
STARTCHAR 1EB5
ENCODING 7861
SWIDTH 468 0
DWIDTH 15 0
BBX 13 26 1 0
BITMAP
1C10
3F20
23C0
4000
4030
2020
18C0
0F80
0000
0000
0000
0FC0
30E0
7060
6060
0060
0060
0FE0
3FE0
7E60
F060
E060
C060
C060
41E0
3E78
ENDCHAR
STARTCHAR 1EB6
ENCODING 7862
SWIDTH 593 0
DWIDTH 19 0
BBX 19 34 0 -7
BITMAP
080400
040400
021800
01F000
000000
000000
000000
004000
00E000
00E000
01E000
01F000
01B000
033000
033800
031800
061C00
061C00
060C00
0FFE00
0C0600
080600
180700
180300
100300
300380
FE0FE0
000000
000000
000000
00C000
00C000
01C000
00C000
ENDCHAR
STARTCHAR 1EB7
ENCODING 7863
SWIDTH 468 0
DWIDTH 15 0
BBX 13 29 1 -7
BITMAP
4030
2020
18C0
0F80
0000
0000
0000
0FC0
30E0
7060
6060
0060
0060
0FE0
3FE0
7E60
F060
E060
C060
C060
41E0
3E78
0000
0000
0000
0600
0E00
0E00
0E00
ENDCHAR
STARTCHAR 1EB8
ENCODING 7864
SWIDTH 500 0
DWIDTH 16 0
BBX 13 27 1 -7
BITMAP
FFF0
3010
3010
3010
3000
3000
3000
3000
3000
3FE0
3040
3000
3000
3000
3000
3000
3008
3008
3018
FFF8
0000
0000
0000
0300
0700
0700
0600
ENDCHAR
STARTCHAR 1EB9
ENCODING 7865
SWIDTH 468 0
DWIDTH 15 0
BBX 13 22 1 -7
BITMAP
07C0
1860
2030
6018
4018
C018
FFF0
C000
C000
C000
E000
6000
7008
3830
0FC0
0000
0000
0000
0300
0700
0700
0600
ENDCHAR
STARTCHAR 1EBA
ENCODING 7866
SWIDTH 500 0
DWIDTH 16 0
BBX 13 28 1 0
BITMAP
0700
0980
0980
0300
0600
0600
0100
0000
FFF0
3010
3010
3010
3000
3000
3000
3000
3000
3FE0
3040
3000
3000
3000
3000
3000
3008
3008
3018
FFF8
ENDCHAR
STARTCHAR 1EBB
ENCODING 7867
SWIDTH 468 0
DWIDTH 15 0
BBX 13 23 1 0
BITMAP
0380
0D80
0980
0300
0600
0600
0100
0000
07C0
1860
2030
6018
4018
C018
FFF0
C000
C000
C000
E000
6000
7008
3830
0FC0
ENDCHAR
STARTCHAR 1EBC
ENCODING 7868
SWIDTH 500 0
DWIDTH 16 0
BBX 13 26 1 0
BITMAP
0E10
1F30
23E0
21C0
0000
0000
FFF0
3010
3010
3010
3000
3000
3000
3000
3000
3FE0
3040
3000
3000
3000
3000
3000
3008
3008
3018
FFF8
ENDCHAR
STARTCHAR 1EBD
ENCODING 7869
SWIDTH 468 0
DWIDTH 15 0
BBX 13 21 1 0
BITMAP
0E10
1F20
31C0
2000
0000
0000
07C0
1860
2030
6018
4018
C018
FFF0
C000
C000
C000
E000
6000
7008
3830
0FC0
ENDCHAR
STARTCHAR 1EBE
ENCODING 7870
SWIDTH 500 0
DWIDTH 16 0
BBX 13 33 1 0
BITMAP
0060
00F0
01E0
0380
0600
0800
0300
0780
0FC0
1CC0
3860
2030
0000
FFF0
3010
3010
3010
3000
3000
3000
3000
3000
3FE0
3040
3000
3000
3000
3000
3000
3008
3008
3018
FFF8
ENDCHAR
STARTCHAR 1EBF
ENCODING 7871
SWIDTH 468 0
DWIDTH 15 0
BBX 13 30 1 0
BITMAP
0060
00F0
00C0
0180
0180
0300
0600
0300
0780
0F80
0CC0
1860
1020
2010
0000
07C0
1860
2030
6018
4018
C018
FFF0
C000
C000
C000
E000
6000
7008
3830
0FC0
ENDCHAR
STARTCHAR 1EC0
ENCODING 7872
SWIDTH 500 0
DWIDTH 16 0
BBX 13 33 1 0
BITMAP
3000
3C00
1E00
0700
0180
00C0
0300
0780
0FC0
1CC0
3860
2030
0000
FFF0
3010
3010
3010
3000
3000
3000
3000
3000
3FE0
3040
3000
3000
3000
3000
3000
3008
3008
3018
FFF8
ENDCHAR
STARTCHAR 1EC1
ENCODING 7873
SWIDTH 468 0
DWIDTH 15 0
BBX 13 30 1 0
BITMAP
1800
3C00
0C00
0600
0300
0100
0180
0300
0780
0F80
0CC0
1860
1020
2010
0000
07C0
1860
2030
6018
4018
C018
FFF0
C000
C000
C000
E000
6000
7008
3830
0FC0
ENDCHAR
STARTCHAR 1EC2
ENCODING 7874
SWIDTH 500 0
DWIDTH 16 0
BBX 13 34 1 0
BITMAP
0780
0980
0180
0600
0600
0300
0000
0300
0780
0FC0
1CC0
3860
2030
0000
FFF0
3010
3010
3010
3000
3000
3000
3000
3000
3FE0
3040
3000
3000
3000
3000
3000
3008
3008
3018
FFF8
ENDCHAR
STARTCHAR 1EC3
ENCODING 7875
SWIDTH 468 0
DWIDTH 15 0
BBX 13 30 1 0
BITMAP
0780
0980
0980
0300
0600
0600
0100
0300
0780
0F80
0CC0
1860
1020
2010
0000
07C0
1860
2030
6018
4018
C018
FFF0
C000
C000
C000
E000
6000
7008
3830
0FC0
ENDCHAR
STARTCHAR 1EC4
ENCODING 7876
SWIDTH 500 0
DWIDTH 16 0
BBX 13 32 1 0
BITMAP
1E10
1F30
23E0
40C0
0000
0300
0780
0FC0
1CC0
3860
2030
0000
FFF0
3010
3010
3010
3000
3000
3000
3000
3000
3FE0
3040
3000
3000
3000
3000
3000
3008
3008
3018
FFF8
ENDCHAR
STARTCHAR 1EC5
ENCODING 7877
SWIDTH 468 0
DWIDTH 15 0
BBX 13 28 1 0
BITMAP
0E10
1F20
31C0
2000
0000
0300
0780
0F80
0CC0
1860
1020
2010
0000
07C0
1860
2030
6018
4018
C018
FFF0
C000
C000
C000
E000
6000
7008
3830
0FC0
ENDCHAR
STARTCHAR 1EC6
ENCODING 7878
SWIDTH 500 0
DWIDTH 16 0
BBX 13 34 1 -7
BITMAP
0300
0780
0FC0
1CC0
3860
2030
0000
FFF0
3010
3010
3010
3000
3000
3000
3000
3000
3FE0
3040
3000
3000
3000
3000
3000
3008
3008
3018
FFF8
0000
0000
0000
0300
0700
0700
0600
ENDCHAR
STARTCHAR 1EC7
ENCODING 7879
SWIDTH 468 0
DWIDTH 15 0
BBX 13 30 1 -7
BITMAP
0300
0780
0F80
0CC0
1860
1020
2010
0000
07C0
1860
2030
6018
4018
C018
FFF0
C000
C000
C000
E000
6000
7008
3830
0FC0
0000
0000
0000
0300
0700
0700
0600
ENDCHAR
STARTCHAR 1EC8
ENCODING 7880
SWIDTH 312 0
DWIDTH 10 0
BBX 6 28 2 0
BITMAP
70
98
90
60
C0
60
00
00
FC
30
30
30
30
30
30
30
30
30
30
30
30
30
30
30
30
30
30
FC
ENDCHAR
STARTCHAR 1EC9
ENCODING 7881
SWIDTH 281 0
DWIDTH 9 0
BBX 6 23 1 0
BITMAP
38
5C
98
30
60
30
00
00
30
F0
30
30
30
30
30
30
30
30
30
30
30
30
FC
ENDCHAR
STARTCHAR 1ECA
ENCODING 7882
SWIDTH 312 0
DWIDTH 10 0
BBX 6 27 2 -7
BITMAP
FC
30
30
30
30
30
30
30
30
30
30
30
30
30
30
30
30
30
30
FC
00
00
00
60
70
70
60
ENDCHAR
STARTCHAR 1ECB
ENCODING 7883
SWIDTH 281 0
DWIDTH 9 0
BBX 6 28 1 -7
BITMAP
30
70
70
60
00
00
30
F0
30
30
30
30
30
30
30
30
30
30
30
30
FC
00
00
00
30
30
78
30
ENDCHAR
STARTCHAR 1ECC
ENCODING 7884
SWIDTH 593 0
DWIDTH 19 0
BBX 17 27 1 -7
BITMAP
03F000
0C1800
100C00
300600
200300
600300
400380
C00180
C00180
C00180
C00180
C00180
C00180
E00100
600300
600200
300600
380400
0C1800
07E000
000000
000000
000000
018000
01C000
01C000
018000
ENDCHAR
STARTCHAR 1ECD
ENCODING 7885
SWIDTH 500 0
DWIDTH 16 0
BBX 14 22 1 -7
BITMAP
07C0
1870
2038
6018
401C
C00C
C00C
C00C
C00C
C00C
E008
6018
7010
3820
0FC0
0000
0000
0000
0300
0300
0700
0300
ENDCHAR
STARTCHAR 1ECE
ENCODING 7886
SWIDTH 593 0
DWIDTH 19 0
BBX 17 28 1 0
BITMAP
01C000
026000
024000
018000
030000
018000
000000
000000
03F000
0C1800
100C00
300600
200300
600300
400380
C00180
C00180
C00180
C00180
C00180
C00180
E00100
600300
600200
300600
380400
0C1800
07E000
ENDCHAR
STARTCHAR 1ECF
ENCODING 7887
SWIDTH 500 0
DWIDTH 16 0
BBX 14 23 1 0
BITMAP
0380
0580
0980
0300
0600
0300
0000
0000
07C0
1870
2038
6018
401C
C00C
C00C
C00C
C00C
C00C
E008
6018
7010
3820
0FC0
ENDCHAR
STARTCHAR 1ED0
ENCODING 7888
SWIDTH 593 0
DWIDTH 19 0
BBX 17 33 1 0
BITMAP
001800
003C00
007000
00E000
038000
020000
01C000
01E000
03E000
073000
0C1800
080C00
000000
03F000
0C1800
100C00
300600
200300
600300
400380
C00180
C00180
C00180
C00180
C00180
C00180
E00100
600300
600200
300600
380400
0C1800
07E000
ENDCHAR
STARTCHAR 1ED1
ENCODING 7889
SWIDTH 500 0
DWIDTH 16 0
BBX 14 30 1 0
BITMAP
0070
0070
00E0
01C0
0180
0300
0200
0380
0380
07C0
0EC0
0C60
1830
3010
0000
07C0
1870
2038
6018
401C
C00C
C00C
C00C
C00C
C00C
E008
6018
7010
3820
0FC0
ENDCHAR
STARTCHAR 1ED2
ENCODING 7890
SWIDTH 593 0
DWIDTH 19 0
BBX 17 33 1 0
BITMAP
0C0000
1E0000
070000
01C000
00E000
002000
01C000
01E000
03E000
073000
0C1800
080C00
000000
03F000
0C1800
100C00
300600
200300
600300
400380
C00180
C00180
C00180
C00180
C00180
C00180
E00100
600300
600200
300600
380400
0C1800
07E000
ENDCHAR
STARTCHAR 1ED3
ENCODING 7891
SWIDTH 500 0
DWIDTH 16 0
BBX 14 30 1 0
BITMAP
1C00
1C00
0E00
0600
0300
0180
0080
0380
0380
07C0
0EC0
0C60
1830
3010
0000
07C0
1870
2038
6018
401C
C00C
C00C
C00C
C00C
C00C
E008
6018
7010
3820
0FC0
ENDCHAR
STARTCHAR 1ED4
ENCODING 7892
SWIDTH 593 0
DWIDTH 19 0
BBX 17 34 1 0
BITMAP
01C000
026000
00C000
018000
030000
018000
000000
01C000
01E000
03E000
073000
0C1800
080C00
000000
03F000
0C1800
100C00
300600
200300
600300
400380
C00180
C00180
C00180
C00180
C00180
C00180
E00100
600300
600200
300600
380400
0C1800
07E000
ENDCHAR
STARTCHAR 1ED5
ENCODING 7893
SWIDTH 500 0
DWIDTH 16 0
BBX 14 30 1 0
BITMAP
0380
0580
0980
0300
0600
0300
0000
0380
0380
07C0
0EC0
0C60
1830
3010
0000
07C0
1870
2038
6018
401C
C00C
C00C
C00C
C00C
C00C
E008
6018
7010
3820
0FC0
ENDCHAR
STARTCHAR 1ED6
ENCODING 7894
SWIDTH 593 0
DWIDTH 19 0
BBX 17 32 1 0
BITMAP
078400
0FCC00
08F800
106000
000000
01C000
01E000
03E000
073000
0C1800
080C00
000000
03F000
0C1800
100C00
300600
200300
600300
400380
C00180
C00180
C00180
C00180
C00180
C00180
E00100
600300
600200
300600
380400
0C1800
07E000
ENDCHAR
STARTCHAR 1ED7
ENCODING 7895
SWIDTH 500 0
DWIDTH 16 0
BBX 14 28 1 0
BITMAP
0E08
1F90
11E0
2000
0000
0380
0380
07C0
0EC0
0C60
1830
3010
0000
07C0
1870
2038
6018
401C
C00C
C00C
C00C
C00C
C00C
E008
6018
7010
3820
0FC0
ENDCHAR
STARTCHAR 1ED8
ENCODING 7896
SWIDTH 593 0
DWIDTH 19 0
BBX 17 34 1 -7
BITMAP
01C000
01E000
03E000
073000
0C1800
080C00
000000
03F000
0C1800
100C00
300600
200300
600300
400380
C00180
C00180
C00180
C00180
C00180
C00180
E00100
600300
600200
300600
380400
0C1800
07E000
000000
000000
000000
018000
01C000
01C000
018000
ENDCHAR
STARTCHAR 1ED9
ENCODING 7897
SWIDTH 500 0
DWIDTH 16 0
BBX 14 30 1 -7
BITMAP
0380
0380
07C0
0EC0
0C60
1830
3010
0000
07C0
1870
2038
6018
401C
C00C
C00C
C00C
C00C
C00C
E008
6018
7010
3820
0FC0
0000
0000
0000
0300
0300
0700
0300
ENDCHAR
STARTCHAR 1EDA
ENCODING 7898
SWIDTH 593 0
DWIDTH 19 0
BBX 18 27 1 0
BITMAP
001800
003C00
007800
00E000
0180C0
0201C0
0000C0
03F080
0C1D00
100E00
300600
200300
600300
400380
C00180
C00180
C00180
C00180
C00180
C00180
E00100
600300
600200
300600
380400
0C1800
07E000
ENDCHAR
STARTCHAR 1EDB
ENCODING 7899
SWIDTH 531 0
DWIDTH 17 0
BBX 16 23 1 0
BITMAP
0070
0070
00E0
01C0
0180
0303
0207
0003
07C2
1874
2038
6018
401C
C00C
C00C
C00C
C00C
C00C
E008
6018
7010
3820
0FC0
ENDCHAR
STARTCHAR 1EDC
ENCODING 7900
SWIDTH 593 0
DWIDTH 19 0
BBX 18 27 1 0
BITMAP
0C0000
1E0000
0F0000
038000
00E0C0
0021C0
0000C0
03F080
0C1D00
100E00
300600
200300
600300
400380
C00180
C00180
C00180
C00180
C00180
C00180
E00100
600300
600200
300600
380400
0C1800
07E000
ENDCHAR
STARTCHAR 1EDD
ENCODING 7901
SWIDTH 531 0
DWIDTH 17 0
BBX 16 23 1 0
BITMAP
1C00
1C00
0E00
0600
0300
0183
0087
0003
07C2
1874
2038
6018
401C
C00C
C00C
C00C
C00C
C00C
E008
6018
7010
3820
0FC0
ENDCHAR
STARTCHAR 1EDE
ENCODING 7902
SWIDTH 593 0
DWIDTH 19 0
BBX 18 28 1 0
BITMAP
01C000
026000
024000
018000
030000
0180C0
0001C0
0000C0
03F080
0C1D00
100E00
300600
200300
600300
400380
C00180
C00180
C00180
C00180
C00180
C00180
E00100
600300
600200
300600
380400
0C1800
07E000
ENDCHAR
STARTCHAR 1EDF
ENCODING 7903
SWIDTH 531 0
DWIDTH 17 0
BBX 16 23 1 0
BITMAP
0380
0580
0980
0300
0600
0303
0007
0003
07C2
1874
2038
6018
401C
C00C
C00C
C00C
C00C
C00C
E008
6018
7010
3820
0FC0
ENDCHAR
STARTCHAR 1EE0
ENCODING 7904
SWIDTH 593 0
DWIDTH 19 0
BBX 18 26 1 0
BITMAP
030400
07CC00
08F800
1070C0
0001C0
0000C0
03F080
0C1D00
100E00
300600
200300
600300
400380
C00180
C00180
C00180
C00180
C00180
C00180
E00100
600300
600200
300600
380400
0C1800
07E000
ENDCHAR
STARTCHAR 1EE1
ENCODING 7905
SWIDTH 531 0
DWIDTH 17 0
BBX 16 21 1 0
BITMAP
0E08
1F90
11E0
2003
0007
0003
07C2
1874
2038
6018
401C
C00C
C00C
C00C
C00C
C00C
E008
6018
7010
3820
0FC0
ENDCHAR
STARTCHAR 1EE2
ENCODING 7906
SWIDTH 593 0
DWIDTH 19 0
BBX 18 30 1 -7
BITMAP
0000C0
0001C0
0000C0
03F080
0C1D00
100E00
300600
200300
600300
400380
C00180
C00180
C00180
C00180
C00180
C00180
E00100
600300
600200
300600
380400
0C1800
07E000
000000
000000
000000
018000
01C000
01C000
018000
ENDCHAR
STARTCHAR 1EE3
ENCODING 7907
SWIDTH 531 0
DWIDTH 17 0
BBX 16 25 1 -7
BITMAP
0003
0007
0003
07C2
1874
2038
6018
401C
C00C
C00C
C00C
C00C
C00C
E008
6018
7010
3820
0FC0
0000
0000
0000
0300
0300
0700
0300
ENDCHAR
STARTCHAR 1EE4
ENCODING 7908
SWIDTH 656 0
DWIDTH 21 0
BBX 19 27 1 -7
BITMAP
FC07E0
300180
300180
300180
300180
300180
300180
300180
300180
300180
300180
300180
300180
300180
300180
300100
180300
1C0600
0E0C00
03F000
000000
000000
000000
00C000
00E000
00E000
00C000
ENDCHAR
STARTCHAR 1EE5
ENCODING 7909
SWIDTH 531 0
DWIDTH 17 0
BBX 15 22 1 -7
BITMAP
3018
F078
3018
3018
3018
3018
3018
3018
3018
3018
3018
3018
3038
18DE
0F18
0000
0000
0000
0300
0380
0300
0300
ENDCHAR
STARTCHAR 1EE6
ENCODING 7910
SWIDTH 656 0
DWIDTH 21 0
BBX 19 28 1 0
BITMAP
00E000
013000
022000
00C000
018000
00C000
000000
000000
FC07E0
300180
300180
300180
300180
300180
300180
300180
300180
300180
300180
300180
300180
300180
300180
300100
180300
1C0600
0E0C00
03F000
ENDCHAR
STARTCHAR 1EE7
ENCODING 7911
SWIDTH 531 0
DWIDTH 17 0
BBX 15 23 1 0
BITMAP
0380
05C0
0880
0300
0600
0300
0000
0000
3018
F078
3018
3018
3018
3018
3018
3018
3018
3018
3018
3018
3038
18DE
0F18
ENDCHAR
STARTCHAR 1EE8
ENCODING 7912
SWIDTH 687 0
DWIDTH 22 0
BBX 21 27 1 0
BITMAP
000C00
001E00
003C00
007000
00C018
010038
000038
FC07F0
3001E0
3001C0
300180
300180
300180
300180
300180
300180
300180
300180
300180
300180
300180
300180
300100
180300
1C0600
0E0C00
03F000
ENDCHAR
STARTCHAR 1EE9
ENCODING 7913
SWIDTH 625 0
DWIDTH 20 0
BBX 18 23 1 0
BITMAP
007000
007000
00E000
00C000
018000
0100C0
0201C0
0000C0
003880
707900
F01E00
301800
301800
301800
301800
301800
301800
301800
301800
301800
303800
38DF00
1F0C00
ENDCHAR
STARTCHAR 1EEA
ENCODING 7914
SWIDTH 687 0
DWIDTH 22 0
BBX 21 27 1 0
BITMAP
060000
0F0000
078000
01C000
006018
001038
000038
FC07F0
3001E0
3001C0
300180
300180
300180
300180
300180
300180
300180
300180
300180
300180
300180
300180
300100
180300
1C0600
0E0C00
03F000
ENDCHAR
STARTCHAR 1EEB
ENCODING 7915
SWIDTH 625 0
DWIDTH 20 0
BBX 18 23 1 0
BITMAP
1C0000
1C0000
0E0000
070000
030000
0180C0
0081C0
0000C0
003880
707900
F01E00
301800
301800
301800
301800
301800
301800
301800
301800
301800
303800
38DF00
1F0C00
ENDCHAR
STARTCHAR 1EEC
ENCODING 7916
SWIDTH 687 0
DWIDTH 22 0
BBX 21 28 1 0
BITMAP
00E000
013000
022000
00C000
018000
00C018
000038
000038
FC07F0
3001E0
3001C0
300180
300180
300180
300180
300180
300180
300180
300180
300180
300180
300180
300180
300100
180300
1C0600
0E0C00
03F000
ENDCHAR
STARTCHAR 1EED
ENCODING 7917
SWIDTH 625 0
DWIDTH 20 0
BBX 18 23 1 0
BITMAP
038000
05C000
088000
030000
060000
0300C0
0001C0
0000C0
003880
707900
F01E00
301800
301800
301800
301800
301800
301800
301800
301800
301800
303800
38DF00
1F0C00
ENDCHAR
STARTCHAR 1EEE
ENCODING 7918
SWIDTH 687 0
DWIDTH 22 0
BBX 21 26 1 0
BITMAP
018400
07E600
047C00
083818
000038
000038
FC07F0
3001E0
3001C0
300180
300180
300180
300180
300180
300180
300180
300180
300180
300180
300180
300180
300100
180300
1C0600
0E0C00
03F000
ENDCHAR
STARTCHAR 1EEF
ENCODING 7919
SWIDTH 625 0
DWIDTH 20 0
BBX 18 21 1 0
BITMAP
0E0800
1F9000
11E000
2000C0
0001C0
0000C0
003880
707900
F01E00
301800
301800
301800
301800
301800
301800
301800
301800
301800
303800
38DF00
1F0C00
ENDCHAR
STARTCHAR 1EF0
ENCODING 7920
SWIDTH 687 0
DWIDTH 22 0
BBX 21 30 1 -7
BITMAP
000018
000038
000038
FC07F0
3001E0
3001C0
300180
300180
300180
300180
300180
300180
300180
300180
300180
300180
300180
300180
300100
180300
1C0600
0E0C00
03F000
000000
000000
000000
00C000
00E000
00E000
00C000
ENDCHAR
STARTCHAR 1EF1
ENCODING 7921
SWIDTH 625 0
DWIDTH 20 0
BBX 18 25 1 -7
BITMAP
0000C0
0001C0
0000C0
003880
707900
F01E00
301800
301800
301800
301800
301800
301800
301800
301800
301800
303800
38DF00
1F0C00
000000
000000
000000
030000
038000
030000
030000
ENDCHAR
STARTCHAR 1EF2
ENCODING 7922
SWIDTH 593 0
DWIDTH 19 0
BBX 18 27 0 0
BITMAP
060000
0F0000
078000
01C000
006000
001000
000000
F01FC0
380700
1C0600
0C0C00
0E0C00
071800
071800
033000
03B000
01E000
01E000
00C000
00C000
00C000
00C000
00C000
00C000
00C000
00C000
07F800
ENDCHAR
STARTCHAR 1EF3
ENCODING 7923
SWIDTH 500 0
DWIDTH 16 0
BBX 16 31 -1 -8
BITMAP
0700
0700
0380
0180
00C0
0040
0020
0000
7E1F
1C06
1C04
0C0C
0E0C
0E08
0618
0718
0310
0330
03B0
01A0
01E0
01E0
00C0
00C0
0080
0180
0180
0300
7E00
7C00
F800
ENDCHAR
STARTCHAR 1EF4
ENCODING 7924
SWIDTH 593 0
DWIDTH 19 0
BBX 18 27 0 -7
BITMAP
F01FC0
380700
1C0600
0C0C00
0E0C00
071800
071800
033000
03B000
01E000
01E000
00C000
00C000
00C000
00C000
00C000
00C000
00C000
00C000
07F800
000000
000000
000000
00C000
00C000
01C000
00C000
ENDCHAR
STARTCHAR 1EF5
ENCODING 7925
SWIDTH 500 0
DWIDTH 16 0
BBX 16 23 -1 -8
BITMAP
7E1F
1C06
1C04
0C0C
0E0C
0E08
0618
0718
0310
0330
03B0
01A0
01E0
01E0
00C0
00C0
0080
0180
018C
031C
7E1C
7C18
F800
ENDCHAR
STARTCHAR 1EF6
ENCODING 7926
SWIDTH 593 0
DWIDTH 19 0
BBX 18 28 0 0
BITMAP
00E000
016000
027000
00C000
018000
00C000
000000
000000
F01FC0
380700
1C0600
0C0C00
0E0C00
071800
071800
033000
03B000
01E000
01E000
00C000
00C000
00C000
00C000
00C000
00C000
00C000
00C000
07F800
ENDCHAR
STARTCHAR 1EF7
ENCODING 7927
SWIDTH 500 0
DWIDTH 16 0
BBX 16 31 -1 -8
BITMAP
00E0
0160
0260
00C0
0180
00C0
0000
0000
7E1F
1C06
1C04
0C0C
0E0C
0E08
0618
0718
0310
0330
03B0
01A0
01E0
01E0
00C0
00C0
0080
0180
0180
0300
7E00
7C00
F800
ENDCHAR
STARTCHAR 1EF8
ENCODING 7928
SWIDTH 593 0
DWIDTH 19 0
BBX 18 26 0 0
BITMAP
038400
07E600
047C00
083800
000000
000000
F01FC0
380700
1C0600
0C0C00
0E0C00
071800
071800
033000
03B000
01E000
01E000
00C000
00C000
00C000
00C000
00C000
00C000
00C000
00C000
07F800
ENDCHAR
STARTCHAR 1EF9
ENCODING 7929
SWIDTH 500 0
DWIDTH 16 0
BBX 16 29 -1 -8
BITMAP
0386
07C4
0478
0800
0000
0000
7E1F
1C06
1C04
0C0C
0E0C
0E08
0618
0718
0310
0330
03B0
01A0
01E0
01E0
00C0
00C0
0080
0180
0180
0300
7E00
7C00
F800
ENDCHAR
STARTCHAR 2011
ENCODING 8209
SWIDTH 343 0
DWIDTH 11 0
BBX 9 1 1 8
BITMAP
FF80
ENDCHAR
STARTCHAR 2013
ENCODING 8211
SWIDTH 468 0
DWIDTH 15 0
BBX 13 1 1 8
BITMAP
FFF8
ENDCHAR
STARTCHAR 2014
ENCODING 8212
SWIDTH 781 0
DWIDTH 25 0
BBX 23 1 1 8
BITMAP
FFFFFE
ENDCHAR
STARTCHAR 2018
ENCODING 8216
SWIDTH 218 0
DWIDTH 7 0
BBX 4 8 2 15
BITMAP
20
60
40
C0
C0
F0
F0
40
ENDCHAR
STARTCHAR 2019
ENCODING 8217
SWIDTH 218 0
DWIDTH 7 0
BBX 4 8 2 15
BITMAP
20
F0
70
30
30
20
60
40
ENDCHAR
STARTCHAR 201A
ENCODING 8218
SWIDTH 218 0
DWIDTH 7 0
BBX 4 8 2 -4
BITMAP
20
F0
70
30
30
20
60
40
ENDCHAR
STARTCHAR 201C
ENCODING 8220
SWIDTH 437 0
DWIDTH 14 0
BBX 12 8 1 15
BITMAP
2020
6060
4040
C0C0
C0C0
F0F0
F0F0
4040
ENDCHAR
STARTCHAR 201D
ENCODING 8221
SWIDTH 437 0
DWIDTH 14 0
BBX 12 8 1 15
BITMAP
2020
F0F0
7070
3030
3030
2020
6060
4040
ENDCHAR
STARTCHAR 201E
ENCODING 8222
SWIDTH 437 0
DWIDTH 14 0
BBX 11 8 1 -4
BITMAP
2040
F1E0
70E0
3060
3060
2040
60C0
4080
ENDCHAR
STARTCHAR 2020
ENCODING 8224
SWIDTH 468 0
DWIDTH 15 0
BBX 14 24 1 -1
BITMAP
0180
0780
0700
0300
0300
0300
430C
7FF8
C308
0300
0300
0300
0780
0300
0300
0300
0300
0300
0300
0300
0300
0300
0300
0300
ENDCHAR
STARTCHAR 2021
ENCODING 8225
SWIDTH 468 0
DWIDTH 15 0
BBX 14 24 1 -1
BITMAP
0180
0780
0700
0300
0300
0300
430C
7FF8
C318
0300
0300
0300
0780
0300
0300
430C
7FF8
C318
0300
0300
0300
0300
0780
0600
ENDCHAR
STARTCHAR 2022
ENCODING 8226
SWIDTH 281 0
DWIDTH 9 0
BBX 7 8 1 6
BITMAP
38
7C
FE
FE
FE
FC
7C
78
ENDCHAR
STARTCHAR 2026
ENCODING 8230
SWIDTH 656 0
DWIDTH 21 0
BBX 18 4 2 0
BITMAP
70E1C0
F1E3C0
F1E3C0
E1C380
ENDCHAR
STARTCHAR 2030
ENCODING 8240
SWIDTH 1000 0
DWIDTH 32 0
BBX 30 20 1 -1
BITMAP
1E00C000
63018000
43038000
C1830000
C1860000
C18C0000
C19C0000
61180000
63300000
3C73C0F0
006C6198
00C86118
0198330C
0398330C
0318330C
0618330C
0E082308
1C0C6198
180780F0
30000000
ENDCHAR
STARTCHAR 2039
ENCODING 8249
SWIDTH 312 0
DWIDTH 10 0
BBX 7 14 1 0
BITMAP
06
04
08
18
30
70
E0
E0
70
30
18
08
04
06
ENDCHAR
STARTCHAR 203A
ENCODING 8250
SWIDTH 312 0
DWIDTH 10 0
BBX 7 14 2 0
BITMAP
80
40
60
30
38
1C
0C
1C
1E
38
30
60
40
80
ENDCHAR
STARTCHAR 2044
ENCODING 8260
SWIDTH 593 0
DWIDTH 19 0
BBX 14 19 3 0
BITMAP
000C
0018
0010
0030
0060
0040
00C0
0180
0180
0300
0600
0600
0C00
1800
1800
3000
6000
6000
C000
ENDCHAR
STARTCHAR 20AC
ENCODING 8364
SWIDTH 468 0
DWIDTH 15 0
BBX 14 19 0 0
BITMAP
01F8
061C
0C08
0C00
1800
1800
3800
7FE0
3800
3800
3800
FFC0
3800
3800
1800
1C00
0C04
0E08
03F0
ENDCHAR
STARTCHAR 2122
ENCODING 8482
SWIDTH 593 0
DWIDTH 19 0
BBX 18 7 0 13
BITMAP
FFC1C0
996380
186280
185380
185580
184D80
3CEBC0
ENDCHAR
STARTCHAR 2126
ENCODING 8486
SWIDTH 625 0
DWIDTH 20 0
BBX 16 20 2 0
BITMAP
03E0
0C18
300C
2006
6006
4003
C003
C003
C003
C003
C003
C007
6006
6006
700C
381C
9839
8C31
8661
FE7F
ENDCHAR
STARTCHAR 2202
ENCODING 8706
SWIDTH 500 0
DWIDTH 16 0
BBX 14 22 1 0
BITMAP
0FC0
30E0
2030
0038
0018
0018
000C
078C
186C
203C
601C
400C
C00C
C00C
C00C
C008
C018
E018
6010
7030
3860
0F80
ENDCHAR
STARTCHAR 2205
ENCODING 8709
SWIDTH 656 0
DWIDTH 21 0
BBX 19 23 1 -2
BITMAP
000060
01F0C0
060D80
180780
300780
300F80
601CC0
601CC0
C038E0
C07060
C07060
C0E060
C1C060
C18060
E38040
6700C0
6E0080
3C0180
3C0300
360600
61F800
600000
800000
ENDCHAR
STARTCHAR 2206
ENCODING 8710
SWIDTH 562 0
DWIDTH 18 0
BBX 16 20 1 0
BITMAP
0080
0180
0380
03C0
02C0
06E0
06E0
0C60
0C70
0C30
1838
1838
3818
301C
301C
600E
600E
6006
C007
FFFF
ENDCHAR
STARTCHAR 220F
ENCODING 8719
SWIDTH 625 0
DWIDTH 20 0
BBX 18 20 1 0
BITMAP
FFFFC0
380700
300300
300300
300300
300300
300300
300300
300300
300300
300300
300300
300300
300300
300300
300300
300300
300300
300300
FC0FC0
ENDCHAR
STARTCHAR 2211
ENCODING 8721
SWIDTH 531 0
DWIDTH 17 0
BBX 15 20 1 0
BITMAP
FFFC
700C
3804
3C04
1C00
0E00
0E00
0700
0380
0380
0300
0300
0600
0C00
1800
1802
3006
6006
7FFC
FFFC
ENDCHAR
STARTCHAR 2212
ENCODING 8722
SWIDTH 406 0
DWIDTH 13 0
BBX 11 1 1 8
BITMAP
FFE0
ENDCHAR
STARTCHAR 2219
ENCODING 8729
SWIDTH 156 0
DWIDTH 5 0
BBX 3 4 1 9
BITMAP
60
E0
E0
C0
ENDCHAR
STARTCHAR 221A
ENCODING 8730
SWIDTH 593 0
DWIDTH 19 0
BBX 19 22 0 0
BITMAP
0001E0
000100
000100
000100
000300
000200
000200
000600
F80600
1C0400
1C0400
0E0C00
0E0800
070800
071800
039800
039000
01F000
01F000
00F000
00E000
004000
ENDCHAR
STARTCHAR 221E
ENCODING 8734
SWIDTH 656 0
DWIDTH 21 0
BBX 19 7 1 6
BITMAP
1E0780
7F88E0
E3F060
C0E060
C17060
E238C0
3C0F00
ENDCHAR
STARTCHAR 222B
ENCODING 8747
SWIDTH 281 0
DWIDTH 9 0
BBX 14 32 -3 -8
BITMAP
0078
009C
0108
0100
0300
0300
0300
0300
0300
0300
0300
0300
0300
0300
0300
0380
0180
0180
0180
0180
0180
0180
0180
0180
0180
0180
0180
0100
0300
0200
7C00
F800
ENDCHAR
STARTCHAR 2248
ENCODING 8776
SWIDTH 437 0
DWIDTH 14 0
BBX 12 8 1 5
BITMAP
0010
7C30
C3C0
8000
0000
3820
C630
81E0
ENDCHAR
STARTCHAR 2260
ENCODING 8800
SWIDTH 437 0
DWIDTH 14 0
BBX 12 14 1 2
BITMAP
0060
00E0
00C0
01C0
FFF0
0300
0600
0600
0C00
FFF0
3800
3000
7000
6000
ENDCHAR
STARTCHAR 2264
ENCODING 8804
SWIDTH 437 0
DWIDTH 14 0
BBX 12 13 1 3
BITMAP
0030
00F0
07C0
3E00
F800
F000
7E00
0F80
01F0
0070
0000
0000
FFF0
ENDCHAR
STARTCHAR 2265
ENCODING 8805
SWIDTH 437 0
DWIDTH 14 0
BBX 12 13 1 3
BITMAP
6000
F800
1F00
07E0
00F0
01F0
07C0
3E00
F800
C000
0000
0000
FFF0
ENDCHAR
STARTCHAR 25CA
ENCODING 9674
SWIDTH 343 0
DWIDTH 11 0
BBX 11 20 0 0
BITMAP
0400
0E00
0E00
1F00
1300
3380
2180
61C0
60C0
C0C0
C060
60C0
6080
3180
3100
1B00
1A00
0E00
0E00
0C00
ENDCHAR
STARTCHAR 25CC
ENCODING 9676
SWIDTH 531 0
DWIDTH 17 0
BBX 15 14 1 0
BITMAP
0F60
3018
0000
8004
C006
0000
C004
0000
0000
C006
0000
3018
0C60
0300
ENDCHAR
STARTCHAR 2C60
ENCODING 11360
SWIDTH 468 0
DWIDTH 15 0
BBX 13 20 1 0
BITMAP
FC00
3000
3000
3000
3000
3000
3000
3000
3000
FF00
3000
3000
FF00
3000
3000
3000
3008
3008
3018
FFF8
ENDCHAR
STARTCHAR 2C61
ENCODING 11361
SWIDTH 312 0
DWIDTH 10 0
BBX 8 24 1 0
BITMAP
18
78
18
18
18
18
18
18
18
FF
18
18
18
FF
18
18
18
18
18
18
18
18
18
7E
ENDCHAR
STARTCHAR 2C62
ENCODING 11362
SWIDTH 468 0
DWIDTH 15 0
BBX 15 20 -1 0
BITMAP
3F00
0C00
0C00
0C00
0C00
0C00
0C00
0C00
0C00
0C40
3CC0
4F00
8C00
0C00
0C00
0C00
0C02
0C02
0C06
3FFE
ENDCHAR
STARTCHAR A789
ENCODING 42889
SWIDTH 218 0
DWIDTH 7 0
BBX 4 12 1 1
BITMAP
70
F0
F0
E0
00
00
00
00
70
F0
F0
E0
ENDCHAR
STARTCHAR A78A
ENCODING 42890
SWIDTH 343 0
DWIDTH 11 0
BBX 9 5 1 5
BITMAP
FF80
0000
0000
0000
FF80
ENDCHAR
STARTCHAR A78B
ENCODING 42891
SWIDTH 250 0
DWIDTH 8 0
BBX 4 14 2 11
BITMAP
70
F0
E0
E0
E0
E0
60
60
60
60
60
60
60
60
ENDCHAR
STARTCHAR A78C
ENCODING 42892
SWIDTH 250 0
DWIDTH 8 0
BBX 4 13 2 10
BITMAP
70
F0
E0
E0
60
60
60
60
60
60
60
60
60
ENDCHAR
STARTCHAR F130
ENCODING 61744
SWIDTH 156 0
DWIDTH 5 0
BBX 4 5 1 -5
BITMAP
F0
10
10
10
10
ENDCHAR
STARTCHAR F131
ENCODING 61745
SWIDTH 156 0
DWIDTH 5 0
BBX 5 5 0 -5
BITMAP
F8
80
80
80
80
ENDCHAR
STARTCHAR F195
ENCODING 61845
SWIDTH 187 0
DWIDTH 6 0
BBX 6 7 0 16
BITMAP
E0
E0
70
38
18
0C
04
ENDCHAR
STARTCHAR F197
ENCODING 61847
SWIDTH 187 0
DWIDTH 6 0
BBX 6 7 0 16
BITMAP
1C
1C
38
30
60
40
80
ENDCHAR
STARTCHAR F1C8
ENCODING 61896
SWIDTH 312 0
DWIDTH 10 0
BBX 8 11 1 13
BITMAP
3E
67
C3
C3
03
06
0C
18
18
18
18
ENDCHAR
STARTCHAR F1E9
ENCODING 61929
SWIDTH 218 0
DWIDTH 7 0
BBX 4 12 1 1
BITMAP
70
F0
F0
E0
00
00
00
00
70
F0
F0
E0
ENDCHAR
STARTCHAR F1EA
ENCODING 61930
SWIDTH 343 0
DWIDTH 11 0
BBX 9 5 1 5
BITMAP
FF80
0000
0000
0000
FF80
ENDCHAR
STARTCHAR F20E
ENCODING 61966
SWIDTH 312 0
DWIDTH 10 0
BBX 8 24 1 0
BITMAP
18
78
18
18
18
18
18
18
18
FF
18
18
18
FF
18
18
18
18
18
18
18
18
18
7E
ENDCHAR
STARTCHAR F20F
ENCODING 61967
SWIDTH 468 0
DWIDTH 15 0
BBX 13 20 1 0
BITMAP
FC00
3000
3000
3000
3000
3000
3000
3000
3000
FF00
3000
3000
FF00
3000
3000
3000
3008
3008
3018
FFF8
ENDCHAR
STARTCHAR F211
ENCODING 61969
SWIDTH 500 0
DWIDTH 16 0
BBX 19 23 1 -8
BITMAP
07C800
183800
301800
601800
401800
C01800
C01800
C01800
C01800
C01800
C01800
601800
703800
385800
0F9800
001800
001800
001800
001800
001860
001860
001C40
000F80
ENDCHAR
STARTCHAR F212
ENCODING 61970
SWIDTH 593 0
DWIDTH 19 0
BBX 21 28 1 -8
BITMAP
01E200
07FF00
0C1E00
180E00
300600
600600
600600
C00600
C00600
C00600
C00600
C00600
C00600
E00600
600600
600E00
301E00
383600
1FE600
078600
000600
000600
000600
000600
000608
000618
000710
0003E0
ENDCHAR
STARTCHAR F218
ENCODING 61976
SWIDTH 656 0
DWIDTH 21 0
BBX 19 20 1 0
BITMAP
FC07E0
300180
300180
300180
300180
300180
300180
300180
300180
FFFFE0
300180
300180
300180
300180
300180
300300
180300
1C0600
0E0C00
03F000
ENDCHAR
STARTCHAR F219
ENCODING 61977
SWIDTH 656 0
DWIDTH 21 0
BBX 20 20 0 0
BITMAP
002000
007000
00F000
00F000
00F800
019800
019C00
011C00
030C00
030E00
060E00
060600
060700
0C0300
0C0380
0C0380
180180
1801C0
1801C0
FE07F0
ENDCHAR
STARTCHAR F21D
ENCODING 61981
SWIDTH 250 0
DWIDTH 8 0
BBX 4 13 2 10
BITMAP
70
F0
E0
E0
60
60
60
60
60
60
60
60
60
ENDCHAR
STARTCHAR F21E
ENCODING 61982
SWIDTH 375 0
DWIDTH 12 0
BBX 10 15 1 0
BITMAP
3F00
6180
C0C0
C0C0
80C0
01C0
0380
0700
0600
0C00
0C00
0C00
0C00
0C00
7F80
ENDCHAR
STARTCHAR F21F
ENCODING 61983
SWIDTH 468 0
DWIDTH 15 0
BBX 13 20 1 0
BITMAP
FC00
3000
3000
3000
3000
3000
3000
3000
3000
3000
FF00
3000
3000
3000
3000
3000
3008
3008
3018
FFF8
ENDCHAR
STARTCHAR F242
ENCODING 62018
SWIDTH 468 0
DWIDTH 15 0
BBX 15 20 -1 0
BITMAP
3F00
0C00
0C00
0C00
0C00
0C00
0C00
0C00
0C00
0C40
3CC0
4F00
8C00
0C00
0C00
0C00
0C02
0C02
0C06
3FFE
ENDCHAR
STARTCHAR F26A
ENCODING 62058
SWIDTH 250 0
DWIDTH 8 0
BBX 4 14 2 11
BITMAP
70
F0
E0
E0
E0
E0
60
60
60
60
60
60
60
60
ENDCHAR
STARTCHAR FB01
ENCODING 64257
SWIDTH 593 0
DWIDTH 19 0
BBX 16 24 1 0
BITMAP
03E0
04C0
1800
100C
301C
301C
3018
3000
3000
FF0C
323C
300C
300C
300C
300C
300C
300C
300C
300C
300C
300C
300C
300C
FE3F
ENDCHAR
STARTCHAR FB02
ENCODING 64258
SWIDTH 593 0
DWIDTH 19 0
BBX 17 24 1 0
BITMAP
01E200
067E00
080600
180600
100600
300600
300600
300600
300600
FF0600
320600
300600
300600
300600
300600
300600
300600
300600
300600
300600
300600
300600
300600
FE1F80
ENDCHAR
ENDFONT
